G04*
G04 #@! TF.GenerationSoftware,Altium Limited,Altium Designer,21.3.2 (30)*
G04*
G04 Layer_Color=8388736*
%FSTAX24Y24*%
%MOIN*%
G70*
G04*
G04 #@! TF.SameCoordinates,7CA10C46-D00E-43F5-BDD8-F0146F79C00B*
G04*
G04*
G04 #@! TF.FilePolarity,Negative*
G04*
G01*
G75*
%ADD12C,0.0680*%
%ADD13C,0.0678*%
%ADD14R,0.0678X0.0678*%
%ADD15R,0.0552X0.1064*%
%ADD16O,0.0552X0.1064*%
%ADD17C,0.0513*%
D12*
X01595Y0143D02*
D03*
X01895D02*
D03*
X01695D02*
D03*
X01795D02*
D03*
D13*
X0095Y01435D02*
D03*
D14*
X0105D02*
D03*
D15*
X02085Y0124D02*
D03*
D16*
X01985D02*
D03*
X01885D02*
D03*
X01785D02*
D03*
X01685D02*
D03*
X01585D02*
D03*
X01485D02*
D03*
X01385D02*
D03*
X01285D02*
D03*
X01185D02*
D03*
X01085D02*
D03*
X00985D02*
D03*
X00885D02*
D03*
X00785D02*
D03*
X00685D02*
D03*
X00585D02*
D03*
X00485D02*
D03*
X00385D02*
D03*
X00285D02*
D03*
X02085Y0024D02*
D03*
X01985D02*
D03*
X01885D02*
D03*
X01785D02*
D03*
X01685D02*
D03*
X01585D02*
D03*
X01485D02*
D03*
X01385D02*
D03*
X01285D02*
D03*
X01185D02*
D03*
X01085D02*
D03*
X00985D02*
D03*
X00885D02*
D03*
X00785D02*
D03*
X00685D02*
D03*
X00585D02*
D03*
X00485D02*
D03*
X00385D02*
D03*
X00285D02*
D03*
D17*
X0089Y00915D02*
D03*
X01125Y00495D02*
D03*
X0105Y00565D02*
D03*
X01155Y01125D02*
D03*
M02*
