G04*
G04 #@! TF.GenerationSoftware,Altium Limited,Altium Designer,21.3.2 (30)*
G04*
G04 Layer_Color=128*
%FSTAX24Y24*%
%MOIN*%
G70*
G04*
G04 #@! TF.SameCoordinates,7CA10C46-D00E-43F5-BDD8-F0146F79C00B*
G04*
G04*
G04 #@! TF.FilePolarity,Positive*
G04*
G01*
G75*
%ADD31C,0.0020*%
D31*
X0158Y0143D02*
X0161D01*
X01595Y01415D02*
Y01445D01*
X0188Y0143D02*
X0191D01*
X01895Y01415D02*
Y01445D01*
X0168Y0143D02*
X0171D01*
X01695Y01415D02*
Y01445D01*
X0178Y0143D02*
X0181D01*
X01795Y01415D02*
Y01445D01*
X009299Y01435D02*
X009701D01*
X0095Y014149D02*
Y014551D01*
X010299Y01435D02*
X010701D01*
X0105Y014149D02*
Y014551D01*
X020732Y0124D02*
X020968D01*
X02085Y012282D02*
Y012518D01*
X019732Y0124D02*
X019968D01*
X01985Y012282D02*
Y012518D01*
X018732Y0124D02*
X018968D01*
X01885Y012282D02*
Y012518D01*
X017732Y0124D02*
X017968D01*
X01785Y012282D02*
Y012518D01*
X016732Y0124D02*
X016968D01*
X01685Y012282D02*
Y012518D01*
X015732Y0124D02*
X015968D01*
X01585Y012282D02*
Y012518D01*
X014732Y0124D02*
X014968D01*
X01485Y012282D02*
Y012518D01*
X013732Y0124D02*
X013968D01*
X01385Y012282D02*
Y012518D01*
X012732Y0124D02*
X012968D01*
X01285Y012282D02*
Y012518D01*
X011732Y0124D02*
X011968D01*
X01185Y012282D02*
Y012518D01*
X010732Y0124D02*
X010968D01*
X01085Y012282D02*
Y012518D01*
X009732Y0124D02*
X009968D01*
X00985Y012282D02*
Y012518D01*
X008732Y0124D02*
X008968D01*
X00885Y012282D02*
Y012518D01*
X007732Y0124D02*
X007968D01*
X00785Y012282D02*
Y012518D01*
X006732Y0124D02*
X006968D01*
X00685Y012282D02*
Y012518D01*
X005732Y0124D02*
X005968D01*
X00585Y012282D02*
Y012518D01*
X004732Y0124D02*
X004968D01*
X00485Y012282D02*
Y012518D01*
X003732Y0124D02*
X003968D01*
X00385Y012282D02*
Y012518D01*
X002732Y0124D02*
X002968D01*
X00285Y012282D02*
Y012518D01*
X020732Y0024D02*
X020968D01*
X02085Y002282D02*
Y002518D01*
X019732Y0024D02*
X019968D01*
X01985Y002282D02*
Y002518D01*
X018732Y0024D02*
X018968D01*
X01885Y002282D02*
Y002518D01*
X017732Y0024D02*
X017968D01*
X01785Y002282D02*
Y002518D01*
X016732Y0024D02*
X016968D01*
X01685Y002282D02*
Y002518D01*
X015732Y0024D02*
X015968D01*
X01585Y002282D02*
Y002518D01*
X014732Y0024D02*
X014968D01*
X01485Y002282D02*
Y002518D01*
X013732Y0024D02*
X013968D01*
X01385Y002282D02*
Y002518D01*
X012732Y0024D02*
X012968D01*
X01285Y002282D02*
Y002518D01*
X011732Y0024D02*
X011968D01*
X01185Y002282D02*
Y002518D01*
X010732Y0024D02*
X010968D01*
X01085Y002282D02*
Y002518D01*
X009732Y0024D02*
X009968D01*
X00985Y002282D02*
Y002518D01*
X008732Y0024D02*
X008968D01*
X00885Y002282D02*
Y002518D01*
X007732Y0024D02*
X007968D01*
X00785Y002282D02*
Y002518D01*
X006732Y0024D02*
X006968D01*
X00685Y002282D02*
Y002518D01*
X005732Y0024D02*
X005968D01*
X00585Y002282D02*
Y002518D01*
X004732Y0024D02*
X004968D01*
X00485Y002282D02*
Y002518D01*
X003732Y0024D02*
X003968D01*
X00385Y002282D02*
Y002518D01*
X002732Y0024D02*
X002968D01*
X00285Y002282D02*
Y002518D01*
X008762Y00915D02*
X009038D01*
X0089Y009012D02*
Y009288D01*
X011112Y00495D02*
X011388D01*
X01125Y004812D02*
Y005088D01*
X010362Y00565D02*
X010638D01*
X0105Y005512D02*
Y005788D01*
X011412Y01125D02*
X011688D01*
X01155Y011112D02*
Y011388D01*
M02*
