G04*
G04 #@! TF.GenerationSoftware,Altium Limited,Altium Designer,21.3.2 (30)*
G04*
G04 Layer_Color=65535*
%FSTAX24Y24*%
%MOIN*%
G70*
G04*
G04 #@! TF.SameCoordinates,7CA10C46-D00E-43F5-BDD8-F0146F79C00B*
G04*
G04*
G04 #@! TF.FilePolarity,Positive*
G04*
G01*
G75*
%ADD10C,0.0100*%
%ADD11C,0.0079*%
D10*
X01845Y0138D02*
Y01472D01*
X01532Y01379D02*
X01946D01*
X01532D02*
Y01475D01*
X01946D01*
Y01379D02*
Y01475D01*
X0128Y01465D02*
X0126D01*
X0125Y01455D01*
Y01415D01*
X0126Y01405D01*
X0128D01*
X0129Y01415D01*
Y01455D01*
X0128Y01465D01*
X0131D02*
Y01405D01*
X0135D01*
X0141Y01465D02*
X0137D01*
Y01405D01*
X0141D01*
X0137Y01435D02*
X0139D01*
X0143Y01465D02*
Y01405D01*
X0146D01*
X0147Y01415D01*
Y01455D01*
X0146Y01465D01*
X0143D01*
X0149Y01405D02*
X0151D01*
X015D01*
Y01465D01*
X0149Y01455D01*
X00725Y01465D02*
X00705D01*
X00715D01*
Y01415D01*
X00705Y01405D01*
X00695D01*
X00685Y01415D01*
X00745Y01405D02*
Y01465D01*
X00775D01*
X00785Y01455D01*
Y01435D01*
X00775Y01425D01*
X00745D01*
X00845Y01405D02*
X00805D01*
X00845Y01445D01*
Y01455D01*
X00835Y01465D01*
X00815D01*
X00805Y01455D01*
X00081Y01394D02*
Y01344D01*
X00091Y01334D01*
X00111D01*
X00121Y01344D01*
Y01394D01*
X00141Y01334D02*
X00161D01*
X00151D01*
Y01394D01*
X00141Y01384D01*
D11*
X008902Y01385D02*
X011098D01*
Y01485D01*
X008902D02*
X011098D01*
X008902Y01385D02*
Y01485D01*
X02265Y00715D02*
Y013D01*
Y0018D02*
Y00715D01*
X00075Y0018D02*
X02265Y0018D01*
X00075Y0018D02*
Y013D01*
X02265Y013D01*
M02*
