G04*
G04 #@! TF.GenerationSoftware,Altium Limited,Altium Designer,21.3.2 (30)*
G04*
G04 Layer_Color=2752767*
%FSTAX24Y24*%
%MOIN*%
G70*
G04*
G04 #@! TF.SameCoordinates,7CA10C46-D00E-43F5-BDD8-F0146F79C00B*
G04*
G04*
G04 #@! TF.FilePolarity,Positive*
G04*
G01*
G75*
%ADD31C,0.0020*%
%ADD32C,0.0027*%
D31*
X01587Y01422D02*
Y01438D01*
X01603D01*
Y01422D01*
X01587D01*
X01887D02*
Y01438D01*
X01903D01*
Y01422D01*
X01887D01*
X01687D02*
Y01438D01*
X01703D01*
Y01422D01*
X01687D01*
X01787D02*
Y01438D01*
X01803D01*
Y01422D01*
X01787D01*
X02085Y01232D02*
X02077Y01248D01*
X02093D01*
X02085Y01232D01*
X01985D02*
X01977Y01248D01*
X01993D01*
X01985Y01232D01*
X01885D02*
X01877Y01248D01*
X01893D01*
X01885Y01232D01*
X01785D02*
X01777Y01248D01*
X01793D01*
X01785Y01232D01*
X01685D02*
X01677Y01248D01*
X01693D01*
X01685Y01232D01*
X01585D02*
X01577Y01248D01*
X01593D01*
X01585Y01232D01*
X01485D02*
X01477Y01248D01*
X01493D01*
X01485Y01232D01*
X01385D02*
X01377Y01248D01*
X01393D01*
X01385Y01232D01*
X01285D02*
X01277Y01248D01*
X01293D01*
X01285Y01232D01*
X01185D02*
X01177Y01248D01*
X01193D01*
X01185Y01232D01*
X01085D02*
X01077Y01248D01*
X01093D01*
X01085Y01232D01*
X00985D02*
X00977Y01248D01*
X00993D01*
X00985Y01232D01*
X00885D02*
X00877Y01248D01*
X00893D01*
X00885Y01232D01*
X00785D02*
X00777Y01248D01*
X00793D01*
X00785Y01232D01*
X00685D02*
X00677Y01248D01*
X00693D01*
X00685Y01232D01*
X00585D02*
X00577Y01248D01*
X00593D01*
X00585Y01232D01*
X00485D02*
X00477Y01248D01*
X00493D01*
X00485Y01232D01*
X00385D02*
X00377Y01248D01*
X00393D01*
X00385Y01232D01*
X00285D02*
X00277Y01248D01*
X00293D01*
X00285Y01232D01*
X02085Y00232D02*
X02077Y00248D01*
X02093D01*
X02085Y00232D01*
X01985D02*
X01977Y00248D01*
X01993D01*
X01985Y00232D01*
X01885D02*
X01877Y00248D01*
X01893D01*
X01885Y00232D01*
X01785D02*
X01777Y00248D01*
X01793D01*
X01785Y00232D01*
X01685D02*
X01677Y00248D01*
X01693D01*
X01685Y00232D01*
X01585D02*
X01577Y00248D01*
X01593D01*
X01585Y00232D01*
X01485D02*
X01477Y00248D01*
X01493D01*
X01485Y00232D01*
X01385D02*
X01377Y00248D01*
X01393D01*
X01385Y00232D01*
X01285D02*
X01277Y00248D01*
X01293D01*
X01285Y00232D01*
X01185D02*
X01177Y00248D01*
X01193D01*
X01185Y00232D01*
X01085D02*
X01077Y00248D01*
X01093D01*
X01085Y00232D01*
X00985D02*
X00977Y00248D01*
X00993D01*
X00985Y00232D01*
X00885D02*
X00877Y00248D01*
X00893D01*
X00885Y00232D01*
X00785D02*
X00777Y00248D01*
X00793D01*
X00785Y00232D01*
X00685D02*
X00677Y00248D01*
X00693D01*
X00685Y00232D01*
X00585D02*
X00577Y00248D01*
X00593D01*
X00585Y00232D01*
X00485D02*
X00477Y00248D01*
X00493D01*
X00485Y00232D01*
X00385D02*
X00377Y00248D01*
X00393D01*
X00385Y00232D01*
X00285D02*
X00277Y00248D01*
X00293D01*
X00285Y00232D01*
X0089Y00907D02*
X00894Y00911D01*
X00898D01*
X00894Y00915D01*
X00898Y00919D01*
X00894D01*
X0089Y00923D01*
X00886Y00919D01*
X00882D01*
X00886Y00915D01*
X00882Y00911D01*
X00886D01*
X0089Y00907D01*
X01125Y00487D02*
X01129Y00491D01*
X01133D01*
X01129Y00495D01*
X01133Y00499D01*
X01129D01*
X01125Y00503D01*
X01121Y00499D01*
X01117D01*
X01121Y00495D01*
X01117Y00491D01*
X01121D01*
X01125Y00487D01*
X0105Y00557D02*
X01054Y00561D01*
X01058D01*
X01054Y00565D01*
X01058Y00569D01*
X01054D01*
X0105Y00573D01*
X01046Y00569D01*
X01042D01*
X01046Y00565D01*
X01042Y00561D01*
X01046D01*
X0105Y00557D01*
X01155Y01117D02*
X01159Y01121D01*
X01163D01*
X01159Y01125D01*
X01163Y01129D01*
X01159D01*
X01155Y01133D01*
X01151Y01129D01*
X01147D01*
X01151Y01125D01*
X01147Y01121D01*
X01151D01*
X01155Y01117D01*
D32*
X00958Y01435D02*
G03*
X00958Y01435I-00008J0D01*
G01*
X01058D02*
G03*
X01058Y01435I-00008J0D01*
G01*
M02*
