G04*
G04 #@! TF.GenerationSoftware,Altium Limited,Altium Designer,21.3.2 (30)*
G04*
G04 Layer_Physical_Order=2*
G04 Layer_Color=16711680*
%FSTAX24Y24*%
%MOIN*%
G70*
G04*
G04 #@! TF.SameCoordinates,7CA10C46-D00E-43F5-BDD8-F0146F79C00B*
G04*
G04*
G04 #@! TF.FilePolarity,Positive*
G04*
G01*
G75*
%ADD11C,0.0079*%
%ADD18C,0.0276*%
%ADD19C,0.0600*%
%ADD20C,0.0598*%
%ADD21R,0.0598X0.0598*%
%ADD22R,0.0472X0.0984*%
%ADD23O,0.0472X0.0984*%
%ADD24C,0.0433*%
%ADD25R,0.0394X0.0591*%
%ADD26R,0.0394X0.0374*%
G36*
X022683Y015596D02*
Y000152D01*
X000152D01*
Y015596D01*
X022683Y015596D01*
D02*
G37*
%LPC*%
G36*
X009553Y014749D02*
X00955D01*
Y0144D01*
X009899D01*
Y014403D01*
X009872Y014504D01*
X009819Y014595D01*
X009745Y014669D01*
X009654Y014722D01*
X009553Y014749D01*
D02*
G37*
G36*
X00945D02*
X009447D01*
X009346Y014722D01*
X009255Y014669D01*
X009181Y014595D01*
X009128Y014504D01*
X009101Y014403D01*
Y0144D01*
X00945D01*
Y014749D01*
D02*
G37*
G36*
X018003Y0147D02*
X018D01*
Y01435D01*
X01835D01*
Y014353D01*
X018323Y014454D01*
X01827Y014546D01*
X018196Y01462D01*
X018104Y014673D01*
X018003Y0147D01*
D02*
G37*
G36*
X0179D02*
X017897D01*
X017796Y014673D01*
X017704Y01462D01*
X01763Y014546D01*
X017577Y014454D01*
X01755Y014353D01*
Y01435D01*
X0179D01*
Y0147D01*
D02*
G37*
G36*
X009899Y0143D02*
X00955D01*
Y013951D01*
X009553D01*
X009654Y013978D01*
X009745Y014031D01*
X009819Y014105D01*
X009872Y014196D01*
X009899Y014297D01*
Y0143D01*
D02*
G37*
G36*
X00945D02*
X009101D01*
Y014297D01*
X009128Y014196D01*
X009181Y014105D01*
X009255Y014031D01*
X009346Y013978D01*
X009447Y013951D01*
X00945D01*
Y0143D01*
D02*
G37*
G36*
X01135Y015442D02*
X011257Y015424D01*
X011179Y015371D01*
X010556Y014749D01*
X010101D01*
Y013951D01*
X010899D01*
Y014406D01*
X01145Y014958D01*
X01795D01*
X018551Y014356D01*
X01855Y014353D01*
Y014247D01*
X018577Y014146D01*
X01863Y014054D01*
X018704Y01398D01*
X018796Y013927D01*
X018897Y0139D01*
X019003D01*
X019104Y013927D01*
X019196Y01398D01*
X01927Y014054D01*
X019323Y014146D01*
X01935Y014247D01*
Y014353D01*
X019323Y014454D01*
X01927Y014546D01*
X019196Y01462D01*
X019104Y014673D01*
X019003Y0147D01*
X018897D01*
X018894Y014699D01*
X018221Y015371D01*
X018143Y015424D01*
X01805Y015442D01*
X01135D01*
X01135Y015442D01*
D02*
G37*
G36*
X01835Y01425D02*
X018D01*
Y0139D01*
X018003D01*
X018104Y013927D01*
X018196Y01398D01*
X01827Y014054D01*
X018323Y014146D01*
X01835Y014247D01*
Y01425D01*
D02*
G37*
G36*
X0179D02*
X01755D01*
Y014247D01*
X017577Y014146D01*
X01763Y014054D01*
X017704Y01398D01*
X017796Y013927D01*
X017897Y0139D01*
X0179D01*
Y01425D01*
D02*
G37*
G36*
X016003Y0147D02*
X015897D01*
X015796Y014673D01*
X015704Y01462D01*
X01563Y014546D01*
X015577Y014454D01*
X01555Y014353D01*
Y014247D01*
X015577Y014146D01*
X015584Y014135D01*
X0153Y01385D01*
X015269Y013804D01*
X015258Y01375D01*
Y00475D01*
X015269Y004696D01*
X0153Y00465D01*
X015708Y004241D01*
Y002961D01*
X01568Y00295D01*
X01561Y002896D01*
X015556Y002825D01*
X015522Y002744D01*
X015511Y002656D01*
Y002144D01*
X015522Y002056D01*
X015556Y001975D01*
X01561Y001904D01*
X01568Y00185D01*
X015762Y001817D01*
X01585Y001805D01*
X015938Y001817D01*
X01602Y00185D01*
X01609Y001904D01*
X016144Y001975D01*
X016178Y002056D01*
X016189Y002144D01*
Y002656D01*
X016178Y002744D01*
X016144Y002825D01*
X01609Y002896D01*
X01602Y00295D01*
X015992Y002961D01*
Y0043D01*
X015981Y004354D01*
X01595Y0044D01*
X015542Y004809D01*
Y011911D01*
X015592Y011928D01*
X01561Y011904D01*
X01568Y01185D01*
X015762Y011817D01*
X01585Y011805D01*
X015938Y011817D01*
X01602Y01185D01*
X01609Y011904D01*
X016144Y011975D01*
X016178Y012056D01*
X016189Y012144D01*
Y012656D01*
X016178Y012744D01*
X016144Y012825D01*
X01609Y012896D01*
X01602Y01295D01*
X015938Y012983D01*
X01585Y012995D01*
X015762Y012983D01*
X01568Y01295D01*
X01561Y012896D01*
X015592Y012872D01*
X015542Y012889D01*
Y013691D01*
X015785Y013934D01*
X015796Y013927D01*
X015897Y0139D01*
X016003D01*
X016104Y013927D01*
X016196Y01398D01*
X01627Y014054D01*
X016323Y014146D01*
X01635Y014247D01*
Y014353D01*
X016323Y014454D01*
X01627Y014546D01*
X016196Y01462D01*
X016104Y014673D01*
X016003Y0147D01*
D02*
G37*
G36*
X017003D02*
X016897D01*
X016796Y014673D01*
X016704Y01462D01*
X01663Y014546D01*
X016577Y014454D01*
X01655Y014353D01*
Y014247D01*
X016577Y014146D01*
X01663Y014054D01*
X016704Y01398D01*
X016796Y013927D01*
X016897Y0139D01*
X017003D01*
X017104Y013927D01*
X017115Y013934D01*
X017208Y013841D01*
Y012801D01*
X017158Y012791D01*
X017144Y012825D01*
X01709Y012896D01*
X01702Y01295D01*
X016938Y012983D01*
X01685Y012995D01*
X016762Y012983D01*
X01668Y01295D01*
X01661Y012896D01*
X016556Y012825D01*
X016522Y012744D01*
X016511Y012656D01*
Y012144D01*
X016522Y012056D01*
X016556Y011975D01*
X01661Y011904D01*
X01668Y01185D01*
X016762Y011817D01*
X01685Y011805D01*
X016938Y011817D01*
X01702Y01185D01*
X01709Y011904D01*
X017144Y011975D01*
X017158Y012009D01*
X017208Y011999D01*
Y00635D01*
X017219Y006296D01*
X01725Y00625D01*
X018708Y004791D01*
Y002961D01*
X01868Y00295D01*
X01861Y002896D01*
X018556Y002825D01*
X018522Y002744D01*
X018511Y002656D01*
Y002144D01*
X018522Y002056D01*
X018556Y001975D01*
X01861Y001904D01*
X01868Y00185D01*
X018762Y001817D01*
X01885Y001805D01*
X018938Y001817D01*
X01902Y00185D01*
X01909Y001904D01*
X019144Y001975D01*
X019178Y002056D01*
X019189Y002144D01*
Y002656D01*
X019178Y002744D01*
X019144Y002825D01*
X01909Y002896D01*
X01902Y00295D01*
X018992Y002961D01*
Y00485D01*
X018981Y004904D01*
X01895Y00495D01*
X017492Y006409D01*
Y011999D01*
X017542Y012009D01*
X017556Y011975D01*
X01761Y011904D01*
X01768Y01185D01*
X017762Y011817D01*
X01785Y011805D01*
X017938Y011817D01*
X01802Y01185D01*
X01809Y011904D01*
X018144Y011975D01*
X018178Y012056D01*
X018189Y012144D01*
Y012656D01*
X018178Y012744D01*
X018144Y012825D01*
X01809Y012896D01*
X01802Y01295D01*
X017938Y012983D01*
X01785Y012995D01*
X017762Y012983D01*
X01768Y01295D01*
X01761Y012896D01*
X017556Y012825D01*
X017542Y012791D01*
X017492Y012801D01*
Y0139D01*
X017481Y013954D01*
X01745Y014D01*
X017316Y014135D01*
X017323Y014146D01*
X01735Y014247D01*
Y014353D01*
X017323Y014454D01*
X01727Y014546D01*
X017196Y01462D01*
X017104Y014673D01*
X017003Y0147D01*
D02*
G37*
G36*
X021186Y012992D02*
X020514D01*
Y011808D01*
X021186D01*
Y012992D01*
D02*
G37*
G36*
X01985Y012995D02*
X019762Y012983D01*
X01968Y01295D01*
X01961Y012896D01*
X019556Y012825D01*
X019522Y012744D01*
X019511Y012656D01*
Y012144D01*
X019522Y012056D01*
X019556Y011975D01*
X01961Y011904D01*
X01968Y01185D01*
X019762Y011817D01*
X01985Y011805D01*
X019938Y011817D01*
X02002Y01185D01*
X02009Y011904D01*
X020144Y011975D01*
X020178Y012056D01*
X020189Y012144D01*
Y012656D01*
X020178Y012744D01*
X020144Y012825D01*
X02009Y012896D01*
X02002Y01295D01*
X019938Y012983D01*
X01985Y012995D01*
D02*
G37*
G36*
X01885D02*
X018762Y012983D01*
X01868Y01295D01*
X01861Y012896D01*
X018556Y012825D01*
X018522Y012744D01*
X018511Y012656D01*
Y012144D01*
X018522Y012056D01*
X018556Y011975D01*
X01861Y011904D01*
X01868Y01185D01*
X018762Y011817D01*
X01885Y011805D01*
X018938Y011817D01*
X01902Y01185D01*
X01909Y011904D01*
X019144Y011975D01*
X019178Y012056D01*
X019189Y012144D01*
Y012656D01*
X019178Y012744D01*
X019144Y012825D01*
X01909Y012896D01*
X01902Y01295D01*
X018938Y012983D01*
X01885Y012995D01*
D02*
G37*
G36*
X01485D02*
X014762Y012983D01*
X01468Y01295D01*
X01461Y012896D01*
X014556Y012825D01*
X014522Y012744D01*
X014511Y012656D01*
Y012144D01*
X014522Y012056D01*
X014556Y011975D01*
X01461Y011904D01*
X01468Y01185D01*
X014762Y011817D01*
X01485Y011805D01*
X014938Y011817D01*
X01502Y01185D01*
X01509Y011904D01*
X015144Y011975D01*
X015178Y012056D01*
X015189Y012144D01*
Y012656D01*
X015178Y012744D01*
X015144Y012825D01*
X01509Y012896D01*
X01502Y01295D01*
X014938Y012983D01*
X01485Y012995D01*
D02*
G37*
G36*
X01385D02*
X013762Y012983D01*
X01368Y01295D01*
X01361Y012896D01*
X013556Y012825D01*
X013522Y012744D01*
X013511Y012656D01*
Y012144D01*
X013522Y012056D01*
X013556Y011975D01*
X01361Y011904D01*
X01368Y01185D01*
X013762Y011817D01*
X01385Y011805D01*
X013938Y011817D01*
X01402Y01185D01*
X01409Y011904D01*
X014144Y011975D01*
X014178Y012056D01*
X014189Y012144D01*
Y012656D01*
X014178Y012744D01*
X014144Y012825D01*
X01409Y012896D01*
X01402Y01295D01*
X013938Y012983D01*
X01385Y012995D01*
D02*
G37*
G36*
X01285D02*
X012762Y012983D01*
X01268Y01295D01*
X01261Y012896D01*
X012556Y012825D01*
X012522Y012744D01*
X012511Y012656D01*
Y012144D01*
X012522Y012056D01*
X012556Y011975D01*
X01261Y011904D01*
X01268Y01185D01*
X012762Y011817D01*
X01285Y011805D01*
X012938Y011817D01*
X01302Y01185D01*
X01309Y011904D01*
X013144Y011975D01*
X013178Y012056D01*
X013189Y012144D01*
Y012656D01*
X013178Y012744D01*
X013144Y012825D01*
X01309Y012896D01*
X01302Y01295D01*
X012938Y012983D01*
X01285Y012995D01*
D02*
G37*
G36*
X01185D02*
X011762Y012983D01*
X01168Y01295D01*
X01161Y012896D01*
X011556Y012825D01*
X011522Y012744D01*
X011511Y012656D01*
Y012144D01*
X011522Y012056D01*
X011556Y011975D01*
X01161Y011904D01*
X01168Y01185D01*
X011762Y011817D01*
X01185Y011805D01*
X011938Y011817D01*
X01202Y01185D01*
X01209Y011904D01*
X012144Y011975D01*
X012178Y012056D01*
X012189Y012144D01*
Y012656D01*
X012178Y012744D01*
X012144Y012825D01*
X01209Y012896D01*
X01202Y01295D01*
X011938Y012983D01*
X01185Y012995D01*
D02*
G37*
G36*
X01085D02*
X010762Y012983D01*
X01068Y01295D01*
X01061Y012896D01*
X010556Y012825D01*
X010522Y012744D01*
X010511Y012656D01*
Y012144D01*
X010522Y012056D01*
X010556Y011975D01*
X01061Y011904D01*
X01068Y01185D01*
X010762Y011817D01*
X01085Y011805D01*
X010938Y011817D01*
X01102Y01185D01*
X01109Y011904D01*
X011144Y011975D01*
X011178Y012056D01*
X011189Y012144D01*
Y012656D01*
X011178Y012744D01*
X011144Y012825D01*
X01109Y012896D01*
X01102Y01295D01*
X010938Y012983D01*
X01085Y012995D01*
D02*
G37*
G36*
X00985D02*
X009762Y012983D01*
X00968Y01295D01*
X00961Y012896D01*
X009556Y012825D01*
X009522Y012744D01*
X009511Y012656D01*
Y012144D01*
X009522Y012056D01*
X009556Y011975D01*
X00961Y011904D01*
X00968Y01185D01*
X009762Y011817D01*
X00985Y011805D01*
X009938Y011817D01*
X01002Y01185D01*
X01009Y011904D01*
X010144Y011975D01*
X010178Y012056D01*
X010189Y012144D01*
Y012656D01*
X010178Y012744D01*
X010144Y012825D01*
X01009Y012896D01*
X01002Y01295D01*
X009938Y012983D01*
X00985Y012995D01*
D02*
G37*
G36*
X00885D02*
X008762Y012983D01*
X00868Y01295D01*
X00861Y012896D01*
X008556Y012825D01*
X008522Y012744D01*
X008511Y012656D01*
Y012144D01*
X008522Y012056D01*
X008556Y011975D01*
X00861Y011904D01*
X00868Y01185D01*
X008762Y011817D01*
X00885Y011805D01*
X008938Y011817D01*
X00902Y01185D01*
X00909Y011904D01*
X009144Y011975D01*
X009178Y012056D01*
X009189Y012144D01*
Y012656D01*
X009178Y012744D01*
X009144Y012825D01*
X00909Y012896D01*
X00902Y01295D01*
X008938Y012983D01*
X00885Y012995D01*
D02*
G37*
G36*
X00785D02*
X007762Y012983D01*
X00768Y01295D01*
X00761Y012896D01*
X007556Y012825D01*
X007522Y012744D01*
X007511Y012656D01*
Y012144D01*
X007522Y012056D01*
X007556Y011975D01*
X00761Y011904D01*
X00768Y01185D01*
X007762Y011817D01*
X00785Y011805D01*
X007938Y011817D01*
X00802Y01185D01*
X00809Y011904D01*
X008144Y011975D01*
X008178Y012056D01*
X008189Y012144D01*
Y012656D01*
X008178Y012744D01*
X008144Y012825D01*
X00809Y012896D01*
X00802Y01295D01*
X007938Y012983D01*
X00785Y012995D01*
D02*
G37*
G36*
X00685D02*
X006762Y012983D01*
X00668Y01295D01*
X00661Y012896D01*
X006556Y012825D01*
X006522Y012744D01*
X006511Y012656D01*
Y012144D01*
X006522Y012056D01*
X006556Y011975D01*
X00661Y011904D01*
X00668Y01185D01*
X006762Y011817D01*
X00685Y011805D01*
X006938Y011817D01*
X00702Y01185D01*
X00709Y011904D01*
X007144Y011975D01*
X007178Y012056D01*
X007189Y012144D01*
Y012656D01*
X007178Y012744D01*
X007144Y012825D01*
X00709Y012896D01*
X00702Y01295D01*
X006938Y012983D01*
X00685Y012995D01*
D02*
G37*
G36*
X00585D02*
X005762Y012983D01*
X00568Y01295D01*
X00561Y012896D01*
X005556Y012825D01*
X005522Y012744D01*
X005511Y012656D01*
Y012144D01*
X005522Y012056D01*
X005556Y011975D01*
X00561Y011904D01*
X00568Y01185D01*
X005762Y011817D01*
X00585Y011805D01*
X005938Y011817D01*
X00602Y01185D01*
X00609Y011904D01*
X006144Y011975D01*
X006178Y012056D01*
X006189Y012144D01*
Y012656D01*
X006178Y012744D01*
X006144Y012825D01*
X00609Y012896D01*
X00602Y01295D01*
X005938Y012983D01*
X00585Y012995D01*
D02*
G37*
G36*
X00485D02*
X004762Y012983D01*
X00468Y01295D01*
X00461Y012896D01*
X004556Y012825D01*
X004522Y012744D01*
X004511Y012656D01*
Y012144D01*
X004522Y012056D01*
X004556Y011975D01*
X00461Y011904D01*
X00468Y01185D01*
X004762Y011817D01*
X00485Y011805D01*
X004938Y011817D01*
X00502Y01185D01*
X00509Y011904D01*
X005144Y011975D01*
X005178Y012056D01*
X005189Y012144D01*
Y012656D01*
X005178Y012744D01*
X005144Y012825D01*
X00509Y012896D01*
X00502Y01295D01*
X004938Y012983D01*
X00485Y012995D01*
D02*
G37*
G36*
X00385D02*
X003762Y012983D01*
X00368Y01295D01*
X00361Y012896D01*
X003556Y012825D01*
X003522Y012744D01*
X003511Y012656D01*
Y012144D01*
X003522Y012056D01*
X003556Y011975D01*
X00361Y011904D01*
X00368Y01185D01*
X003762Y011817D01*
X00385Y011805D01*
X003938Y011817D01*
X00402Y01185D01*
X00409Y011904D01*
X004144Y011975D01*
X004178Y012056D01*
X004189Y012144D01*
Y012656D01*
X004178Y012744D01*
X004144Y012825D01*
X00409Y012896D01*
X00402Y01295D01*
X003938Y012983D01*
X00385Y012995D01*
D02*
G37*
G36*
X00285D02*
X002762Y012983D01*
X00268Y01295D01*
X00261Y012896D01*
X002556Y012825D01*
X002522Y012744D01*
X002511Y012656D01*
Y012144D01*
X002522Y012056D01*
X002556Y011975D01*
X00261Y011904D01*
X00268Y01185D01*
X002762Y011817D01*
X00285Y011805D01*
X002938Y011817D01*
X00302Y01185D01*
X00309Y011904D01*
X003144Y011975D01*
X003178Y012056D01*
X003189Y012144D01*
Y012656D01*
X003178Y012744D01*
X003144Y012825D01*
X00309Y012896D01*
X00302Y01295D01*
X002938Y012983D01*
X00285Y012995D01*
D02*
G37*
G36*
X011592Y011567D02*
X011508D01*
X011428Y011545D01*
X011356Y011503D01*
X011345Y011492D01*
X010792D01*
Y011537D01*
X009955D01*
Y01125D01*
Y010963D01*
X010249D01*
Y010745D01*
X010191D01*
Y009955D01*
X010784D01*
Y010745D01*
X010734D01*
Y010963D01*
X010792D01*
Y011008D01*
X011345D01*
X011356Y010997D01*
X011428Y010955D01*
X011508Y010933D01*
X011592D01*
X011672Y010955D01*
X011744Y010997D01*
X011803Y011056D01*
X011845Y011128D01*
X011867Y011208D01*
Y011292D01*
X011845Y011372D01*
X011803Y011444D01*
X011744Y011503D01*
X011672Y011545D01*
X011592Y011567D01*
D02*
G37*
G36*
X009855Y011537D02*
X009608D01*
Y0113D01*
X009855D01*
Y011537D01*
D02*
G37*
G36*
Y0112D02*
X009608D01*
Y010963D01*
X009855D01*
Y0112D01*
D02*
G37*
G36*
X012359Y010745D02*
X012112D01*
Y0104D01*
X012359D01*
Y010745D01*
D02*
G37*
G36*
X011572D02*
X011325D01*
Y0104D01*
X011572D01*
Y010745D01*
D02*
G37*
G36*
X012012D02*
X011765D01*
Y0104D01*
X012012D01*
Y010745D01*
D02*
G37*
G36*
X011225D02*
X010978D01*
Y0104D01*
X011225D01*
Y010745D01*
D02*
G37*
G36*
X012359Y0103D02*
X012112D01*
Y009955D01*
X012359D01*
Y0103D01*
D02*
G37*
G36*
X012012D02*
X011765D01*
Y009955D01*
X012012D01*
Y0103D01*
D02*
G37*
G36*
X011572D02*
X011325D01*
Y009955D01*
X011572D01*
Y0103D01*
D02*
G37*
G36*
X011225D02*
X010978D01*
Y009955D01*
X011225D01*
Y0103D01*
D02*
G37*
G36*
X009997Y010745D02*
X009403D01*
Y009955D01*
X009997D01*
Y010745D01*
D02*
G37*
G36*
X008422D02*
X007828D01*
Y009955D01*
X008422D01*
Y010745D01*
D02*
G37*
G36*
X007635D02*
X007041D01*
Y009955D01*
X007635D01*
Y010745D01*
D02*
G37*
G36*
X006847D02*
X006254D01*
Y009955D01*
X006847D01*
Y010745D01*
D02*
G37*
G36*
X009209D02*
X008616D01*
Y009955D01*
X008758D01*
Y009433D01*
X008706Y009403D01*
X008647Y009344D01*
X008605Y009272D01*
X008583Y009192D01*
Y009108D01*
X008605Y009028D01*
X008647Y008956D01*
X008706Y008897D01*
X008778Y008855D01*
X008858Y008833D01*
X008942D01*
X009022Y008855D01*
X009094Y008897D01*
X009153Y008956D01*
X009195Y009028D01*
X009217Y009108D01*
Y009192D01*
X009195Y009272D01*
X009153Y009344D01*
X009094Y009403D01*
X009042Y009433D01*
Y009955D01*
X009209D01*
Y010745D01*
D02*
G37*
G36*
X012359Y004446D02*
X012112D01*
Y004101D01*
X012359D01*
Y004446D01*
D02*
G37*
G36*
X006847D02*
X0066D01*
Y004101D01*
X006847D01*
Y004446D01*
D02*
G37*
G36*
X012012D02*
X011765D01*
Y004101D01*
X012012D01*
Y004446D01*
D02*
G37*
G36*
X0065D02*
X006254D01*
Y004101D01*
X0065D01*
Y004446D01*
D02*
G37*
G36*
X012359Y004001D02*
X012112D01*
Y003656D01*
X012359D01*
Y004001D01*
D02*
G37*
G36*
X012012D02*
X011765D01*
Y003656D01*
X012012D01*
Y004001D01*
D02*
G37*
G36*
X011292Y005267D02*
X011208D01*
X011128Y005245D01*
X011056Y005203D01*
X010997Y005144D01*
X010955Y005072D01*
X010933Y004992D01*
Y004908D01*
X010955Y004828D01*
X010997Y004756D01*
X011056Y004697D01*
X011108Y004667D01*
Y004446D01*
X010978D01*
Y003656D01*
X011572D01*
Y004446D01*
X011392D01*
Y004667D01*
X011444Y004697D01*
X011503Y004756D01*
X011545Y004828D01*
X011567Y004908D01*
Y004992D01*
X011545Y005072D01*
X011503Y005144D01*
X011444Y005203D01*
X011372Y005245D01*
X011292Y005267D01*
D02*
G37*
G36*
X010542Y005967D02*
X010458D01*
X010378Y005945D01*
X010306Y005903D01*
X010247Y005844D01*
X010205Y005772D01*
X010183Y005692D01*
Y005608D01*
X010205Y005528D01*
X010247Y005456D01*
X010306Y005397D01*
X010358Y005367D01*
Y004446D01*
X010191D01*
Y003656D01*
X010784D01*
Y004446D01*
X010642D01*
Y005367D01*
X010694Y005397D01*
X010753Y005456D01*
X010795Y005528D01*
X010817Y005608D01*
Y005692D01*
X010795Y005772D01*
X010753Y005844D01*
X010694Y005903D01*
X010622Y005945D01*
X010542Y005967D01*
D02*
G37*
G36*
X008422Y004446D02*
X007828D01*
Y003656D01*
X008422D01*
Y004446D01*
D02*
G37*
G36*
X007635D02*
X007041D01*
Y003656D01*
X007635D01*
Y004446D01*
D02*
G37*
G36*
X006847Y004001D02*
X0066D01*
Y003656D01*
X006847D01*
Y004001D01*
D02*
G37*
G36*
X0065D02*
X006254D01*
Y003656D01*
X0065D01*
Y004001D01*
D02*
G37*
G36*
X0209Y002988D02*
Y00245D01*
X021189D01*
Y002656D01*
X021178Y002744D01*
X021144Y002825D01*
X02109Y002896D01*
X02102Y00295D01*
X020938Y002983D01*
X0209Y002988D01*
D02*
G37*
G36*
X0149D02*
Y00245D01*
X015189D01*
Y002656D01*
X015178Y002744D01*
X015144Y002825D01*
X01509Y002896D01*
X01502Y00295D01*
X014938Y002983D01*
X0149Y002988D01*
D02*
G37*
G36*
X0208D02*
X020762Y002983D01*
X02068Y00295D01*
X02061Y002896D01*
X020556Y002825D01*
X020522Y002744D01*
X020511Y002656D01*
Y00245D01*
X0208D01*
Y002988D01*
D02*
G37*
G36*
X0148D02*
X014762Y002983D01*
X01468Y00295D01*
X01461Y002896D01*
X014556Y002825D01*
X014522Y002744D01*
X014511Y002656D01*
Y00245D01*
X0148D01*
Y002988D01*
D02*
G37*
G36*
X015189Y00235D02*
X0149D01*
Y001812D01*
X014938Y001817D01*
X01502Y00185D01*
X01509Y001904D01*
X015144Y001975D01*
X015178Y002056D01*
X015189Y002144D01*
Y00235D01*
D02*
G37*
G36*
X021189D02*
X0209D01*
Y001812D01*
X020938Y001817D01*
X02102Y00185D01*
X02109Y001904D01*
X021144Y001975D01*
X021178Y002056D01*
X021189Y002144D01*
Y00235D01*
D02*
G37*
G36*
X0208D02*
X020511D01*
Y002144D01*
X020522Y002056D01*
X020556Y001975D01*
X02061Y001904D01*
X02068Y00185D01*
X020762Y001817D01*
X0208Y001812D01*
Y00235D01*
D02*
G37*
G36*
X0148D02*
X014511D01*
Y002144D01*
X014522Y002056D01*
X014556Y001975D01*
X01461Y001904D01*
X01468Y00185D01*
X014762Y001817D01*
X0148Y001812D01*
Y00235D01*
D02*
G37*
G36*
X01985Y002995D02*
X019762Y002983D01*
X01968Y00295D01*
X01961Y002896D01*
X019556Y002825D01*
X019522Y002744D01*
X019511Y002656D01*
Y002144D01*
X019522Y002056D01*
X019556Y001975D01*
X01961Y001904D01*
X01968Y00185D01*
X019762Y001817D01*
X01985Y001805D01*
X019938Y001817D01*
X02002Y00185D01*
X02009Y001904D01*
X020144Y001975D01*
X020178Y002056D01*
X020189Y002144D01*
Y002656D01*
X020178Y002744D01*
X020144Y002825D01*
X02009Y002896D01*
X02002Y00295D01*
X019938Y002983D01*
X01985Y002995D01*
D02*
G37*
G36*
X01785D02*
X017762Y002983D01*
X01768Y00295D01*
X01761Y002896D01*
X017556Y002825D01*
X017522Y002744D01*
X017511Y002656D01*
Y002144D01*
X017522Y002056D01*
X017556Y001975D01*
X01761Y001904D01*
X01768Y00185D01*
X017762Y001817D01*
X01785Y001805D01*
X017938Y001817D01*
X01802Y00185D01*
X01809Y001904D01*
X018144Y001975D01*
X018178Y002056D01*
X018189Y002144D01*
Y002656D01*
X018178Y002744D01*
X018144Y002825D01*
X01809Y002896D01*
X01802Y00295D01*
X017938Y002983D01*
X01785Y002995D01*
D02*
G37*
G36*
X01685D02*
X016762Y002983D01*
X01668Y00295D01*
X01661Y002896D01*
X016556Y002825D01*
X016522Y002744D01*
X016511Y002656D01*
Y002144D01*
X016522Y002056D01*
X016556Y001975D01*
X01661Y001904D01*
X01668Y00185D01*
X016762Y001817D01*
X01685Y001805D01*
X016938Y001817D01*
X01702Y00185D01*
X01709Y001904D01*
X017144Y001975D01*
X017178Y002056D01*
X017189Y002144D01*
Y002656D01*
X017178Y002744D01*
X017144Y002825D01*
X01709Y002896D01*
X01702Y00295D01*
X016938Y002983D01*
X01685Y002995D01*
D02*
G37*
G36*
X0129Y006642D02*
X0102D01*
X010146Y006631D01*
X0101Y0066D01*
X0096Y0061D01*
X009569Y006054D01*
X009558Y006D01*
Y004446D01*
X009403D01*
Y003656D01*
X009997D01*
Y004446D01*
X009842D01*
Y005941D01*
X010259Y006358D01*
X012841D01*
X013708Y005491D01*
Y002961D01*
X01368Y00295D01*
X01361Y002896D01*
X013556Y002825D01*
X013522Y002744D01*
X013511Y002656D01*
Y002144D01*
X013522Y002056D01*
X013556Y001975D01*
X01361Y001904D01*
X01368Y00185D01*
X013762Y001817D01*
X01385Y001805D01*
X013938Y001817D01*
X01402Y00185D01*
X01409Y001904D01*
X014144Y001975D01*
X014178Y002056D01*
X014189Y002144D01*
Y002656D01*
X014178Y002744D01*
X014144Y002825D01*
X01409Y002896D01*
X01402Y00295D01*
X013992Y002961D01*
Y00555D01*
X013981Y005604D01*
X01395Y00565D01*
X013Y0066D01*
X012954Y006631D01*
X0129Y006642D01*
D02*
G37*
G36*
X009209Y004446D02*
X008616D01*
Y003656D01*
X00877D01*
Y003587D01*
X008781Y003533D01*
X008812Y003487D01*
X0091Y0032D01*
X009146Y003169D01*
X0092Y003158D01*
X012491D01*
X012658Y002991D01*
X012651Y002927D01*
X01261Y002896D01*
X012556Y002825D01*
X012522Y002744D01*
X012511Y002656D01*
Y002144D01*
X012522Y002056D01*
X012556Y001975D01*
X01261Y001904D01*
X01268Y00185D01*
X012762Y001817D01*
X01285Y001805D01*
X012938Y001817D01*
X01302Y00185D01*
X01309Y001904D01*
X013144Y001975D01*
X013178Y002056D01*
X013189Y002144D01*
Y002656D01*
X013178Y002744D01*
X013144Y002825D01*
X01309Y002896D01*
X01302Y00295D01*
X012992Y002961D01*
Y003D01*
X012981Y003054D01*
X01295Y0031D01*
X01265Y0034D01*
X012604Y003431D01*
X01255Y003442D01*
X009259D01*
X009095Y003606D01*
X009116Y003656D01*
X009209D01*
Y004446D01*
D02*
G37*
G36*
X01185Y002995D02*
X011762Y002983D01*
X01168Y00295D01*
X01161Y002896D01*
X011556Y002825D01*
X011522Y002744D01*
X011511Y002656D01*
Y002144D01*
X011522Y002056D01*
X011556Y001975D01*
X01161Y001904D01*
X01168Y00185D01*
X011762Y001817D01*
X01185Y001805D01*
X011938Y001817D01*
X01202Y00185D01*
X01209Y001904D01*
X012144Y001975D01*
X012178Y002056D01*
X012189Y002144D01*
Y002656D01*
X012178Y002744D01*
X012144Y002825D01*
X01209Y002896D01*
X01202Y00295D01*
X011938Y002983D01*
X01185Y002995D01*
D02*
G37*
G36*
X01085D02*
X010762Y002983D01*
X01068Y00295D01*
X01061Y002896D01*
X010556Y002825D01*
X010522Y002744D01*
X010511Y002656D01*
Y002144D01*
X010522Y002056D01*
X010556Y001975D01*
X01061Y001904D01*
X01068Y00185D01*
X010762Y001817D01*
X01085Y001805D01*
X010938Y001817D01*
X01102Y00185D01*
X01109Y001904D01*
X011144Y001975D01*
X011178Y002056D01*
X011189Y002144D01*
Y002656D01*
X011178Y002744D01*
X011144Y002825D01*
X01109Y002896D01*
X01102Y00295D01*
X010938Y002983D01*
X01085Y002995D01*
D02*
G37*
G36*
X00985D02*
X009762Y002983D01*
X00968Y00295D01*
X00961Y002896D01*
X009556Y002825D01*
X009522Y002744D01*
X009511Y002656D01*
Y002144D01*
X009522Y002056D01*
X009556Y001975D01*
X00961Y001904D01*
X00968Y00185D01*
X009762Y001817D01*
X00985Y001805D01*
X009938Y001817D01*
X01002Y00185D01*
X01009Y001904D01*
X010144Y001975D01*
X010178Y002056D01*
X010189Y002144D01*
Y002656D01*
X010178Y002744D01*
X010144Y002825D01*
X01009Y002896D01*
X01002Y00295D01*
X009938Y002983D01*
X00985Y002995D01*
D02*
G37*
G36*
X00885D02*
X008762Y002983D01*
X00868Y00295D01*
X00861Y002896D01*
X008556Y002825D01*
X008522Y002744D01*
X008511Y002656D01*
Y002144D01*
X008522Y002056D01*
X008556Y001975D01*
X00861Y001904D01*
X00868Y00185D01*
X008762Y001817D01*
X00885Y001805D01*
X008938Y001817D01*
X00902Y00185D01*
X00909Y001904D01*
X009144Y001975D01*
X009178Y002056D01*
X009189Y002144D01*
Y002656D01*
X009178Y002744D01*
X009144Y002825D01*
X00909Y002896D01*
X00902Y00295D01*
X008938Y002983D01*
X00885Y002995D01*
D02*
G37*
G36*
X00785D02*
X007762Y002983D01*
X00768Y00295D01*
X00761Y002896D01*
X007556Y002825D01*
X007522Y002744D01*
X007511Y002656D01*
Y002144D01*
X007522Y002056D01*
X007556Y001975D01*
X00761Y001904D01*
X00768Y00185D01*
X007762Y001817D01*
X00785Y001805D01*
X007938Y001817D01*
X00802Y00185D01*
X00809Y001904D01*
X008144Y001975D01*
X008178Y002056D01*
X008189Y002144D01*
Y002656D01*
X008178Y002744D01*
X008144Y002825D01*
X00809Y002896D01*
X00802Y00295D01*
X007938Y002983D01*
X00785Y002995D01*
D02*
G37*
G36*
X00685D02*
X006762Y002983D01*
X00668Y00295D01*
X00661Y002896D01*
X006556Y002825D01*
X006522Y002744D01*
X006511Y002656D01*
Y002144D01*
X006522Y002056D01*
X006556Y001975D01*
X00661Y001904D01*
X00668Y00185D01*
X006762Y001817D01*
X00685Y001805D01*
X006938Y001817D01*
X00702Y00185D01*
X00709Y001904D01*
X007144Y001975D01*
X007178Y002056D01*
X007189Y002144D01*
Y002656D01*
X007178Y002744D01*
X007144Y002825D01*
X00709Y002896D01*
X00702Y00295D01*
X006938Y002983D01*
X00685Y002995D01*
D02*
G37*
G36*
X00585D02*
X005762Y002983D01*
X00568Y00295D01*
X00561Y002896D01*
X005556Y002825D01*
X005522Y002744D01*
X005511Y002656D01*
Y002144D01*
X005522Y002056D01*
X005556Y001975D01*
X00561Y001904D01*
X00568Y00185D01*
X005762Y001817D01*
X00585Y001805D01*
X005938Y001817D01*
X00602Y00185D01*
X00609Y001904D01*
X006144Y001975D01*
X006178Y002056D01*
X006189Y002144D01*
Y002656D01*
X006178Y002744D01*
X006144Y002825D01*
X00609Y002896D01*
X00602Y00295D01*
X005938Y002983D01*
X00585Y002995D01*
D02*
G37*
G36*
X00485D02*
X004762Y002983D01*
X00468Y00295D01*
X00461Y002896D01*
X004556Y002825D01*
X004522Y002744D01*
X004511Y002656D01*
Y002144D01*
X004522Y002056D01*
X004556Y001975D01*
X00461Y001904D01*
X00468Y00185D01*
X004762Y001817D01*
X00485Y001805D01*
X004938Y001817D01*
X00502Y00185D01*
X00509Y001904D01*
X005144Y001975D01*
X005178Y002056D01*
X005189Y002144D01*
Y002656D01*
X005178Y002744D01*
X005144Y002825D01*
X00509Y002896D01*
X00502Y00295D01*
X004938Y002983D01*
X00485Y002995D01*
D02*
G37*
G36*
X00385D02*
X003762Y002983D01*
X00368Y00295D01*
X00361Y002896D01*
X003556Y002825D01*
X003522Y002744D01*
X003511Y002656D01*
Y002144D01*
X003522Y002056D01*
X003556Y001975D01*
X00361Y001904D01*
X00368Y00185D01*
X003762Y001817D01*
X00385Y001805D01*
X003938Y001817D01*
X00402Y00185D01*
X00409Y001904D01*
X004144Y001975D01*
X004178Y002056D01*
X004189Y002144D01*
Y002656D01*
X004178Y002744D01*
X004144Y002825D01*
X00409Y002896D01*
X00402Y00295D01*
X003938Y002983D01*
X00385Y002995D01*
D02*
G37*
G36*
X00285D02*
X002762Y002983D01*
X00268Y00295D01*
X00261Y002896D01*
X002556Y002825D01*
X002522Y002744D01*
X002511Y002656D01*
Y002144D01*
X002522Y002056D01*
X002556Y001975D01*
X00261Y001904D01*
X00268Y00185D01*
X002762Y001817D01*
X00285Y001805D01*
X002938Y001817D01*
X00302Y00185D01*
X00309Y001904D01*
X003144Y001975D01*
X003178Y002056D01*
X003189Y002144D01*
Y002656D01*
X003178Y002744D01*
X003144Y002825D01*
X00309Y002896D01*
X00302Y00295D01*
X002938Y002983D01*
X00285Y002995D01*
D02*
G37*
%LPD*%
D11*
X0089Y00915D02*
Y010337D01*
X008913Y01035D01*
X01255Y0033D02*
X01285Y003D01*
X008913Y003587D02*
X0092Y0033D01*
X01255D01*
X0129Y0065D02*
X01385Y00555D01*
X0102Y0065D02*
X0129D01*
X01385Y0024D02*
Y00555D01*
X0097Y006D02*
X0102Y0065D01*
X01125Y004076D02*
X011275Y004051D01*
X01125Y004076D02*
Y00495D01*
X0097Y004051D02*
Y006D01*
X0105Y004063D02*
Y00565D01*
X010487Y004051D02*
X0105Y004063D01*
X01285Y0024D02*
Y003D01*
X008913Y003587D02*
Y004051D01*
X01735Y00635D02*
Y0139D01*
X01885Y0024D02*
Y00485D01*
X01735Y00635D02*
X01885Y00485D01*
X01695Y0143D02*
X01735Y0139D01*
X0154Y00475D02*
Y01375D01*
X01585Y0024D02*
Y0043D01*
X0154Y00475D02*
X01585Y0043D01*
X0154Y01375D02*
X01595Y0143D01*
D18*
X011275Y01035D02*
X012062D01*
X010491Y010354D02*
Y011246D01*
X010495Y01125D01*
X010487Y01035D02*
X010491Y010354D01*
X010495Y01125D02*
X01155D01*
X01135Y0152D02*
X01805D01*
X0105Y01435D02*
X01135Y0152D01*
X01805D02*
X01895Y0143D01*
D19*
X01595D02*
D03*
X01895D02*
D03*
X01695D02*
D03*
X01795D02*
D03*
D20*
X0095Y01435D02*
D03*
D21*
X0105D02*
D03*
D22*
X02085Y0124D02*
D03*
D23*
X01985D02*
D03*
X01885D02*
D03*
X01785D02*
D03*
X01685D02*
D03*
X01585D02*
D03*
X01485D02*
D03*
X01385D02*
D03*
X01285D02*
D03*
X01185D02*
D03*
X01085D02*
D03*
X00985D02*
D03*
X00885D02*
D03*
X00785D02*
D03*
X00685D02*
D03*
X00585D02*
D03*
X00485D02*
D03*
X00385D02*
D03*
X00285D02*
D03*
X02085Y0024D02*
D03*
X01985D02*
D03*
X01885D02*
D03*
X01785D02*
D03*
X01685D02*
D03*
X01585D02*
D03*
X01485D02*
D03*
X01385D02*
D03*
X01285D02*
D03*
X01185D02*
D03*
X01085D02*
D03*
X00985D02*
D03*
X00885D02*
D03*
X00785D02*
D03*
X00685D02*
D03*
X00585D02*
D03*
X00485D02*
D03*
X00385D02*
D03*
X00285D02*
D03*
D24*
X0089Y00915D02*
D03*
X01125Y00495D02*
D03*
X0105Y00565D02*
D03*
X01155Y01125D02*
D03*
D25*
X012062Y004051D02*
D03*
X011275D02*
D03*
X010487D02*
D03*
X0097D02*
D03*
X008913D02*
D03*
X008125D02*
D03*
X007338D02*
D03*
X00655D02*
D03*
X012062Y01035D02*
D03*
X011275D02*
D03*
X010487D02*
D03*
X0097D02*
D03*
X008913D02*
D03*
X008125D02*
D03*
X007338D02*
D03*
X00655D02*
D03*
D26*
X009905Y01125D02*
D03*
X010495D02*
D03*
M02*
