G04*
G04 #@! TF.GenerationSoftware,Altium Limited,Altium Designer,21.3.2 (30)*
G04*
G04 Layer_Physical_Order=1*
G04 Layer_Color=255*
%FSTAX24Y24*%
%MOIN*%
G70*
G04*
G04 #@! TF.SameCoordinates,CDE3E893-1740-4E77-B8E0-51F932FF10AF*
G04*
G04*
G04 #@! TF.FilePolarity,Positive*
G04*
G01*
G75*
%ADD10C,0.0079*%
%ADD13R,0.0394X0.0591*%
%ADD14R,0.0374X0.0394*%
%ADD23C,0.0276*%
%ADD24R,0.0984X0.0472*%
%ADD25O,0.0984X0.0472*%
%ADD26C,0.0600*%
%ADD27R,0.0598X0.0598*%
%ADD28C,0.0598*%
%ADD29C,0.0433*%
G36*
X053131Y063078D02*
X053209Y063078D01*
X053361Y063047D01*
X053504Y062988D01*
X053633Y062902D01*
X053743Y062792D01*
X053829Y062663D01*
X053888Y06252D01*
X053918Y062368D01*
X053918Y06229D01*
X053918Y06229D01*
X053918Y06229D01*
X053918Y024469D01*
Y024394D01*
X053889Y024247D01*
X053832Y024108D01*
X053749Y023983D01*
X053643Y023877D01*
X053518Y023794D01*
X053379Y023737D01*
X053232Y023707D01*
X014548D01*
Y036698D01*
Y036776D01*
X014579Y036928D01*
X014638Y037072D01*
X014724Y037201D01*
X014834Y037311D01*
X014963Y037397D01*
X015107Y037457D01*
X015259Y037487D01*
X015337Y037487D01*
X015337Y037487D01*
X037383D01*
X03746Y037491D01*
X037612Y037521D01*
X037754Y03758D01*
X037883Y037666D01*
X037992Y037775D01*
X038077Y037903D01*
X038137Y038046D01*
X038167Y038197D01*
X03817Y038274D01*
X03817Y038274D01*
Y06227D01*
Y06235D01*
X038201Y062506D01*
X038262Y062653D01*
X038351Y062785D01*
X038463Y062897D01*
X038595Y062986D01*
X038742Y063046D01*
X038898Y063078D01*
X038978D01*
Y063078D01*
X053131Y063078D01*
D02*
G37*
%LPC*%
G36*
X044688Y057844D02*
X044441D01*
Y057692D01*
X043856D01*
X043844Y057703D01*
X043772Y057745D01*
X0437Y057764D01*
Y05745D01*
Y057136D01*
X043772Y057155D01*
X043844Y057197D01*
X043855Y057207D01*
X044441D01*
Y057054D01*
X044688D01*
Y057449D01*
Y057844D01*
D02*
G37*
G36*
X045475D02*
X045228D01*
Y057692D01*
X045035D01*
Y057844D01*
X044788D01*
Y057449D01*
Y057054D01*
X045035D01*
Y057207D01*
X045228D01*
Y057054D01*
X045475D01*
Y057449D01*
Y057844D01*
D02*
G37*
G36*
X0436Y057764D02*
X043528Y057745D01*
X043456Y057703D01*
X043397Y057644D01*
X043355Y057572D01*
X043336Y0575D01*
X0436D01*
Y057764D01*
D02*
G37*
G36*
X045822Y057844D02*
X045575D01*
Y057499D01*
X045822D01*
Y057844D01*
D02*
G37*
G36*
X0436Y0574D02*
X043336D01*
X043355Y057328D01*
X043397Y057256D01*
X043456Y057197D01*
X043528Y057155D01*
X0436Y057136D01*
Y0574D01*
D02*
G37*
G36*
X050546Y057844D02*
X049953D01*
Y057054D01*
X050546D01*
Y057844D01*
D02*
G37*
G36*
X049759D02*
X049165D01*
Y057054D01*
X049759D01*
Y057844D01*
D02*
G37*
G36*
X048972D02*
X048378D01*
Y057054D01*
X048972D01*
Y057844D01*
D02*
G37*
G36*
X047397D02*
X046803D01*
Y057054D01*
X047397D01*
Y057844D01*
D02*
G37*
G36*
X045822Y057399D02*
X045575D01*
Y057054D01*
X045822D01*
Y057399D01*
D02*
G37*
G36*
X048184Y057844D02*
X047591D01*
Y057054D01*
X047758D01*
Y056233D01*
X047706Y056203D01*
X047647Y056144D01*
X047605Y056072D01*
X047583Y055992D01*
Y055908D01*
X047605Y055828D01*
X047647Y055756D01*
X047706Y055697D01*
X047778Y055655D01*
X047858Y055633D01*
X047942D01*
X048022Y055655D01*
X048094Y055697D01*
X048153Y055756D01*
X048195Y055828D01*
X048217Y055908D01*
Y055992D01*
X048195Y056072D01*
X048153Y056144D01*
X048094Y056203D01*
X048042Y056233D01*
Y057054D01*
X048184D01*
Y057844D01*
D02*
G37*
G36*
X046609D02*
X046016D01*
Y057054D01*
X04607D01*
Y055913D01*
X045095Y054938D01*
X043587D01*
Y054992D01*
X043013D01*
Y05494D01*
X040799D01*
Y055099D01*
X040001D01*
Y054301D01*
X040799D01*
Y054455D01*
X043013D01*
Y054347D01*
X042155D01*
X042062Y054329D01*
X041983Y054276D01*
X04165Y053942D01*
X040721D01*
X040719Y053945D01*
X040645Y054019D01*
X040554Y054072D01*
X040453Y054099D01*
X04045D01*
Y0537D01*
X0404D01*
D01*
X04045D01*
Y053301D01*
X040453D01*
X040554Y053328D01*
X040645Y053381D01*
X040719Y053455D01*
X040721Y053458D01*
X04175D01*
X041843Y053476D01*
X041921Y053529D01*
X042255Y053862D01*
X043013D01*
Y053808D01*
X043058D01*
Y05335D01*
X043076Y053257D01*
X043129Y053179D01*
X044495Y051812D01*
Y051545D01*
X044441D01*
Y0512D01*
X044738D01*
X045035D01*
Y051545D01*
X04498D01*
Y051912D01*
X044962Y052005D01*
X044909Y052084D01*
X043542Y05345D01*
Y053808D01*
X043587D01*
Y053862D01*
X048145D01*
X050008Y052D01*
Y051545D01*
X049953D01*
Y0512D01*
X05025D01*
X050546D01*
Y051545D01*
X050492D01*
Y0521D01*
X050474Y052193D01*
X050421Y052271D01*
X048417Y054276D01*
X048338Y054329D01*
X048245Y054347D01*
X043587D01*
Y054453D01*
X045195D01*
X045288Y054471D01*
X045367Y054524D01*
X046484Y055641D01*
X046537Y05572D01*
X046555Y055813D01*
Y057054D01*
X046609D01*
Y057844D01*
D02*
G37*
G36*
X04035Y054099D02*
X040347D01*
X040246Y054072D01*
X040155Y054019D01*
X040081Y053945D01*
X040028Y053854D01*
X040001Y053753D01*
Y05375D01*
X04035D01*
Y054099D01*
D02*
G37*
G36*
Y05365D02*
X040001D01*
Y053647D01*
X040028Y053546D01*
X040081Y053455D01*
X040155Y053381D01*
X040246Y053328D01*
X040347Y053301D01*
X04035D01*
Y05365D01*
D02*
G37*
G36*
X050546Y0511D02*
X0503D01*
Y050755D01*
X050546D01*
Y0511D01*
D02*
G37*
G36*
X0502D02*
X049953D01*
Y050755D01*
X0502D01*
Y0511D01*
D02*
G37*
G36*
X049759Y051545D02*
X049165D01*
Y050755D01*
X049759D01*
Y051545D01*
D02*
G37*
G36*
X048972D02*
X048378D01*
Y050755D01*
X048972D01*
Y051545D01*
D02*
G37*
G36*
X045035Y0511D02*
X044788D01*
Y050755D01*
X045035D01*
Y0511D01*
D02*
G37*
G36*
X044688D02*
X044441D01*
Y050755D01*
X044688D01*
Y0511D01*
D02*
G37*
G36*
X046609Y051545D02*
X046016D01*
Y050755D01*
X046158D01*
Y050383D01*
X046106Y050353D01*
X046047Y050294D01*
X046005Y050222D01*
X045983Y050142D01*
Y050058D01*
X046005Y049978D01*
X046047Y049906D01*
X046106Y049847D01*
X046178Y049805D01*
X046258Y049783D01*
X046342D01*
X046422Y049805D01*
X046494Y049847D01*
X046553Y049906D01*
X046595Y049978D01*
X046617Y050058D01*
Y050142D01*
X046595Y050222D01*
X046553Y050294D01*
X046494Y050353D01*
X046442Y050383D01*
Y050755D01*
X046609D01*
Y051545D01*
D02*
G37*
G36*
X051706Y046139D02*
X051194D01*
X051106Y046128D01*
X051025Y046094D01*
X050954Y04604D01*
X0509Y04597D01*
X050867Y045888D01*
X050855Y0458D01*
X050867Y045712D01*
X0509Y04563D01*
X050954Y04556D01*
X051025Y045506D01*
X051106Y045472D01*
X051194Y045461D01*
X051706D01*
X051794Y045472D01*
X051875Y045506D01*
X051946Y04556D01*
X052Y04563D01*
X052033Y045712D01*
X052045Y0458D01*
X052033Y045888D01*
X052Y04597D01*
X051946Y04604D01*
X051875Y046094D01*
X051794Y046128D01*
X051706Y046139D01*
D02*
G37*
G36*
X041706D02*
X041194D01*
X041106Y046128D01*
X041025Y046094D01*
X040954Y04604D01*
X0409Y04597D01*
X040867Y045888D01*
X040855Y0458D01*
X040867Y045712D01*
X0409Y04563D01*
X040954Y04556D01*
X041025Y045506D01*
X041106Y045472D01*
X041194Y045461D01*
X041706D01*
X041794Y045472D01*
X041875Y045506D01*
X041946Y04556D01*
X042Y04563D01*
X042033Y045712D01*
X042045Y0458D01*
X042033Y045888D01*
X042Y04597D01*
X041946Y04604D01*
X041875Y046094D01*
X041794Y046128D01*
X041706Y046139D01*
D02*
G37*
G36*
X051706Y045139D02*
X051194D01*
X051106Y045128D01*
X051025Y045094D01*
X050954Y04504D01*
X0509Y04497D01*
X050867Y044888D01*
X050855Y0448D01*
X050867Y044712D01*
X0509Y04463D01*
X050954Y04456D01*
X051025Y044506D01*
X051106Y044472D01*
X051194Y044461D01*
X051706D01*
X051794Y044472D01*
X051875Y044506D01*
X051946Y04456D01*
X052Y04463D01*
X052033Y044712D01*
X052045Y0448D01*
X052033Y044888D01*
X052Y04497D01*
X051946Y04504D01*
X051875Y045094D01*
X051794Y045128D01*
X051706Y045139D01*
D02*
G37*
G36*
X041706D02*
X041194D01*
X041106Y045128D01*
X041025Y045094D01*
X040954Y04504D01*
X0409Y04497D01*
X040867Y044888D01*
X040855Y0448D01*
X040867Y044712D01*
X0409Y04463D01*
X040954Y04456D01*
X041025Y044506D01*
X041106Y044472D01*
X041194Y044461D01*
X041706D01*
X041794Y044472D01*
X041875Y044506D01*
X041946Y04456D01*
X042Y04463D01*
X042033Y044712D01*
X042045Y0448D01*
X042033Y044888D01*
X042Y04497D01*
X041946Y04504D01*
X041875Y045094D01*
X041794Y045128D01*
X041706Y045139D01*
D02*
G37*
G36*
X051706Y044139D02*
X051194D01*
X051106Y044128D01*
X051025Y044094D01*
X050954Y04404D01*
X0509Y04397D01*
X050867Y043888D01*
X050855Y0438D01*
X050867Y043712D01*
X0509Y04363D01*
X050954Y04356D01*
X051025Y043506D01*
X051106Y043472D01*
X051194Y043461D01*
X051706D01*
X051794Y043472D01*
X051875Y043506D01*
X051946Y04356D01*
X052Y04363D01*
X052033Y043712D01*
X052045Y0438D01*
X052033Y043888D01*
X052Y04397D01*
X051946Y04404D01*
X051875Y044094D01*
X051794Y044128D01*
X051706Y044139D01*
D02*
G37*
G36*
X041706D02*
X041194D01*
X041106Y044128D01*
X041025Y044094D01*
X040954Y04404D01*
X0409Y04397D01*
X040867Y043888D01*
X040855Y0438D01*
X040867Y043712D01*
X0409Y04363D01*
X040954Y04356D01*
X041025Y043506D01*
X041106Y043472D01*
X041194Y043461D01*
X041706D01*
X041794Y043472D01*
X041875Y043506D01*
X041946Y04356D01*
X042Y04363D01*
X042033Y043712D01*
X042045Y0438D01*
X042033Y043888D01*
X042Y04397D01*
X041946Y04404D01*
X041875Y044094D01*
X041794Y044128D01*
X041706Y044139D01*
D02*
G37*
G36*
X051706Y043139D02*
X051194D01*
X051106Y043128D01*
X051025Y043094D01*
X050954Y04304D01*
X0509Y04297D01*
X050867Y042888D01*
X050855Y0428D01*
X050867Y042712D01*
X0509Y04263D01*
X050954Y04256D01*
X051025Y042506D01*
X051106Y042472D01*
X051194Y042461D01*
X051706D01*
X051794Y042472D01*
X051875Y042506D01*
X051946Y04256D01*
X052Y04263D01*
X052033Y042712D01*
X052045Y0428D01*
X052033Y042888D01*
X052Y04297D01*
X051946Y04304D01*
X051875Y043094D01*
X051794Y043128D01*
X051706Y043139D01*
D02*
G37*
G36*
X041706D02*
X041194D01*
X041106Y043128D01*
X041025Y043094D01*
X040954Y04304D01*
X0409Y04297D01*
X040867Y042888D01*
X040855Y0428D01*
X040867Y042712D01*
X0409Y04263D01*
X040954Y04256D01*
X041025Y042506D01*
X041106Y042472D01*
X041194Y042461D01*
X041706D01*
X041794Y042472D01*
X041875Y042506D01*
X041946Y04256D01*
X042Y04263D01*
X042033Y042712D01*
X042045Y0428D01*
X042033Y042888D01*
X042Y04297D01*
X041946Y04304D01*
X041875Y043094D01*
X041794Y043128D01*
X041706Y043139D01*
D02*
G37*
G36*
X051706Y042139D02*
X051194D01*
X051106Y042128D01*
X051025Y042094D01*
X050954Y04204D01*
X0509Y04197D01*
X050867Y041888D01*
X050855Y0418D01*
X050867Y041712D01*
X0509Y04163D01*
X050954Y04156D01*
X051025Y041506D01*
X051106Y041472D01*
X051194Y041461D01*
X051706D01*
X051794Y041472D01*
X051875Y041506D01*
X051946Y04156D01*
X052Y04163D01*
X052033Y041712D01*
X052045Y0418D01*
X052033Y041888D01*
X052Y04197D01*
X051946Y04204D01*
X051875Y042094D01*
X051794Y042128D01*
X051706Y042139D01*
D02*
G37*
G36*
X041706D02*
X041194D01*
X041106Y042128D01*
X041025Y042094D01*
X040954Y04204D01*
X0409Y04197D01*
X040867Y041888D01*
X040855Y0418D01*
X040867Y041712D01*
X0409Y04163D01*
X040954Y04156D01*
X041025Y041506D01*
X041106Y041472D01*
X041194Y041461D01*
X041706D01*
X041794Y041472D01*
X041875Y041506D01*
X041946Y04156D01*
X042Y04163D01*
X042033Y041712D01*
X042045Y0418D01*
X042033Y041888D01*
X042Y04197D01*
X041946Y04204D01*
X041875Y042094D01*
X041794Y042128D01*
X041706Y042139D01*
D02*
G37*
G36*
X051706Y041139D02*
X051194D01*
X051106Y041128D01*
X051025Y041094D01*
X050954Y04104D01*
X0509Y04097D01*
X050867Y040888D01*
X050855Y0408D01*
X050867Y040712D01*
X0509Y04063D01*
X050954Y04056D01*
X051025Y040506D01*
X051106Y040472D01*
X051194Y040461D01*
X051706D01*
X051794Y040472D01*
X051875Y040506D01*
X051946Y04056D01*
X052Y04063D01*
X052033Y040712D01*
X052045Y0408D01*
X052033Y040888D01*
X052Y04097D01*
X051946Y04104D01*
X051875Y041094D01*
X051794Y041128D01*
X051706Y041139D01*
D02*
G37*
G36*
X041706D02*
X041194D01*
X041106Y041128D01*
X041025Y041094D01*
X040954Y04104D01*
X0409Y04097D01*
X040867Y040888D01*
X040855Y0408D01*
X040867Y040712D01*
X0409Y04063D01*
X040954Y04056D01*
X041025Y040506D01*
X041106Y040472D01*
X041194Y040461D01*
X041706D01*
X041794Y040472D01*
X041875Y040506D01*
X041946Y04056D01*
X042Y04063D01*
X042033Y040712D01*
X042045Y0408D01*
X042033Y040888D01*
X042Y04097D01*
X041946Y04104D01*
X041875Y041094D01*
X041794Y041128D01*
X041706Y041139D01*
D02*
G37*
G36*
X051706Y040139D02*
X051194D01*
X051106Y040128D01*
X051025Y040094D01*
X050954Y04004D01*
X0509Y03997D01*
X050867Y039888D01*
X050855Y0398D01*
X050867Y039712D01*
X0509Y03963D01*
X050954Y03956D01*
X051025Y039506D01*
X051106Y039472D01*
X051194Y039461D01*
X051706D01*
X051794Y039472D01*
X051875Y039506D01*
X051946Y03956D01*
X052Y03963D01*
X052033Y039712D01*
X052045Y0398D01*
X052033Y039888D01*
X052Y03997D01*
X051946Y04004D01*
X051875Y040094D01*
X051794Y040128D01*
X051706Y040139D01*
D02*
G37*
G36*
X041706D02*
X041194D01*
X041106Y040128D01*
X041025Y040094D01*
X040954Y04004D01*
X0409Y03997D01*
X040867Y039888D01*
X040855Y0398D01*
X040867Y039712D01*
X0409Y03963D01*
X040954Y03956D01*
X041025Y039506D01*
X041106Y039472D01*
X041194Y039461D01*
X041706D01*
X041794Y039472D01*
X041875Y039506D01*
X041946Y03956D01*
X042Y03963D01*
X042033Y039712D01*
X042045Y0398D01*
X042033Y039888D01*
X042Y03997D01*
X041946Y04004D01*
X041875Y040094D01*
X041794Y040128D01*
X041706Y040139D01*
D02*
G37*
G36*
X051706Y039139D02*
X051194D01*
X051106Y039128D01*
X051025Y039094D01*
X050954Y03904D01*
X0509Y03897D01*
X050867Y038888D01*
X050855Y0388D01*
X050867Y038712D01*
X0509Y03863D01*
X050954Y03856D01*
X051025Y038506D01*
X051106Y038472D01*
X051194Y038461D01*
X051706D01*
X051794Y038472D01*
X051875Y038506D01*
X051946Y03856D01*
X052Y03863D01*
X052033Y038712D01*
X052045Y0388D01*
X052033Y038888D01*
X052Y03897D01*
X051946Y03904D01*
X051875Y039094D01*
X051794Y039128D01*
X051706Y039139D01*
D02*
G37*
G36*
X041706D02*
X041194D01*
X041106Y039128D01*
X041025Y039094D01*
X040954Y03904D01*
X0409Y03897D01*
X040867Y038888D01*
X040855Y0388D01*
X040867Y038712D01*
X0409Y03863D01*
X040954Y03856D01*
X041025Y038506D01*
X041106Y038472D01*
X041194Y038461D01*
X041706D01*
X041794Y038472D01*
X041875Y038506D01*
X041946Y03856D01*
X042Y03863D01*
X042033Y038712D01*
X042045Y0388D01*
X042033Y038888D01*
X042Y03897D01*
X041946Y03904D01*
X041875Y039094D01*
X041794Y039128D01*
X041706Y039139D01*
D02*
G37*
G36*
X051706Y038139D02*
X051194D01*
X051106Y038128D01*
X051025Y038094D01*
X050954Y03804D01*
X0509Y03797D01*
X050867Y037888D01*
X050855Y0378D01*
X050867Y037712D01*
X0509Y03763D01*
X050954Y03756D01*
X051025Y037506D01*
X051106Y037472D01*
X051194Y037461D01*
X051706D01*
X051794Y037472D01*
X051875Y037506D01*
X051946Y03756D01*
X052Y03763D01*
X052033Y037712D01*
X052045Y0378D01*
X052033Y037888D01*
X052Y03797D01*
X051946Y03804D01*
X051875Y038094D01*
X051794Y038128D01*
X051706Y038139D01*
D02*
G37*
G36*
X041706D02*
X041194D01*
X041106Y038128D01*
X041025Y038094D01*
X040954Y03804D01*
X0409Y03797D01*
X040867Y037888D01*
X040855Y0378D01*
X040867Y037712D01*
X0409Y03763D01*
X040954Y03756D01*
X041025Y037506D01*
X041106Y037472D01*
X041194Y037461D01*
X041706D01*
X041794Y037472D01*
X041875Y037506D01*
X041946Y03756D01*
X042Y03763D01*
X042033Y037712D01*
X042045Y0378D01*
X042033Y037888D01*
X042Y03797D01*
X041946Y03804D01*
X041875Y038094D01*
X041794Y038128D01*
X041706Y038139D01*
D02*
G37*
G36*
X045822Y051545D02*
X045228D01*
Y050755D01*
X045383D01*
Y037884D01*
X044441Y036942D01*
X042011D01*
X042Y03697D01*
X041946Y03704D01*
X041875Y037094D01*
X041794Y037128D01*
X041706Y037139D01*
X041194D01*
X041106Y037128D01*
X041025Y037094D01*
X040954Y03704D01*
X0409Y03697D01*
X040867Y036888D01*
X040855Y0368D01*
X040867Y036712D01*
X0409Y03663D01*
X040954Y03656D01*
X041025Y036506D01*
X041106Y036472D01*
X041194Y036461D01*
X041706D01*
X041794Y036472D01*
X041875Y036506D01*
X041946Y03656D01*
X042Y03663D01*
X042011Y036658D01*
X0445D01*
X044554Y036669D01*
X0446Y0367D01*
X045626Y037725D01*
X045656Y037771D01*
X045667Y037825D01*
Y050755D01*
X045822D01*
Y051545D01*
D02*
G37*
G36*
X051706Y037139D02*
X051194D01*
X051106Y037128D01*
X051025Y037094D01*
X050954Y03704D01*
X0509Y03697D01*
X050867Y036888D01*
X050855Y0368D01*
X050867Y036712D01*
X0509Y03663D01*
X050954Y03656D01*
X051025Y036506D01*
X051106Y036472D01*
X051194Y036461D01*
X051706D01*
X051794Y036472D01*
X051875Y036506D01*
X051946Y03656D01*
X052Y03663D01*
X052033Y036712D01*
X052045Y0368D01*
X052033Y036888D01*
X052Y03697D01*
X051946Y03704D01*
X051875Y037094D01*
X051794Y037128D01*
X051706Y037139D01*
D02*
G37*
G36*
X048184Y051545D02*
X047591D01*
Y050755D01*
X047745D01*
Y036076D01*
X047706Y036053D01*
X047647Y035994D01*
X047605Y035922D01*
X047583Y035842D01*
Y035758D01*
X047605Y035678D01*
X047647Y035606D01*
X047706Y035547D01*
X047778Y035505D01*
X047858Y035483D01*
X047942D01*
X048022Y035505D01*
X048094Y035547D01*
X048153Y035606D01*
X048195Y035678D01*
X048217Y035758D01*
Y035842D01*
X048195Y035922D01*
X048153Y035994D01*
X048094Y036053D01*
X048029Y036091D01*
Y050755D01*
X048184D01*
Y051545D01*
D02*
G37*
G36*
X051706Y036139D02*
X051194D01*
X051106Y036128D01*
X051025Y036094D01*
X050954Y03604D01*
X0509Y03597D01*
X050867Y035888D01*
X050855Y0358D01*
X050867Y035712D01*
X0509Y03563D01*
X050954Y03556D01*
X051025Y035506D01*
X051106Y035472D01*
X051194Y035461D01*
X051706D01*
X051794Y035472D01*
X051875Y035506D01*
X051946Y03556D01*
X052Y03563D01*
X052033Y035712D01*
X052045Y0358D01*
X052033Y035888D01*
X052Y03597D01*
X051946Y03604D01*
X051875Y036094D01*
X051794Y036128D01*
X051706Y036139D01*
D02*
G37*
G36*
X041706D02*
X041194D01*
X041106Y036128D01*
X041025Y036094D01*
X040954Y03604D01*
X0409Y03597D01*
X040867Y035888D01*
X040855Y0358D01*
X040867Y035712D01*
X0409Y03563D01*
X040954Y03556D01*
X041025Y035506D01*
X041106Y035472D01*
X041194Y035461D01*
X041706D01*
X041794Y035472D01*
X041875Y035506D01*
X041946Y03556D01*
X042Y03563D01*
X042033Y035712D01*
X042045Y0358D01*
X042033Y035888D01*
X042Y03597D01*
X041946Y03604D01*
X041875Y036094D01*
X041794Y036128D01*
X041706Y036139D01*
D02*
G37*
G36*
X047397Y051545D02*
X046803D01*
Y050755D01*
X046958D01*
Y038059D01*
X043841Y034942D01*
X042011D01*
X042Y03497D01*
X041946Y03504D01*
X041875Y035094D01*
X041794Y035128D01*
X041706Y035139D01*
X041194D01*
X041106Y035128D01*
X041025Y035094D01*
X040954Y03504D01*
X0409Y03497D01*
X040867Y034888D01*
X040855Y0348D01*
X040867Y034712D01*
X0409Y03463D01*
X040954Y03456D01*
X041025Y034506D01*
X041106Y034472D01*
X041194Y034461D01*
X041706D01*
X041794Y034472D01*
X041875Y034506D01*
X041946Y03456D01*
X042Y03463D01*
X042011Y034658D01*
X0439D01*
X043954Y034669D01*
X044Y0347D01*
X0472Y0379D01*
X047231Y037946D01*
X047242Y038D01*
Y050755D01*
X047397D01*
Y051545D01*
D02*
G37*
G36*
X051706Y035139D02*
X051194D01*
X051106Y035128D01*
X051025Y035094D01*
X050954Y03504D01*
X0509Y03497D01*
X050867Y034888D01*
X050855Y0348D01*
X050867Y034712D01*
X0509Y03463D01*
X050954Y03456D01*
X051025Y034506D01*
X051106Y034472D01*
X051194Y034461D01*
X051706D01*
X051794Y034472D01*
X051875Y034506D01*
X051946Y03456D01*
X052Y03463D01*
X052033Y034712D01*
X052045Y0348D01*
X052033Y034888D01*
X052Y03497D01*
X051946Y03504D01*
X051875Y035094D01*
X051794Y035128D01*
X051706Y035139D01*
D02*
G37*
G36*
X041706Y034139D02*
X0415D01*
Y03385D01*
X042038D01*
X042033Y033888D01*
X042Y03397D01*
X041946Y03404D01*
X041875Y034094D01*
X041794Y034128D01*
X041706Y034139D01*
D02*
G37*
G36*
X0414D02*
X041194D01*
X041106Y034128D01*
X041025Y034094D01*
X040954Y03404D01*
X0409Y03397D01*
X040867Y033888D01*
X040862Y03385D01*
X0414D01*
Y034139D01*
D02*
G37*
G36*
X051706D02*
X051194D01*
X051106Y034128D01*
X051025Y034094D01*
X050954Y03404D01*
X0509Y03397D01*
X050867Y033888D01*
X050855Y0338D01*
X050867Y033712D01*
X0509Y03363D01*
X050954Y03356D01*
X051025Y033506D01*
X051106Y033472D01*
X051194Y033461D01*
X051706D01*
X051794Y033472D01*
X051875Y033506D01*
X051946Y03356D01*
X052Y03363D01*
X052033Y033712D01*
X052045Y0338D01*
X052033Y033888D01*
X052Y03397D01*
X051946Y03404D01*
X051875Y034094D01*
X051794Y034128D01*
X051706Y034139D01*
D02*
G37*
G36*
X042038Y03375D02*
X0415D01*
Y033461D01*
X041706D01*
X041794Y033472D01*
X041875Y033506D01*
X041946Y03356D01*
X042Y03363D01*
X042033Y033712D01*
X042038Y03375D01*
D02*
G37*
G36*
X0414D02*
X040862D01*
X040867Y033712D01*
X0409Y03363D01*
X040954Y03356D01*
X041025Y033506D01*
X041106Y033472D01*
X041194Y033461D01*
X0414D01*
Y03375D01*
D02*
G37*
G36*
X051706Y033139D02*
X051194D01*
X051106Y033128D01*
X051025Y033094D01*
X050954Y03304D01*
X0509Y03297D01*
X050867Y032888D01*
X050855Y0328D01*
X050867Y032712D01*
X0509Y03263D01*
X050954Y03256D01*
X051025Y032506D01*
X051106Y032472D01*
X051194Y032461D01*
X051706D01*
X051794Y032472D01*
X051875Y032506D01*
X051946Y03256D01*
X052Y03263D01*
X052033Y032712D01*
X052045Y0328D01*
X052033Y032888D01*
X052Y03297D01*
X051946Y03304D01*
X051875Y033094D01*
X051794Y033128D01*
X051706Y033139D01*
D02*
G37*
G36*
X041706D02*
X041194D01*
X041106Y033128D01*
X041025Y033094D01*
X040954Y03304D01*
X0409Y03297D01*
X040889Y032942D01*
X0392D01*
X039146Y032931D01*
X0391Y0329D01*
X038141Y031942D01*
X025826D01*
X025823Y031954D01*
X02577Y032046D01*
X025696Y03212D01*
X025604Y032173D01*
X025503Y0322D01*
X025397D01*
X025296Y032173D01*
X025204Y03212D01*
X02513Y032046D01*
X025077Y031954D01*
X02505Y031853D01*
Y031747D01*
X025077Y031646D01*
X02513Y031554D01*
X025204Y03148D01*
X025296Y031427D01*
X025397Y0314D01*
X025503D01*
X025604Y031427D01*
X025696Y03148D01*
X02577Y031554D01*
X025823Y031646D01*
X025826Y031658D01*
X0382D01*
X038254Y031669D01*
X0383Y0317D01*
X039259Y032658D01*
X040889D01*
X0409Y03263D01*
X040954Y03256D01*
X041025Y032506D01*
X041106Y032472D01*
X041194Y032461D01*
X041706D01*
X041794Y032472D01*
X041875Y032506D01*
X041946Y03256D01*
X042Y03263D01*
X042033Y032712D01*
X042045Y0328D01*
X042033Y032888D01*
X042Y03297D01*
X041946Y03304D01*
X041875Y033094D01*
X041794Y033128D01*
X041706Y033139D01*
D02*
G37*
G36*
X051706Y032139D02*
X051194D01*
X051106Y032128D01*
X051025Y032094D01*
X050954Y03204D01*
X0509Y03197D01*
X050867Y031888D01*
X050855Y0318D01*
X050867Y031712D01*
X0509Y03163D01*
X050954Y03156D01*
X051025Y031506D01*
X051106Y031472D01*
X051194Y031461D01*
X051706D01*
X051794Y031472D01*
X051875Y031506D01*
X051946Y03156D01*
X052Y03163D01*
X052033Y031712D01*
X052045Y0318D01*
X052033Y031888D01*
X052Y03197D01*
X051946Y03204D01*
X051875Y032094D01*
X051794Y032128D01*
X051706Y032139D01*
D02*
G37*
G36*
X041706D02*
X041194D01*
X041106Y032128D01*
X041025Y032094D01*
X040954Y03204D01*
X0409Y03197D01*
X040867Y031888D01*
X040855Y0318D01*
X040867Y031712D01*
X0409Y03163D01*
X040954Y03156D01*
X041025Y031506D01*
X041106Y031472D01*
X041194Y031461D01*
X041706D01*
X041794Y031472D01*
X041875Y031506D01*
X041946Y03156D01*
X042Y03163D01*
X042033Y031712D01*
X042045Y0318D01*
X042033Y031888D01*
X042Y03197D01*
X041946Y03204D01*
X041875Y032094D01*
X041794Y032128D01*
X041706Y032139D01*
D02*
G37*
G36*
X051706Y031139D02*
X051194D01*
X051106Y031128D01*
X051025Y031094D01*
X050954Y03104D01*
X0509Y03097D01*
X050867Y030888D01*
X050855Y0308D01*
X050867Y030712D01*
X0509Y03063D01*
X050954Y03056D01*
X051025Y030506D01*
X051106Y030472D01*
X051194Y030461D01*
X051706D01*
X051794Y030472D01*
X051875Y030506D01*
X051946Y03056D01*
X052Y03063D01*
X052033Y030712D01*
X052045Y0308D01*
X052033Y030888D01*
X052Y03097D01*
X051946Y03104D01*
X051875Y031094D01*
X051794Y031128D01*
X051706Y031139D01*
D02*
G37*
G36*
X041706D02*
X041194D01*
X041106Y031128D01*
X041025Y031094D01*
X040954Y03104D01*
X0409Y03097D01*
X040867Y030888D01*
X040855Y0308D01*
X040867Y030712D01*
X0409Y03063D01*
X040954Y03056D01*
X041025Y030506D01*
X041106Y030472D01*
X041194Y030461D01*
X041706D01*
X041794Y030472D01*
X041875Y030506D01*
X041946Y03056D01*
X042Y03063D01*
X042033Y030712D01*
X042045Y0308D01*
X042033Y030888D01*
X042Y03097D01*
X041946Y03104D01*
X041875Y031094D01*
X041794Y031128D01*
X041706Y031139D01*
D02*
G37*
G36*
X0254Y0302D02*
X025397D01*
X025296Y030173D01*
X025204Y03012D01*
X02513Y030046D01*
X025077Y029954D01*
X02505Y029853D01*
Y02985D01*
X0254D01*
Y0302D01*
D02*
G37*
G36*
X051706Y030139D02*
X051194D01*
X051106Y030128D01*
X051025Y030094D01*
X050954Y03004D01*
X0509Y02997D01*
X050867Y029888D01*
X050855Y0298D01*
X050867Y029712D01*
X0509Y02963D01*
X050954Y02956D01*
X051025Y029506D01*
X051106Y029472D01*
X051194Y029461D01*
X051706D01*
X051794Y029472D01*
X051875Y029506D01*
X051946Y02956D01*
X052Y02963D01*
X052033Y029712D01*
X052045Y0298D01*
X052033Y029888D01*
X052Y02997D01*
X051946Y03004D01*
X051875Y030094D01*
X051794Y030128D01*
X051706Y030139D01*
D02*
G37*
G36*
X025503Y0312D02*
X025397D01*
X025296Y031173D01*
X025204Y03112D01*
X02513Y031046D01*
X025077Y030954D01*
X02505Y030853D01*
Y030747D01*
X025077Y030646D01*
X02513Y030554D01*
X025204Y03048D01*
X025296Y030427D01*
X025397Y0304D01*
X025503D01*
X025604Y030427D01*
X025696Y03048D01*
X02577Y030554D01*
X025823Y030646D01*
X025826Y030658D01*
X038091D01*
X03905Y0297D01*
X039096Y029669D01*
X03915Y029658D01*
X040889D01*
X0409Y02963D01*
X040954Y02956D01*
X041025Y029506D01*
X041106Y029472D01*
X041194Y029461D01*
X041706D01*
X041794Y029472D01*
X041875Y029506D01*
X041946Y02956D01*
X042Y02963D01*
X042033Y029712D01*
X042045Y0298D01*
X042033Y029888D01*
X042Y02997D01*
X041946Y03004D01*
X041875Y030094D01*
X041794Y030128D01*
X041706Y030139D01*
X041194D01*
X041106Y030128D01*
X041025Y030094D01*
X040954Y03004D01*
X0409Y02997D01*
X040889Y029942D01*
X039209D01*
X03825Y0309D01*
X038204Y030931D01*
X03815Y030942D01*
X025826D01*
X025823Y030954D01*
X02577Y031046D01*
X025696Y03112D01*
X025604Y031173D01*
X025503Y0312D01*
D02*
G37*
G36*
X0254Y02975D02*
X02505D01*
Y029747D01*
X025077Y029646D01*
X02513Y029554D01*
X025204Y02948D01*
X025296Y029427D01*
X025397Y0294D01*
X0254D01*
Y02975D01*
D02*
G37*
G36*
X046342Y036667D02*
X046258D01*
X046178Y036645D01*
X046106Y036603D01*
X046047Y036544D01*
X046005Y036472D01*
X045983Y036392D01*
Y036308D01*
X046005Y036228D01*
X046047Y036156D01*
X046106Y036097D01*
X046171Y036059D01*
Y031771D01*
X043341Y028942D01*
X042011D01*
X042Y02897D01*
X041946Y02904D01*
X041875Y029094D01*
X041794Y029128D01*
X041706Y029139D01*
X041194D01*
X041106Y029128D01*
X041025Y029094D01*
X040954Y02904D01*
X0409Y02897D01*
X040867Y028888D01*
X040855Y0288D01*
X040867Y028712D01*
X0409Y02863D01*
X040954Y02856D01*
X041025Y028506D01*
X041106Y028472D01*
X041194Y028461D01*
X041706D01*
X041794Y028472D01*
X041875Y028506D01*
X041946Y02856D01*
X042Y02863D01*
X042011Y028658D01*
X0434D01*
X043454Y028669D01*
X0435Y0287D01*
X046413Y031612D01*
X046444Y031658D01*
X046455Y031713D01*
Y036074D01*
X046494Y036097D01*
X046553Y036156D01*
X046595Y036228D01*
X046617Y036308D01*
Y036392D01*
X046595Y036472D01*
X046553Y036544D01*
X046494Y036603D01*
X046422Y036645D01*
X046342Y036667D01*
D02*
G37*
G36*
X051706Y029139D02*
X051194D01*
X051106Y029128D01*
X051025Y029094D01*
X050954Y02904D01*
X0509Y02897D01*
X050867Y028888D01*
X050855Y0288D01*
X050867Y028712D01*
X0509Y02863D01*
X050954Y02856D01*
X051025Y028506D01*
X051106Y028472D01*
X051194Y028461D01*
X051706D01*
X051794Y028472D01*
X051875Y028506D01*
X051946Y02856D01*
X052Y02863D01*
X052033Y028712D01*
X052045Y0288D01*
X052033Y028888D01*
X052Y02897D01*
X051946Y02904D01*
X051875Y029094D01*
X051794Y029128D01*
X051706Y029139D01*
D02*
G37*
G36*
X041706Y028139D02*
X0415D01*
Y02785D01*
X042038D01*
X042033Y027888D01*
X042Y02797D01*
X041946Y02804D01*
X041875Y028094D01*
X041794Y028128D01*
X041706Y028139D01*
D02*
G37*
G36*
X042038Y02775D02*
X0415D01*
Y027461D01*
X041706D01*
X041794Y027472D01*
X041875Y027506D01*
X041946Y02756D01*
X042Y02763D01*
X042033Y027712D01*
X042038Y02775D01*
D02*
G37*
G36*
X025503Y0302D02*
X0255D01*
Y0298D01*
Y0294D01*
X025503D01*
X025604Y029427D01*
X025696Y02948D01*
X02577Y029554D01*
X025772Y029558D01*
X03285D01*
X034779Y027629D01*
X034857Y027576D01*
X03495Y027558D01*
X040958D01*
X041025Y027506D01*
X041106Y027472D01*
X041194Y027461D01*
X0414D01*
Y0278D01*
Y028139D01*
X041194D01*
X041106Y028128D01*
X041025Y028094D01*
X040958Y028042D01*
X03505D01*
X033121Y029971D01*
X033043Y030024D01*
X03295Y030042D01*
X025772D01*
X02577Y030046D01*
X025696Y03012D01*
X025604Y030173D01*
X025503Y0302D01*
D02*
G37*
G36*
Y0292D02*
X025397D01*
X025296Y029173D01*
X025204Y02912D01*
X02513Y029046D01*
X025077Y028954D01*
X02505Y028853D01*
Y028747D01*
X025077Y028646D01*
X02513Y028554D01*
X025204Y02848D01*
X025296Y028427D01*
X025397Y0284D01*
X025503D01*
X025506Y028401D01*
X028879Y025029D01*
X028957Y024976D01*
X02905Y024958D01*
X05065D01*
X050743Y024976D01*
X050821Y025029D01*
X051621Y025829D01*
X051674Y025907D01*
X051692Y026D01*
Y027464D01*
X052042D01*
Y028136D01*
X050858D01*
Y027464D01*
X051208D01*
Y0261D01*
X05055Y025442D01*
X02915D01*
X025849Y028744D01*
X02585Y028747D01*
Y028853D01*
X025823Y028954D01*
X02577Y029046D01*
X025696Y02912D01*
X025604Y029173D01*
X025503Y0292D01*
D02*
G37*
%LPD*%
D10*
X04145Y0288D02*
X0434D01*
X046313Y031713D01*
X02545Y0318D02*
X0382D01*
X0392Y0328D01*
X04145D01*
X0479Y05595D02*
Y057437D01*
X047887Y057449D02*
X0479Y057437D01*
X0463Y051137D02*
X046313Y05115D01*
X0463Y0501D02*
Y051137D01*
Y03635D02*
X046313Y036337D01*
Y031713D02*
Y036337D01*
X047887Y035813D02*
X0479Y0358D01*
X047887Y035813D02*
Y05115D01*
X04145Y0348D02*
X0439D01*
X0471Y038D01*
Y05115D01*
X045525Y037825D02*
Y05115D01*
X04145Y0368D02*
X0445D01*
X045525Y037825D01*
X03815Y0308D02*
X03915Y0298D01*
X02545Y0308D02*
X03815D01*
X03915Y0298D02*
X04145D01*
D13*
X05025Y057449D02*
D03*
X049462D02*
D03*
X048675D02*
D03*
X047887D02*
D03*
X0471D02*
D03*
X046313D02*
D03*
X045525D02*
D03*
X044738D02*
D03*
X05025Y05115D02*
D03*
X049462D02*
D03*
X048675D02*
D03*
X047887D02*
D03*
X0471D02*
D03*
X046313D02*
D03*
X045525D02*
D03*
X044738D02*
D03*
D14*
X0433Y054695D02*
D03*
Y054105D02*
D03*
D23*
Y05335D02*
Y054105D01*
Y05335D02*
X044738Y051912D01*
Y05115D02*
Y051912D01*
X02545Y0298D02*
X03295D01*
X03495Y0278D02*
X04145D01*
X03295Y0298D02*
X03495Y0278D01*
X05025Y05115D02*
Y0521D01*
X05025Y05115D02*
X05025Y05115D01*
X0433Y054105D02*
X048245D01*
X05025Y0521D01*
X0433Y054695D02*
X045195D01*
X046313Y055813D01*
X043298Y054698D02*
X0433Y054695D01*
X040402Y054698D02*
X043298D01*
X044737Y05745D02*
X044738Y057449D01*
X045525D01*
X04365Y05745D02*
X04365Y05745D01*
X044737D01*
X04175Y0537D02*
X042155Y054105D01*
X0433D01*
X0404Y0537D02*
X04175D01*
X05145Y026D02*
Y0278D01*
X05065Y0252D02*
X05145Y026D01*
X02905Y0252D02*
X05065D01*
X02545Y0288D02*
X02905Y0252D01*
X046313Y055813D02*
Y057449D01*
X0404Y0547D02*
X040402Y054698D01*
D24*
X05145Y0278D02*
D03*
D25*
Y0288D02*
D03*
Y0298D02*
D03*
Y0308D02*
D03*
Y0318D02*
D03*
Y0328D02*
D03*
Y0338D02*
D03*
Y0348D02*
D03*
Y0358D02*
D03*
Y0368D02*
D03*
Y0378D02*
D03*
Y0388D02*
D03*
Y0398D02*
D03*
Y0408D02*
D03*
Y0418D02*
D03*
Y0428D02*
D03*
Y0438D02*
D03*
Y0448D02*
D03*
Y0458D02*
D03*
X04145Y0278D02*
D03*
Y0288D02*
D03*
Y0298D02*
D03*
Y0308D02*
D03*
Y0318D02*
D03*
Y0328D02*
D03*
Y0338D02*
D03*
Y0348D02*
D03*
Y0358D02*
D03*
Y0368D02*
D03*
Y0378D02*
D03*
Y0388D02*
D03*
Y0398D02*
D03*
Y0408D02*
D03*
Y0418D02*
D03*
Y0428D02*
D03*
Y0438D02*
D03*
Y0448D02*
D03*
Y0458D02*
D03*
D26*
X02545Y0298D02*
D03*
Y0308D02*
D03*
Y0288D02*
D03*
Y0318D02*
D03*
D27*
X0404Y0547D02*
D03*
D28*
Y0537D02*
D03*
D29*
X04365Y05745D02*
D03*
X0479Y05595D02*
D03*
X0463Y0501D02*
D03*
Y03635D02*
D03*
X0479Y0358D02*
D03*
M02*
