G04*
G04 #@! TF.GenerationSoftware,Altium Limited,Altium Designer,21.3.2 (30)*
G04*
G04 Layer_Color=255*
%FSTAX24Y24*%
%MOIN*%
G70*
G04*
G04 #@! TF.SameCoordinates,CDE3E893-1740-4E77-B8E0-51F932FF10AF*
G04*
G04*
G04 #@! TF.FilePolarity,Positive*
G04*
G01*
G75*
%ADD13R,0.0394X0.0591*%
%ADD14R,0.0374X0.0394*%
%ADD24R,0.0984X0.0472*%
%ADD25O,0.0984X0.0472*%
%ADD26C,0.0600*%
%ADD27R,0.0598X0.0598*%
%ADD28C,0.0598*%
D13*
X05025Y057449D02*
D03*
X049462D02*
D03*
X048675D02*
D03*
X047887D02*
D03*
X0471D02*
D03*
X046313D02*
D03*
X045525D02*
D03*
X044738D02*
D03*
X05025Y05115D02*
D03*
X049462D02*
D03*
X048675D02*
D03*
X047887D02*
D03*
X0471D02*
D03*
X046313D02*
D03*
X045525D02*
D03*
X044738D02*
D03*
D14*
X0433Y054695D02*
D03*
Y054105D02*
D03*
D24*
X05145Y0278D02*
D03*
D25*
Y0288D02*
D03*
Y0298D02*
D03*
Y0308D02*
D03*
Y0318D02*
D03*
Y0328D02*
D03*
Y0338D02*
D03*
Y0348D02*
D03*
Y0358D02*
D03*
Y0368D02*
D03*
Y0378D02*
D03*
Y0388D02*
D03*
Y0398D02*
D03*
Y0408D02*
D03*
Y0418D02*
D03*
Y0428D02*
D03*
Y0438D02*
D03*
Y0448D02*
D03*
Y0458D02*
D03*
X04145Y0278D02*
D03*
Y0288D02*
D03*
Y0298D02*
D03*
Y0308D02*
D03*
Y0318D02*
D03*
Y0328D02*
D03*
Y0338D02*
D03*
Y0348D02*
D03*
Y0358D02*
D03*
Y0368D02*
D03*
Y0378D02*
D03*
Y0388D02*
D03*
Y0398D02*
D03*
Y0408D02*
D03*
Y0418D02*
D03*
Y0428D02*
D03*
Y0438D02*
D03*
Y0448D02*
D03*
Y0458D02*
D03*
D26*
X02545Y0298D02*
D03*
Y0308D02*
D03*
Y0288D02*
D03*
Y0318D02*
D03*
D27*
X0404Y0547D02*
D03*
D28*
Y0537D02*
D03*
M02*
