G04*
G04 #@! TF.GenerationSoftware,Altium Limited,Altium Designer,21.3.2 (30)*
G04*
G04 Layer_Color=65535*
%FSTAX24Y24*%
%MOIN*%
G70*
G04*
G04 #@! TF.SameCoordinates,CDE3E893-1740-4E77-B8E0-51F932FF10AF*
G04*
G04*
G04 #@! TF.FilePolarity,Positive*
G04*
G01*
G75*
%ADD10C,0.0079*%
%ADD11C,0.0100*%
%ADD12C,0.0040*%
D10*
X044344Y054103D02*
G03*
X044344Y054496I0J000197D01*
G01*
X0462Y026D02*
X05205D01*
X04085D02*
X0462D01*
X04085Y0479D02*
X04085Y026D01*
X04085Y0479D02*
X05205D01*
X05205Y026D01*
X044344Y051676D02*
X050643D01*
Y056924D01*
X044344D02*
X050643D01*
X044344Y054496D02*
Y056924D01*
Y051676D02*
Y054103D01*
X0399Y053102D02*
X0409D01*
X0399D02*
Y055298D01*
X0409D01*
Y053102D02*
Y055298D01*
D11*
X02494Y02829D02*
X0259D01*
Y03243D01*
X02494D02*
X0259D01*
X02494Y02829D02*
Y03243D01*
X02495Y0293D02*
X02587D01*
X04091Y04884D02*
Y04834D01*
X04101Y04824D01*
X04121D01*
X04131Y04834D01*
Y04884D01*
X04151Y04824D02*
X04171D01*
X04161D01*
Y04884D01*
X04151Y04874D01*
X04424Y05808D02*
Y05868D01*
X04454D01*
X04464Y05858D01*
Y05838D01*
X04454Y05828D01*
X04424D01*
X04444D02*
X04464Y05808D01*
X04484D02*
Y05848D01*
X04504Y05868D01*
X04524Y05848D01*
Y05808D01*
Y05838D01*
X04484D01*
X04544Y05808D02*
X04564D01*
X04554D01*
Y05868D01*
X04544Y05858D01*
X02497Y03645D02*
X02477D01*
X02467Y03635D01*
Y03595D01*
X02477Y03585D01*
X02497D01*
X02507Y03595D01*
Y03635D01*
X02497Y03645D01*
X02527D02*
Y03585D01*
X02567D01*
X026269Y03645D02*
X02587D01*
Y03585D01*
X026269D01*
X02587Y03615D02*
X02607D01*
X026469Y03645D02*
Y03585D01*
X026769D01*
X026869Y03595D01*
Y03635D01*
X026769Y03645D01*
X026469D01*
X027069Y03585D02*
X027269D01*
X027169D01*
Y03645D01*
X027069Y03635D01*
X04355Y05575D02*
X04345Y05585D01*
X04325D01*
X04315Y05575D01*
Y05535D01*
X04325Y05525D01*
X04345D01*
X04355Y05535D01*
X04375Y05525D02*
X04395D01*
X04385D01*
Y05585D01*
X04375Y05575D01*
X04036Y05624D02*
X04016D01*
X04026D01*
Y05574D01*
X04016Y05564D01*
X04006D01*
X03996Y05574D01*
X04056Y05564D02*
Y05624D01*
X04086D01*
X04096Y05614D01*
Y05594D01*
X04086Y05584D01*
X04056D01*
X041559Y05564D02*
X04116D01*
X041559Y05604D01*
Y05614D01*
X04146Y05624D01*
X04126D01*
X04116Y05614D01*
D12*
X04307Y05493D02*
X04353D01*
X04307Y05386D02*
Y05493D01*
Y05386D02*
X04353D01*
Y05493D01*
X04346Y05436D02*
Y05444D01*
X04314Y05436D02*
Y05444D01*
M02*
