M48
;Layer_Color=9474304
;FILE_FORMAT=2:4
INCH,LZ
;TYPE=PLATED
T1F00S00C0.0236
T2F00S00C0.0276
T3F00S00C0.0300
T4F00S00C0.0402
%
T01
X00285Y0024
X00385
X00485
X00585
X00685
X00785
X00885
X00985
X01085
X01185
X01285
X01385
X01485
Y0124
X01385
X01285
X01185
X01085
X00985
X00885
X00785
X00685
X00585
X00485
X00385
X00285
X01585
X01685
X01785
X01885
X01985
X02085
Y0024
X01985
X01885
X01785
X01685
X01585
T02
X0105Y00565
X01125Y00495
X0089Y00915
X01155Y01125
T03
X01595Y0143
X01695
X01795
X01895
T04
X0095Y01435
X0105
M30
