G04*
G04 #@! TF.GenerationSoftware,Altium Limited,Altium Designer,21.3.2 (30)*
G04*
G04 Layer_Color=16711935*
%FSTAX24Y24*%
%MOIN*%
G70*
G04*
G04 #@! TF.SameCoordinates,CDE3E893-1740-4E77-B8E0-51F932FF10AF*
G04*
G04*
G04 #@! TF.FilePolarity,Negative*
G04*
G01*
G75*
%ADD17R,0.1064X0.0552*%
%ADD18O,0.1064X0.0552*%
%ADD19C,0.0680*%
%ADD20R,0.0678X0.0678*%
%ADD21C,0.0678*%
%ADD22C,0.0513*%
D17*
X05145Y0278D02*
D03*
D18*
Y0288D02*
D03*
Y0298D02*
D03*
Y0308D02*
D03*
Y0318D02*
D03*
Y0328D02*
D03*
Y0338D02*
D03*
Y0348D02*
D03*
Y0358D02*
D03*
Y0368D02*
D03*
Y0378D02*
D03*
Y0388D02*
D03*
Y0398D02*
D03*
Y0408D02*
D03*
Y0418D02*
D03*
Y0428D02*
D03*
Y0438D02*
D03*
Y0448D02*
D03*
Y0458D02*
D03*
X04145Y0278D02*
D03*
Y0288D02*
D03*
Y0298D02*
D03*
Y0308D02*
D03*
Y0318D02*
D03*
Y0328D02*
D03*
Y0338D02*
D03*
Y0348D02*
D03*
Y0358D02*
D03*
Y0368D02*
D03*
Y0378D02*
D03*
Y0388D02*
D03*
Y0398D02*
D03*
Y0408D02*
D03*
Y0418D02*
D03*
Y0428D02*
D03*
Y0438D02*
D03*
Y0448D02*
D03*
Y0458D02*
D03*
D19*
X02545Y0298D02*
D03*
Y0308D02*
D03*
Y0288D02*
D03*
Y0318D02*
D03*
D20*
X0404Y0547D02*
D03*
D21*
Y0537D02*
D03*
D22*
X04365Y05745D02*
D03*
X0479Y05595D02*
D03*
X0463Y0501D02*
D03*
Y03635D02*
D03*
X0479Y0358D02*
D03*
M02*
