G04*
G04 #@! TF.GenerationSoftware,Altium Limited,Altium Designer,21.3.2 (30)*
G04*
G04 Layer_Physical_Order=2*
G04 Layer_Color=16711680*
%FSTAX24Y24*%
%MOIN*%
G70*
G04*
G04 #@! TF.SameCoordinates,7CAEB1DE-A824-4D29-B8D0-2D7E757E666D*
G04*
G04*
G04 #@! TF.FilePolarity,Positive*
G04*
G01*
G75*
%ADD14C,0.0079*%
%ADD52C,0.0276*%
%ADD57C,0.0750*%
%ADD58C,0.0598*%
%ADD59R,0.0598X0.0598*%
%ADD60C,0.0315*%
%ADD61R,0.0630X0.0630*%
%ADD62C,0.0630*%
%ADD63R,0.0630X0.0630*%
%ADD64C,0.0433*%
%ADD65C,0.0276*%
G36*
X022704Y00013D02*
X00013D01*
Y021523D01*
X022704D01*
Y00013D01*
D02*
G37*
%LPC*%
G36*
X010926Y021228D02*
X010822D01*
X010722Y021202D01*
X010632Y02115D01*
X010559Y021076D01*
X010507Y020987D01*
X01048Y020886D01*
Y020783D01*
X010507Y020683D01*
X010559Y020593D01*
X010632Y02052D01*
X010722Y020468D01*
X010822Y020441D01*
X010926D01*
X011026Y020468D01*
X011116Y02052D01*
X011189Y020593D01*
X011241Y020683D01*
X011268Y020783D01*
Y020886D01*
X011241Y020987D01*
X011189Y021076D01*
X011116Y02115D01*
X011026Y021202D01*
X010926Y021228D01*
D02*
G37*
G36*
X010268D02*
X00948D01*
Y020441D01*
X010268D01*
Y021228D01*
D02*
G37*
G36*
X016517Y020101D02*
X016431D01*
X016351Y020068D01*
X01629Y020007D01*
X016257Y019928D01*
Y019842D01*
X01629Y019762D01*
X016351Y019701D01*
X016354Y0197D01*
Y019135D01*
X016019Y0188D01*
X016017Y018801D01*
X015931D01*
X015851Y018768D01*
X01579Y018707D01*
X015757Y018628D01*
Y018542D01*
X01579Y018462D01*
X015851Y018401D01*
X015931Y018368D01*
X016017D01*
X016097Y018401D01*
X016158Y018462D01*
X016191Y018542D01*
Y018628D01*
X01619Y01863D01*
X016559Y018999D01*
X016559Y018999D01*
X016585Y019039D01*
X016594Y019085D01*
X016594Y019085D01*
Y0197D01*
X016597Y019701D01*
X016658Y019762D01*
X016691Y019842D01*
Y019928D01*
X016658Y020007D01*
X016597Y020068D01*
X016517Y020101D01*
D02*
G37*
G36*
X004713Y01878D02*
X004635D01*
X00456Y01876D01*
X004493Y018721D01*
X004438Y018666D01*
X004399Y018599D01*
X004379Y018524D01*
Y018446D01*
X004399Y018371D01*
X004438Y018303D01*
X004493Y018248D01*
X00456Y018209D01*
X004635Y018189D01*
X004713D01*
X004788Y018209D01*
X004855Y018248D01*
X00491Y018303D01*
X004949Y018371D01*
X004969Y018446D01*
Y018524D01*
X004949Y018599D01*
X00491Y018666D01*
X004855Y018721D01*
X004788Y01876D01*
X004713Y01878D01*
D02*
G37*
G36*
X015313Y01873D02*
X015235D01*
X01516Y01871D01*
X015093Y018671D01*
X015038Y018616D01*
X014999Y018549D01*
X014979Y018474D01*
Y018396D01*
X014999Y018321D01*
X015038Y018253D01*
X015093Y018198D01*
X015112Y018187D01*
X015118Y018179D01*
X015718Y017579D01*
X015752Y017555D01*
X015737Y017505D01*
X014665D01*
X014369Y017802D01*
Y017824D01*
X014349Y017899D01*
X01431Y017966D01*
X014255Y018021D01*
X014188Y01806D01*
X014113Y01808D01*
X014035D01*
X01396Y01806D01*
X013893Y018021D01*
X013877Y018005D01*
X011824D01*
X011739Y017989D01*
X011668Y017941D01*
X010707Y01698D01*
X010685D01*
X01061Y01696D01*
X010543Y016921D01*
X010527Y016905D01*
X007215D01*
X006719Y017402D01*
Y017424D01*
X006699Y017499D01*
X00666Y017566D01*
X006605Y017621D01*
X006538Y01766D01*
X006463Y01768D01*
X006385D01*
X00631Y01766D01*
X006243Y017621D01*
X006188Y017566D01*
X006149Y017499D01*
X006129Y017424D01*
Y017346D01*
X006149Y017271D01*
X006188Y017203D01*
X006243Y017148D01*
X00631Y017109D01*
X006385Y017089D01*
X006407D01*
X006968Y016529D01*
X007039Y016481D01*
X007124Y016464D01*
X010527D01*
X010543Y016448D01*
X01061Y016409D01*
X010685Y016389D01*
X010763D01*
X010838Y016409D01*
X010905Y016448D01*
X01096Y016503D01*
X010999Y016571D01*
X011019Y016646D01*
Y016668D01*
X011915Y017564D01*
X013877D01*
X013893Y017548D01*
X01396Y017509D01*
X014035Y017489D01*
X014057D01*
X014418Y017129D01*
X014489Y017081D01*
X014574Y017064D01*
X016353D01*
Y015777D01*
X01637Y015693D01*
X016418Y015621D01*
X016429Y01561D01*
Y015546D01*
X016449Y015471D01*
X016488Y015403D01*
X016543Y015348D01*
X01661Y015309D01*
X016685Y015289D01*
X016707D01*
X017418Y014579D01*
X017489Y014531D01*
X017574Y014514D01*
X018547D01*
X018559Y014493D01*
X018603Y014449D01*
Y014138D01*
X018571Y014105D01*
X016974D01*
X016889Y014089D01*
X016818Y014041D01*
X015807Y01303D01*
X015785D01*
X01571Y01301D01*
X015643Y012971D01*
X015588Y012916D01*
X015549Y012849D01*
X015529Y012774D01*
Y012696D01*
X015549Y012621D01*
X015588Y012553D01*
X015643Y012498D01*
X01571Y012459D01*
X015785Y012439D01*
X015863D01*
X015938Y012459D01*
X016005Y012498D01*
X01606Y012553D01*
X016099Y012621D01*
X016119Y012696D01*
Y012718D01*
X017065Y013664D01*
X018663D01*
X018747Y013681D01*
X018819Y013729D01*
X01898Y01389D01*
X019028Y013962D01*
X019045Y014046D01*
Y014379D01*
X019116Y01442D01*
X019189Y014493D01*
X019241Y014583D01*
X019268Y014683D01*
Y014786D01*
X019241Y014887D01*
X019189Y014976D01*
X019116Y01505D01*
X019026Y015102D01*
X018926Y015128D01*
X018822D01*
X018722Y015102D01*
X018632Y01505D01*
X018559Y014976D01*
X018547Y014955D01*
X017665D01*
X017019Y015602D01*
Y015624D01*
X016999Y015699D01*
X01696Y015766D01*
X016905Y015821D01*
X016838Y01586D01*
X016795Y015871D01*
Y017088D01*
X01681Y017103D01*
X016849Y017171D01*
X016869Y017246D01*
Y017324D01*
X016849Y017399D01*
X016811Y017464D01*
X016818Y01749D01*
X016828Y017514D01*
X01848D01*
Y017341D01*
X019268D01*
Y018128D01*
X01848D01*
Y017955D01*
X015965D01*
X01556Y018361D01*
X015569Y018396D01*
Y018474D01*
X015549Y018549D01*
X01551Y018616D01*
X015455Y018671D01*
X015388Y01871D01*
X015313Y01873D01*
D02*
G37*
G36*
X018926Y017128D02*
X018822D01*
X018722Y017102D01*
X018632Y01705D01*
X018559Y016976D01*
X018507Y016887D01*
X01848Y016786D01*
Y016683D01*
X018507Y016583D01*
X018559Y016493D01*
X018632Y01642D01*
X018722Y016368D01*
X018822Y016341D01*
X018926D01*
X019026Y016368D01*
X019116Y01642D01*
X019189Y016493D01*
X019241Y016583D01*
X019268Y016683D01*
Y016786D01*
X019241Y016887D01*
X019189Y016976D01*
X019116Y01705D01*
X019026Y017102D01*
X018926Y017128D01*
D02*
G37*
G36*
Y016128D02*
X018822D01*
X018722Y016102D01*
X018632Y01605D01*
X018559Y015976D01*
X018507Y015887D01*
X01848Y015786D01*
Y015683D01*
X018507Y015583D01*
X018559Y015493D01*
X018632Y01542D01*
X018722Y015368D01*
X018822Y015341D01*
X018926D01*
X019026Y015368D01*
X019116Y01542D01*
X019189Y015493D01*
X019241Y015583D01*
X019268Y015683D01*
Y015786D01*
X019241Y015887D01*
X019189Y015976D01*
X019116Y01605D01*
X019026Y016102D01*
X018926Y016128D01*
D02*
G37*
G36*
X009409Y01617D02*
X009409Y01617D01*
X006989D01*
X006943Y016161D01*
X006904Y016135D01*
X006904Y016135D01*
X005769Y015D01*
X005767Y015001D01*
X005681D01*
X005601Y014968D01*
X00554Y014907D01*
X005507Y014828D01*
Y014742D01*
X00554Y014662D01*
X005601Y014601D01*
X005681Y014568D01*
X005767D01*
X005847Y014601D01*
X005908Y014662D01*
X005941Y014742D01*
Y014828D01*
X00594Y01483D01*
X007039Y01593D01*
X009359D01*
X010458Y01483D01*
X010457Y014828D01*
Y014742D01*
X01049Y014662D01*
X010551Y014601D01*
X010631Y014568D01*
X010717D01*
X010797Y014601D01*
X010858Y014662D01*
X010891Y014742D01*
Y014828D01*
X010858Y014907D01*
X010797Y014968D01*
X010717Y015001D01*
X010631D01*
X010629Y015D01*
X009494Y016135D01*
X009455Y016161D01*
X009409Y01617D01*
D02*
G37*
G36*
X019268Y013528D02*
X01848D01*
Y012741D01*
X019268D01*
Y013528D01*
D02*
G37*
G36*
X012317Y014001D02*
X012231D01*
X012151Y013968D01*
X01209Y013907D01*
X012057Y013828D01*
Y013742D01*
X01209Y013662D01*
X012151Y013601D01*
X012154Y0136D01*
Y0124D01*
X011753Y011999D01*
X009958D01*
X009958Y012001D01*
X009897Y012062D01*
X009817Y012095D01*
X009731D01*
X009651Y012062D01*
X00959Y012001D01*
X009557Y011922D01*
Y011836D01*
X00959Y011756D01*
X009651Y011695D01*
X009731Y011662D01*
X009817D01*
X009897Y011695D01*
X009958Y011756D01*
X009958Y011758D01*
X011803D01*
X011803Y011758D01*
X011849Y011767D01*
X011888Y011794D01*
X012359Y012265D01*
X012359Y012265D01*
X012385Y012304D01*
X012394Y01235D01*
X012394Y01235D01*
Y0136D01*
X012397Y013601D01*
X012458Y013662D01*
X012491Y013742D01*
Y013828D01*
X012458Y013907D01*
X012397Y013968D01*
X012317Y014001D01*
D02*
G37*
G36*
X018926Y012528D02*
X018822D01*
X018722Y012502D01*
X018632Y01245D01*
X018559Y012376D01*
X018507Y012287D01*
X01848Y012186D01*
Y012083D01*
X018507Y011983D01*
X018559Y011893D01*
X018632Y01182D01*
X018722Y011768D01*
X018822Y011741D01*
X018926D01*
X019026Y011768D01*
X019116Y01182D01*
X019189Y011893D01*
X019241Y011983D01*
X019268Y012083D01*
Y012186D01*
X019241Y012287D01*
X019189Y012376D01*
X019116Y01245D01*
X019026Y012502D01*
X018926Y012528D01*
D02*
G37*
G36*
Y011528D02*
X018822D01*
X018722Y011502D01*
X018632Y01145D01*
X018559Y011376D01*
X018507Y011287D01*
X01848Y011186D01*
Y011083D01*
X018507Y010983D01*
X018559Y010893D01*
X018632Y01082D01*
X018722Y010768D01*
X018822Y010741D01*
X018926D01*
X019026Y010768D01*
X019116Y01082D01*
X019189Y010893D01*
X019241Y010983D01*
X019268Y011083D01*
Y011186D01*
X019241Y011287D01*
X019189Y011376D01*
X019116Y01145D01*
X019026Y011502D01*
X018926Y011528D01*
D02*
G37*
G36*
Y010528D02*
X018822D01*
X018722Y010502D01*
X018632Y01045D01*
X018559Y010376D01*
X018507Y010287D01*
X01848Y010186D01*
Y010083D01*
X018507Y009983D01*
X018559Y009893D01*
X018632Y00982D01*
X018722Y009768D01*
X018822Y009741D01*
X018926D01*
X019026Y009768D01*
X019116Y00982D01*
X019189Y009893D01*
X019241Y009983D01*
X019268Y010083D01*
Y010186D01*
X019241Y010287D01*
X019189Y010376D01*
X019116Y01045D01*
X019026Y010502D01*
X018926Y010528D01*
D02*
G37*
G36*
X013989Y009795D02*
X013911D01*
X013836Y009775D01*
X013769Y009736D01*
X013714Y009681D01*
X013675Y009614D01*
X013655Y009539D01*
Y009517D01*
X012868Y00873D01*
X01282Y008658D01*
X012803Y008574D01*
Y008081D01*
X012788Y008066D01*
X012749Y007999D01*
X012729Y007924D01*
Y007846D01*
X012749Y007771D01*
X012788Y007703D01*
X012843Y007648D01*
X01291Y007609D01*
X012985Y007589D01*
X013063D01*
X013138Y007609D01*
X013205Y007648D01*
X01326Y007703D01*
X013299Y007771D01*
X013319Y007846D01*
Y007924D01*
X013299Y007999D01*
X01326Y008066D01*
X013245Y008081D01*
Y008483D01*
X013967Y009205D01*
X013989D01*
X014064Y009225D01*
X014131Y009264D01*
X014186Y009319D01*
X014225Y009386D01*
X014245Y009461D01*
Y009539D01*
X014225Y009614D01*
X014186Y009681D01*
X014131Y009736D01*
X014064Y009775D01*
X013989Y009795D01*
D02*
G37*
G36*
X011163Y01073D02*
X011085D01*
X01101Y01071D01*
X010943Y010671D01*
X010888Y010616D01*
X010849Y010549D01*
X010829Y010474D01*
Y010396D01*
X010849Y010321D01*
X010888Y010253D01*
X010943Y010198D01*
X01101Y010159D01*
X011085Y010139D01*
X01115D01*
X01136Y009929D01*
X011432Y009881D01*
X011517Y009864D01*
X014327D01*
X014343Y009848D01*
X01441Y009809D01*
X014485Y009789D01*
X014507D01*
X014903Y009393D01*
Y008731D01*
X014888Y008716D01*
X014849Y008649D01*
X014829Y008574D01*
Y008496D01*
X014849Y008421D01*
X014888Y008353D01*
X014943Y008298D01*
X01501Y008259D01*
X015085Y008239D01*
X015163D01*
X015238Y008259D01*
X015305Y008298D01*
X015321Y008314D01*
X017983D01*
X018388Y007909D01*
X01837Y007844D01*
Y007725D01*
X018401Y00761D01*
X018461Y007506D01*
X018545Y007422D01*
X018649Y007362D01*
X018764Y007331D01*
X018884D01*
X018999Y007362D01*
X019103Y007422D01*
X019187Y007506D01*
X019247Y00761D01*
X019278Y007725D01*
Y007844D01*
X019247Y00796D01*
X019187Y008063D01*
X019103Y008148D01*
X018999Y008207D01*
X018884Y008238D01*
X018764D01*
X0187Y008221D01*
X01823Y008691D01*
X018158Y008739D01*
X018074Y008755D01*
X015345D01*
Y009485D01*
X015328Y009569D01*
X01528Y009641D01*
X014819Y010102D01*
Y010124D01*
X014799Y010199D01*
X01476Y010266D01*
X014705Y010321D01*
X014638Y01036D01*
X014563Y01038D01*
X014485D01*
X01441Y01036D01*
X014343Y010321D01*
X014327Y010305D01*
X011608D01*
X011412Y010502D01*
X011399Y010549D01*
X01136Y010616D01*
X011305Y010671D01*
X011238Y01071D01*
X011163Y01073D01*
D02*
G37*
G36*
X015058Y007323D02*
X014964D01*
X014877Y007287D01*
X01481Y00722D01*
X014774Y007134D01*
Y00704D01*
X01481Y006953D01*
X014877Y006886D01*
X014964Y00685D01*
X015058D01*
X015144Y006886D01*
X015211Y006953D01*
X015247Y00704D01*
Y007134D01*
X015211Y00722D01*
X015144Y007287D01*
X015058Y007323D01*
D02*
G37*
G36*
X007971D02*
X007877D01*
X00779Y007287D01*
X007724Y00722D01*
X007688Y007134D01*
Y00704D01*
X007724Y006953D01*
X00779Y006886D01*
X007877Y00685D01*
X007971D01*
X008058Y006886D01*
X008124Y006953D01*
X00816Y00704D01*
Y007134D01*
X008124Y00722D01*
X008058Y007287D01*
X007971Y007323D01*
D02*
G37*
G36*
X020884Y007238D02*
X020764D01*
X020649Y007207D01*
X020545Y007148D01*
X020461Y007063D01*
X020401Y00696D01*
X02037Y006844D01*
Y006725D01*
X020401Y00661D01*
X020461Y006506D01*
X020545Y006422D01*
X020649Y006362D01*
X020764Y006331D01*
X020884D01*
X020999Y006362D01*
X021103Y006422D01*
X021187Y006506D01*
X021247Y00661D01*
X021278Y006725D01*
Y006844D01*
X021247Y00696D01*
X021187Y007063D01*
X021103Y007148D01*
X020999Y007207D01*
X020884Y007238D01*
D02*
G37*
G36*
X018884Y006238D02*
X018764D01*
X018649Y006207D01*
X018545Y006148D01*
X018461Y006063D01*
X018401Y00596D01*
X01837Y005844D01*
Y005725D01*
X018401Y00561D01*
X018461Y005506D01*
X018545Y005422D01*
X018649Y005362D01*
X018764Y005331D01*
X018884D01*
X018999Y005362D01*
X019103Y005422D01*
X019187Y005506D01*
X019247Y00561D01*
X019278Y005725D01*
Y005844D01*
X019247Y00596D01*
X019187Y006063D01*
X019103Y006148D01*
X018999Y006207D01*
X018884Y006238D01*
D02*
G37*
G36*
X008993Y007317D02*
X008907D01*
X008827Y007284D01*
X008766Y007223D01*
X008733Y007143D01*
Y007057D01*
X008766Y006977D01*
X008827Y006916D01*
X00883Y006916D01*
Y00575D01*
X0071Y00402D01*
X002934D01*
X002934Y004023D01*
X002873Y004084D01*
X002793Y004117D01*
X002707D01*
X002627Y004084D01*
X002566Y004023D01*
X002533Y003943D01*
Y003857D01*
X002566Y003777D01*
X002627Y003716D01*
X002707Y003683D01*
X002793D01*
X002873Y003716D01*
X002934Y003777D01*
X002934Y00378D01*
X00715D01*
X00715Y00378D01*
X007196Y003789D01*
X007235Y003815D01*
X009035Y005615D01*
X009035Y005615D01*
X009061Y005654D01*
X00907Y0057D01*
Y006916D01*
X009073Y006916D01*
X009134Y006977D01*
X009167Y007057D01*
Y007143D01*
X009134Y007223D01*
X009073Y007284D01*
X008993Y007317D01*
D02*
G37*
G36*
X011284Y004338D02*
X011164D01*
X011049Y004307D01*
X010945Y004248D01*
X010861Y004163D01*
X010801Y00406D01*
X01077Y003944D01*
Y003825D01*
X010801Y00371D01*
X010861Y003606D01*
X010945Y003522D01*
X011049Y003462D01*
X011164Y003431D01*
X011284D01*
X011399Y003462D01*
X011503Y003522D01*
X011587Y003606D01*
X011647Y00371D01*
X011678Y003825D01*
Y003944D01*
X011647Y00406D01*
X011587Y004163D01*
X011503Y004248D01*
X011399Y004307D01*
X011284Y004338D01*
D02*
G37*
G36*
X008793Y004967D02*
X008707D01*
X008627Y004934D01*
X008566Y004873D01*
X008533Y004793D01*
Y004707D01*
X008566Y004627D01*
X008627Y004566D01*
X00863Y004566D01*
Y00435D01*
X00755Y00327D01*
X002934D01*
X002934Y003273D01*
X002873Y003334D01*
X002793Y003367D01*
X002707D01*
X002627Y003334D01*
X002566Y003273D01*
X002533Y003193D01*
Y003107D01*
X002566Y003027D01*
X002627Y002966D01*
X002707Y002933D01*
X002793D01*
X002873Y002966D01*
X002934Y003027D01*
X002934Y00303D01*
X0076D01*
X0076Y00303D01*
X007646Y003039D01*
X007685Y003065D01*
X008835Y004215D01*
X008835Y004215D01*
X008861Y004254D01*
X00887Y0043D01*
X00887Y0043D01*
Y004566D01*
X008873Y004566D01*
X008934Y004627D01*
X008967Y004707D01*
Y004793D01*
X008934Y004873D01*
X008873Y004934D01*
X008793Y004967D01*
D02*
G37*
G36*
X013089Y005995D02*
X013011D01*
X012936Y005975D01*
X012869Y005936D01*
X012814Y005881D01*
X012775Y005814D01*
X012755Y005739D01*
Y005661D01*
X012775Y005586D01*
X012814Y005519D01*
X012829Y005503D01*
Y002802D01*
X012348Y002321D01*
X012284Y002338D01*
X012164D01*
X012049Y002307D01*
X011945Y002248D01*
X011861Y002163D01*
X011801Y00206D01*
X01177Y001944D01*
Y001825D01*
X011801Y00171D01*
X011861Y001606D01*
X011945Y001522D01*
X012049Y001462D01*
X012164Y001431D01*
X012284D01*
X012399Y001462D01*
X012503Y001522D01*
X012587Y001606D01*
X012647Y00171D01*
X012678Y001825D01*
Y001944D01*
X01266Y002009D01*
X013206Y002555D01*
X013254Y002626D01*
X013271Y002711D01*
Y005503D01*
X013286Y005519D01*
X013325Y005586D01*
X013345Y005661D01*
Y005739D01*
X013325Y005814D01*
X013286Y005881D01*
X013231Y005936D01*
X013164Y005975D01*
X013089Y005995D01*
D02*
G37*
G36*
X013017Y006901D02*
X012931D01*
X012851Y006868D01*
X01279Y006807D01*
X012757Y006728D01*
Y006642D01*
X01279Y006562D01*
X012851Y006501D01*
X012931Y006468D01*
X013017D01*
X013097Y006501D01*
X013158Y006562D01*
X013158Y006564D01*
X013674D01*
X016004Y004235D01*
Y002313D01*
X015746D01*
Y001557D01*
X016502D01*
Y002313D01*
X016244D01*
Y004285D01*
X016244Y004285D01*
X016235Y004331D01*
X016209Y00437D01*
X016209Y00437D01*
X013809Y00677D01*
X01377Y006796D01*
X013724Y006805D01*
X013724Y006805D01*
X013158D01*
X013158Y006807D01*
X013097Y006868D01*
X013017Y006901D01*
D02*
G37*
G36*
X014174Y002313D02*
X014074D01*
X013978Y002287D01*
X013892Y002237D01*
X013822Y002167D01*
X013772Y002081D01*
X013746Y001984D01*
Y001885D01*
X013772Y001789D01*
X013822Y001703D01*
X013892Y001632D01*
X013978Y001582D01*
X014074Y001557D01*
X014174D01*
X01427Y001582D01*
X014356Y001632D01*
X014426Y001703D01*
X014476Y001789D01*
X014502Y001885D01*
Y001984D01*
X014476Y002081D01*
X014426Y002167D01*
X014356Y002237D01*
X01427Y002287D01*
X014174Y002313D01*
D02*
G37*
G36*
X015217Y006401D02*
X015131D01*
X015051Y006368D01*
X01499Y006307D01*
X014957Y006228D01*
Y006142D01*
X01499Y006062D01*
X015051Y006001D01*
X015131Y005968D01*
X015217D01*
X015297Y006001D01*
X015358Y006062D01*
X015358Y006064D01*
X017224D01*
X020904Y002385D01*
Y002305D01*
X020646D01*
Y001549D01*
X021402D01*
Y002305D01*
X021144D01*
Y002435D01*
X021144Y002435D01*
X021135Y002481D01*
X021109Y00252D01*
X017359Y00627D01*
X01732Y006296D01*
X017274Y006305D01*
X017274Y006305D01*
X015358D01*
X015358Y006307D01*
X015297Y006368D01*
X015217Y006401D01*
D02*
G37*
G36*
X019074Y002305D02*
X018974D01*
X018878Y002279D01*
X018792Y00223D01*
X018722Y002159D01*
X018672Y002073D01*
X018646Y001977D01*
Y001877D01*
X018672Y001781D01*
X018722Y001695D01*
X018792Y001625D01*
X018878Y001575D01*
X018974Y001549D01*
X019074D01*
X01917Y001575D01*
X019256Y001625D01*
X019326Y001695D01*
X019376Y001781D01*
X019402Y001877D01*
Y001977D01*
X019376Y002073D01*
X019326Y002159D01*
X019256Y00223D01*
X01917Y002279D01*
X019074Y002305D01*
D02*
G37*
G36*
X002839Y002645D02*
X002761D01*
X002686Y002625D01*
X002619Y002586D01*
X002564Y002531D01*
X002525Y002464D01*
X002505Y002389D01*
Y002311D01*
X002525Y002236D01*
X002564Y002169D01*
X002619Y002114D01*
X002686Y002075D01*
X002761Y002055D01*
X002783D01*
X003109Y001729D01*
X003181Y001681D01*
X003265Y001664D01*
X009828D01*
X009861Y001606D01*
X009945Y001522D01*
X010049Y001462D01*
X010164Y001431D01*
X010284D01*
X010399Y001462D01*
X010503Y001522D01*
X010587Y001606D01*
X010647Y00171D01*
X010678Y001825D01*
Y001944D01*
X010647Y00206D01*
X010587Y002163D01*
X010503Y002248D01*
X010399Y002307D01*
X010284Y002338D01*
X010164D01*
X010049Y002307D01*
X009945Y002248D01*
X009861Y002163D01*
X009828Y002105D01*
X003357D01*
X003095Y002367D01*
Y002389D01*
X003075Y002464D01*
X003036Y002531D01*
X002981Y002586D01*
X002914Y002625D01*
X002839Y002645D01*
D02*
G37*
G36*
X015174Y002313D02*
X015074D01*
X014978Y002287D01*
X014892Y002237D01*
X014822Y002167D01*
X014772Y002081D01*
X014746Y001984D01*
Y001885D01*
X014772Y001789D01*
X014822Y001703D01*
X014892Y001632D01*
X014906Y001624D01*
Y001481D01*
X014923Y001397D01*
X014971Y001325D01*
X015618Y000679D01*
X015689Y000631D01*
X015774Y000614D01*
X019524D01*
X019608Y000631D01*
X01968Y000679D01*
X02018Y001179D01*
X020228Y00125D01*
X020245Y001335D01*
Y001618D01*
X020256Y001625D01*
X020326Y001695D01*
X020376Y001781D01*
X020402Y001877D01*
Y001977D01*
X020376Y002073D01*
X020326Y002159D01*
X020256Y00223D01*
X02017Y002279D01*
X020074Y002305D01*
X019974D01*
X019878Y002279D01*
X019792Y00223D01*
X019722Y002159D01*
X019672Y002073D01*
X019646Y001977D01*
Y001877D01*
X019672Y001781D01*
X019722Y001695D01*
X019792Y001625D01*
X019803Y001618D01*
Y001426D01*
X019433Y001055D01*
X015865D01*
X015348Y001573D01*
Y001628D01*
X015356Y001632D01*
X015426Y001703D01*
X015476Y001789D01*
X015502Y001885D01*
Y001984D01*
X015476Y002081D01*
X015426Y002167D01*
X015356Y002237D01*
X01527Y002287D01*
X015174Y002313D01*
D02*
G37*
%LPD*%
D14*
X00275Y0039D02*
X00715D01*
X00275Y00315D02*
X0076D01*
X00715Y0039D02*
X00895Y0057D01*
X0076Y00315D02*
X00875Y0043D01*
Y00475D01*
X00895Y0057D02*
Y0071D01*
X012974Y006685D02*
X013724D01*
X016124Y004285D01*
X005724Y014785D02*
X006989Y01605D01*
X009409D01*
X010674Y014785D01*
X009774Y011879D02*
X011803D01*
X012274Y01235D01*
Y013785D01*
X016124Y001935D02*
Y004285D01*
X015174Y006185D02*
X017274D01*
X021024Y002435D01*
Y001927D02*
Y002435D01*
X015974Y018585D02*
X016474Y019085D01*
Y019885D01*
D52*
X0028Y00235D02*
X003265Y001885D01*
X010224D01*
X012224D02*
X01305Y002711D01*
X013024Y007885D02*
Y008574D01*
X01305Y002711D02*
Y0057D01*
X013024Y008574D02*
X01395Y0095D01*
X014524Y010085D02*
X015124Y009485D01*
X006424Y017385D02*
X007124Y016685D01*
X010724D01*
X011124Y010435D02*
X011167D01*
X010724Y016685D02*
X011824Y017785D01*
X011167Y010435D02*
X011517Y010085D01*
X011824Y017785D02*
X014074D01*
X011517Y010085D02*
X014524D01*
X014074Y017785D02*
X014574Y017285D01*
X015124Y008535D02*
Y009485D01*
Y001935D02*
X015127Y001931D01*
Y001481D02*
Y001931D01*
Y001481D02*
X015774Y000835D01*
X015824Y012735D02*
X016974Y013885D01*
X015124Y008535D02*
X018074D01*
X015774Y000835D02*
X019524D01*
X016974Y013885D02*
X018663D01*
X018074Y008535D02*
X018824Y007785D01*
X018663Y013885D02*
X018824Y014046D01*
Y014685D01*
X019524Y000835D02*
X020024Y001335D01*
Y001927D01*
X014574Y017285D02*
X016574D01*
X015274Y018335D02*
X015874Y017735D01*
X016574Y015777D02*
Y017285D01*
Y015777D02*
X016724Y015627D01*
Y015585D02*
Y015627D01*
Y015585D02*
X017574Y014735D01*
X015874Y017735D02*
X018874D01*
X017574Y014735D02*
X018874D01*
X018824Y014685D02*
X018874Y014735D01*
D57*
X012224Y001885D02*
D03*
X011224Y003885D02*
D03*
X010224Y001885D02*
D03*
X018824Y007785D02*
D03*
X020824Y006785D02*
D03*
X018824Y005785D02*
D03*
D58*
X014124Y001935D02*
D03*
X015124D02*
D03*
X019024Y001927D02*
D03*
X020024D02*
D03*
D59*
X016124Y001935D02*
D03*
X021024Y001927D02*
D03*
D60*
X007924Y007087D02*
D03*
X015011D02*
D03*
D61*
X009874Y020835D02*
D03*
D62*
X010874D02*
D03*
X018874Y012135D02*
D03*
Y011135D02*
D03*
Y010135D02*
D03*
Y016735D02*
D03*
Y015735D02*
D03*
Y014735D02*
D03*
D63*
Y013135D02*
D03*
Y017735D02*
D03*
D64*
X0028Y00235D02*
D03*
X01305Y0057D02*
D03*
X013024Y007885D02*
D03*
X01395Y0095D02*
D03*
X014524Y010085D02*
D03*
X011124Y010435D02*
D03*
X010724Y016685D02*
D03*
X006424Y017385D02*
D03*
X014074Y017785D02*
D03*
X004674Y018485D02*
D03*
X015124Y008535D02*
D03*
X015824Y012735D02*
D03*
X016724Y015585D02*
D03*
X016574Y017285D02*
D03*
X015274Y018435D02*
D03*
D65*
X00275Y00315D02*
D03*
Y0039D02*
D03*
X00875Y00475D02*
D03*
X012974Y006685D02*
D03*
X00895Y0071D02*
D03*
X009774Y011879D02*
D03*
X012274Y013785D02*
D03*
X010674Y014785D02*
D03*
X005724D02*
D03*
X015174Y006185D02*
D03*
X015974Y018585D02*
D03*
X016474Y019885D02*
D03*
M02*
