G04*
G04 #@! TF.GenerationSoftware,Altium Limited,Altium Designer,21.3.2 (30)*
G04*
G04 Layer_Physical_Order=1*
G04 Layer_Color=255*
%FSTAX24Y24*%
%MOIN*%
G70*
G04*
G04 #@! TF.SameCoordinates,7CAEB1DE-A824-4D29-B8D0-2D7E757E666D*
G04*
G04*
G04 #@! TF.FilePolarity,Positive*
G04*
G01*
G75*
%ADD14C,0.0079*%
%ADD19R,0.0472X0.0315*%
%ADD20R,0.0394X0.0374*%
%ADD21R,0.0374X0.0394*%
%ADD22O,0.0118X0.0571*%
%ADD23O,0.0571X0.0118*%
%ADD24O,0.0571X0.0236*%
%ADD25R,0.0550X0.0500*%
G04:AMPARAMS|DCode=26|XSize=55.1mil|YSize=47.2mil|CornerRadius=5.9mil|HoleSize=0mil|Usage=FLASHONLY|Rotation=270.000|XOffset=0mil|YOffset=0mil|HoleType=Round|Shape=RoundedRectangle|*
%AMROUNDEDRECTD26*
21,1,0.0551,0.0354,0,0,270.0*
21,1,0.0433,0.0472,0,0,270.0*
1,1,0.0118,-0.0177,-0.0217*
1,1,0.0118,-0.0177,0.0217*
1,1,0.0118,0.0177,0.0217*
1,1,0.0118,0.0177,-0.0217*
%
%ADD26ROUNDEDRECTD26*%
%ADD27R,0.0480X0.0244*%
G04:AMPARAMS|DCode=28|XSize=33.9mil|YSize=16.5mil|CornerRadius=2.1mil|HoleSize=0mil|Usage=FLASHONLY|Rotation=0.000|XOffset=0mil|YOffset=0mil|HoleType=Round|Shape=RoundedRectangle|*
%AMROUNDEDRECTD28*
21,1,0.0339,0.0124,0,0,0.0*
21,1,0.0297,0.0165,0,0,0.0*
1,1,0.0041,0.0149,-0.0062*
1,1,0.0041,-0.0149,-0.0062*
1,1,0.0041,-0.0149,0.0062*
1,1,0.0041,0.0149,0.0062*
%
%ADD28ROUNDEDRECTD28*%
%ADD29R,0.0591X0.0394*%
%ADD51R,0.0591X0.0945*%
%ADD52C,0.0276*%
%ADD53C,0.0394*%
%ADD54C,0.0157*%
%ADD55C,0.0197*%
%ADD56C,0.0118*%
%ADD57C,0.0750*%
%ADD58C,0.0598*%
%ADD59R,0.0598X0.0598*%
%ADD60C,0.0315*%
%ADD61R,0.0630X0.0630*%
%ADD62C,0.0630*%
%ADD63R,0.0630X0.0630*%
%ADD64C,0.0433*%
%ADD65C,0.0276*%
G36*
X022704Y00013D02*
X00013D01*
Y021523D01*
X022704D01*
Y00013D01*
D02*
G37*
%LPC*%
G36*
X010244Y021315D02*
X010244Y021315D01*
X010244Y021315D01*
X010224Y021315D01*
X010224Y021315D01*
X009594D01*
X009563Y021309D01*
X009508Y021286D01*
X009482Y021269D01*
X00944Y021226D01*
X009423Y0212D01*
X0094Y021145D01*
X009394Y021114D01*
X009394Y021085D01*
Y019865D01*
X008753D01*
X008716Y019898D01*
X008716Y019915D01*
Y020135D01*
X008469D01*
Y019898D01*
X008526D01*
X008536Y019848D01*
X008508Y019836D01*
X008482Y019819D01*
X00844Y019776D01*
X008423Y01975D01*
X0084Y019695D01*
X008394Y019664D01*
Y019485D01*
Y018915D01*
X0084Y018884D01*
X0084Y018884D01*
X008415Y018847D01*
X008432Y018821D01*
X008461Y018793D01*
X008487Y018776D01*
X0085Y01877D01*
Y018634D01*
X00884D01*
Y018534D01*
X0085D01*
Y018362D01*
X008521D01*
Y018009D01*
X009159D01*
Y018075D01*
X009257D01*
X009311Y018085D01*
X009356Y018116D01*
X009445Y018204D01*
X009476Y01825D01*
X009486Y018304D01*
Y018754D01*
X009569D01*
X009596Y018704D01*
X009587Y018686D01*
X009587Y018663D01*
Y018439D01*
X010161D01*
X010161Y018686D01*
X010152Y018704D01*
X010179Y018754D01*
X010419D01*
X010446Y018704D01*
X010437Y018686D01*
X010437Y018663D01*
Y018439D01*
X011011D01*
X011011Y018686D01*
X011002Y018704D01*
X011029Y018754D01*
X011206D01*
X011219Y018757D01*
X011232Y018759D01*
X011234Y01876D01*
X011237Y01876D01*
X011248Y018768D01*
X011259Y018774D01*
X011275Y018788D01*
X01128Y018795D01*
X011287Y018801D01*
X011312Y018835D01*
X011316Y018843D01*
X011321Y01885D01*
X011338Y018889D01*
X01134Y018897D01*
X011343Y018905D01*
X011352Y018946D01*
X011353Y018955D01*
X011354Y018963D01*
X011354Y018985D01*
X011354Y018985D01*
X011354Y019785D01*
X011354Y019814D01*
X011348Y019845D01*
X011348Y019845D01*
X011348Y019845D01*
X011325Y0199D01*
X011325Y0199D01*
X011315Y019916D01*
X011308Y019926D01*
X011308Y019926D01*
X011308Y019926D01*
X011266Y019969D01*
X011266Y019969D01*
X011249Y019979D01*
X01124Y019986D01*
X011185Y020009D01*
X011185Y020009D01*
X011185Y020009D01*
X011168Y020012D01*
X011154Y020015D01*
X011154Y020015D01*
X011154Y020015D01*
X011124Y020015D01*
X011124Y020015D01*
X010404D01*
X010404Y021135D01*
X010404Y021155D01*
X010404Y021155D01*
X010404Y021155D01*
X010401Y02117D01*
X010398Y021185D01*
X010398Y021185D01*
X010398Y021185D01*
X010383Y021222D01*
X010383Y021222D01*
X010383Y021222D01*
X010372Y021238D01*
X010366Y021248D01*
X010366Y021248D01*
X010366Y021248D01*
X010337Y021276D01*
X010337Y021276D01*
X010311Y021294D01*
X010311Y021294D01*
X010275Y021309D01*
X010275Y021309D01*
X010275Y021309D01*
X01026Y021312D01*
X010244Y021315D01*
D02*
G37*
G36*
X010929Y02125D02*
X010924D01*
Y020885D01*
X011289D01*
Y020889D01*
X011261Y020995D01*
X011206Y021089D01*
X011129Y021167D01*
X011034Y021221D01*
X010929Y02125D01*
D02*
G37*
G36*
X010824D02*
X010819D01*
X010714Y021221D01*
X010619Y021167D01*
X010542Y021089D01*
X010487Y020995D01*
X010459Y020889D01*
Y020885D01*
X010824D01*
Y02125D01*
D02*
G37*
G36*
X011289Y020785D02*
X010924D01*
Y02042D01*
X010929D01*
X011034Y020448D01*
X011129Y020503D01*
X011206Y02058D01*
X011261Y020674D01*
X011289Y02078D01*
Y020785D01*
D02*
G37*
G36*
X010824D02*
X010459D01*
Y02078D01*
X010487Y020674D01*
X010542Y02058D01*
X010619Y020503D01*
X010714Y020448D01*
X010819Y02042D01*
X010824D01*
Y020785D01*
D02*
G37*
G36*
X008469Y020472D02*
Y020235D01*
X008716D01*
Y020472D01*
X008469D01*
D02*
G37*
G36*
X008122Y020472D02*
X008081Y02045D01*
X008072Y02045D01*
X007553D01*
Y019919D01*
X007688D01*
Y01916D01*
X007489D01*
Y018759D01*
X008127D01*
Y01916D01*
X007929D01*
Y019919D01*
X008081Y019919D01*
X008122Y019898D01*
X008145Y019898D01*
X008369D01*
Y020185D01*
Y020472D01*
X008122Y020472D01*
D02*
G37*
G36*
X01434Y020156D02*
X013808D01*
Y019995D01*
X013769Y019987D01*
X01373Y019961D01*
X01373Y019961D01*
X013339Y01957D01*
X013313Y019531D01*
X013304Y019485D01*
X013304Y019485D01*
Y017635D01*
X012941Y017272D01*
X012894Y017291D01*
Y017719D01*
X013045D01*
Y01825D01*
X012517Y01825D01*
X012476Y018272D01*
X012452Y018272D01*
X012229D01*
Y017985D01*
Y017698D01*
X012476Y017698D01*
X012517Y017719D01*
X012654Y017719D01*
Y015948D01*
X012604Y015911D01*
X012582Y015915D01*
X012528Y015904D01*
X012483Y015874D01*
X012439Y015904D01*
X012385Y015915D01*
X012331Y015904D01*
X012305Y015886D01*
X012303Y015889D01*
X01225Y015924D01*
X012238Y015927D01*
Y015548D01*
Y015169D01*
X01225Y015172D01*
X012303Y015207D01*
X012305Y01521D01*
X012331Y015192D01*
X012385Y015181D01*
X012439Y015192D01*
X012483Y015222D01*
X012528Y015192D01*
X012582Y015181D01*
X012636Y015192D01*
X01268Y015222D01*
X012725Y015192D01*
X012779Y015181D01*
X012832Y015192D01*
X012877Y015222D01*
X012922Y015192D01*
X012976Y015181D01*
X013029Y015192D01*
X013074Y015222D01*
X013119Y015192D01*
X013172Y015181D01*
X013226Y015192D01*
X013271Y015222D01*
X013315Y015192D01*
X013369Y015181D01*
X013423Y015192D01*
X013468Y015222D01*
X013512Y015192D01*
X013566Y015181D01*
X01362Y015192D01*
X013665Y015222D01*
X013709Y015192D01*
X013763Y015181D01*
X013817Y015192D01*
X013861Y015222D01*
X013906Y015192D01*
X01396Y015181D01*
X014014Y015192D01*
X014058Y015222D01*
X014103Y015192D01*
X014157Y015181D01*
X01421Y015192D01*
X014256Y015222D01*
X014286Y015268D01*
X014297Y015322D01*
Y015774D01*
X014286Y015828D01*
X014277Y015842D01*
Y016217D01*
X014674Y016614D01*
X018499D01*
X018507Y016583D01*
X018559Y016493D01*
X018632Y01642D01*
X018722Y016368D01*
X018822Y016341D01*
X018926D01*
X019026Y016368D01*
X019116Y01642D01*
X019189Y016493D01*
X019241Y016583D01*
X019268Y016683D01*
Y016786D01*
X019241Y016887D01*
X019189Y016976D01*
X019116Y01705D01*
X019026Y017102D01*
X018926Y017128D01*
X018822D01*
X018722Y017102D01*
X018632Y01705D01*
X018559Y016976D01*
X018507Y016887D01*
X018499Y016855D01*
X014624D01*
X014624Y016855D01*
X014578Y016846D01*
X014539Y01682D01*
X014539Y01682D01*
X014072Y016352D01*
X014045Y016313D01*
X014036Y016267D01*
X014036Y016267D01*
Y015945D01*
X013986Y01591D01*
X01396Y015915D01*
X013906Y015904D01*
X013861Y015874D01*
X013817Y015904D01*
X013763Y015915D01*
X013709Y015904D01*
X013665Y015874D01*
X01362Y015904D01*
X013566Y015915D01*
X013512Y015904D01*
X013468Y015874D01*
X013423Y015904D01*
X013369Y015915D01*
X013344Y01591D01*
X013294Y015946D01*
Y016985D01*
X013524Y017214D01*
X015624D01*
X015624Y017214D01*
X01567Y017223D01*
X015709Y017249D01*
X016064Y017604D01*
X016064Y017604D01*
X01609Y017643D01*
X016099Y017689D01*
Y017769D01*
X016254D01*
Y017769D01*
X016294D01*
Y017769D01*
X016433D01*
Y017544D01*
X016393Y017521D01*
X016338Y017466D01*
X016299Y017399D01*
X016279Y017324D01*
Y017246D01*
X016299Y017171D01*
X016338Y017103D01*
X016393Y017048D01*
X01646Y017009D01*
X016535Y016989D01*
X016613D01*
X016688Y017009D01*
X016755Y017048D01*
X01681Y017103D01*
X016849Y017171D01*
X016869Y017246D01*
Y017324D01*
X016849Y017399D01*
X01681Y017466D01*
X016755Y017521D01*
X016714Y017544D01*
Y017769D01*
X016845D01*
Y0183D01*
X01671D01*
Y019289D01*
X016699Y019343D01*
X016669Y019389D01*
X016473Y019584D01*
X016428Y019614D01*
X016374Y019625D01*
X016184D01*
X016161Y01964D01*
X016123Y019648D01*
X015837D01*
X015812Y019681D01*
X015837Y019715D01*
X016123D01*
X016161Y019723D01*
X016194Y019745D01*
X016205Y019761D01*
X016291D01*
X016351Y019701D01*
X016431Y019668D01*
X016517D01*
X016597Y019701D01*
X016658Y019762D01*
X016691Y019842D01*
Y019928D01*
X016658Y020007D01*
X016597Y020068D01*
X016517Y020101D01*
X016431D01*
X016351Y020068D01*
X01629Y020007D01*
X016288Y020002D01*
X016201D01*
X016194Y020012D01*
X016161Y020034D01*
X016123Y020042D01*
X015831D01*
X015825Y020042D01*
X015783Y020036D01*
X015783Y020036D01*
X015035D01*
X015035Y020036D01*
X014993Y020042D01*
X014695D01*
X014657Y020034D01*
X014624Y020012D01*
X014615Y019999D01*
X01434D01*
Y020156D01*
D02*
G37*
G36*
X006778Y019413D02*
X00607D01*
Y0192D01*
X00569D01*
Y019356D01*
X005158D01*
X005158Y018827D01*
X005137Y018786D01*
X005137Y018763D01*
Y018539D01*
X005711D01*
X005711Y018786D01*
X00569Y018827D01*
X00569Y018959D01*
X00607D01*
Y018756D01*
X006778D01*
Y019413D01*
D02*
G37*
G36*
X008104Y018615D02*
X008074Y018615D01*
X006324Y018615D01*
X006324Y018615D01*
X006292Y018615D01*
X006284Y018613D01*
X006276D01*
X006213Y018601D01*
X006206Y018598D01*
X006198Y018596D01*
X006138Y018572D01*
X006132Y018567D01*
X006125Y018564D01*
X006071Y018528D01*
X006065Y018523D01*
X006059Y018518D01*
X006013Y018473D01*
X006009Y018466D01*
X006003Y018461D01*
X005968Y018407D01*
X005964Y0184D01*
X00596Y018393D01*
X005935Y018334D01*
X005934Y018326D01*
X005931Y018319D01*
X005918Y018256D01*
Y018248D01*
X005917Y01824D01*
X005917Y018212D01*
X005916Y018203D01*
X005908Y018185D01*
X005897Y018173D01*
X005878Y018166D01*
X00587Y018165D01*
X00575D01*
X005711Y018193D01*
X005711Y018215D01*
Y018439D01*
X005137D01*
Y018215D01*
X005137Y018193D01*
X005098Y018165D01*
X004853D01*
X00484Y018215D01*
X004868Y018231D01*
X004927Y01829D01*
X004969Y018362D01*
X004988Y018435D01*
X00436D01*
X004379Y018362D01*
X004421Y01829D01*
X00448Y018231D01*
X004508Y018215D01*
X004495Y018165D01*
X003124D01*
X003124Y018165D01*
X003082Y018165D01*
X003074Y018163D01*
X003066D01*
X002984Y018147D01*
X002977Y018144D01*
X002969Y018142D01*
X002892Y01811D01*
X002885Y018106D01*
X002878Y018103D01*
X002808Y018057D01*
X002803Y018051D01*
X002796Y018047D01*
X002737Y017987D01*
X002733Y017981D01*
X002727Y017975D01*
X002681Y017906D01*
X002678Y017898D01*
X002673Y017892D01*
X002641Y017814D01*
X00264Y017807D01*
X002637Y017799D01*
X00262Y017717D01*
Y017709D01*
X002619Y017701D01*
Y01766D01*
Y014181D01*
X000494Y012056D01*
X000446Y011984D01*
X000429Y0119D01*
Y002621D01*
X000384D01*
X000384Y002093D01*
X000363Y002052D01*
X000363Y002028D01*
Y001805D01*
X000937D01*
X000937Y002052D01*
X000924Y002077D01*
X000945Y002122D01*
X00095Y002127D01*
X001327D01*
Y002074D01*
X002075D01*
Y002129D01*
X002603D01*
X002619Y002114D01*
X002686Y002075D01*
X002761Y002055D01*
X002839D01*
X002914Y002075D01*
X002981Y002114D01*
X003036Y002169D01*
X003075Y002236D01*
X003095Y002311D01*
Y002389D01*
X003075Y002464D01*
X003036Y002531D01*
X002981Y002586D01*
X002914Y002625D01*
X002839Y002645D01*
X002761D01*
X002686Y002625D01*
X002619Y002586D01*
X002603Y002571D01*
X002075D01*
Y002626D01*
X001327D01*
Y002568D01*
X000916D01*
Y002621D01*
X000871D01*
Y011809D01*
X002572Y01351D01*
X002619Y013491D01*
Y01341D01*
X002619Y013375D01*
X00262Y013367D01*
Y01336D01*
X002634Y013292D01*
X002637Y013285D01*
X002638Y013277D01*
X002665Y013213D01*
X002669Y013207D01*
X002672Y013199D01*
X00271Y013142D01*
X002716Y013136D01*
X00272Y01313D01*
X002769Y013081D01*
X002776Y013077D01*
X002781Y013071D01*
X002839Y013033D01*
X002846Y01303D01*
X002852Y013025D01*
X002916Y012999D01*
X002924Y012997D01*
X002931Y012994D01*
X002999Y012981D01*
X003007D01*
X003015Y012979D01*
X003774Y012979D01*
X004199Y012979D01*
X004233Y012979D01*
X004241Y012981D01*
X004249D01*
X004317Y012994D01*
X004324Y012997D01*
X004332Y012999D01*
X004396Y013025D01*
X004402Y01303D01*
X00441Y013033D01*
X004467Y013071D01*
X004473Y013077D01*
X004479Y013081D01*
X004528Y01313D01*
X004533Y013137D01*
X004538Y013142D01*
X004577Y0132D01*
X00458Y013207D01*
X004584Y013214D01*
X00461Y013277D01*
X004612Y013285D01*
X004615Y013292D01*
X004628Y01336D01*
Y013368D01*
X00463Y013376D01*
X00463Y01341D01*
X00463Y014135D01*
Y014609D01*
X00463Y014609D01*
Y014639D01*
X004628Y014646D01*
Y014654D01*
X004617Y014713D01*
X004614Y01472D01*
X004612Y014728D01*
X00459Y014782D01*
X004585Y014789D01*
X004582Y014796D01*
X004578Y014803D01*
Y014813D01*
X004571D01*
X004549Y014846D01*
X004544Y014851D01*
X004539Y014858D01*
X004497Y0149D01*
X004491Y014904D01*
X004485Y01491D01*
X004436Y014943D01*
X004428Y014946D01*
X004422Y01495D01*
X004367Y014973D01*
X004359Y014975D01*
X004352Y014978D01*
X004294Y014989D01*
X004286D01*
X004278Y014991D01*
X003778D01*
X003745Y014994D01*
X003681Y015021D01*
X003634Y015067D01*
X003608Y015131D01*
X003604Y015164D01*
Y015731D01*
X003607Y015754D01*
X003626Y015801D01*
X003659Y015834D01*
X003706Y015854D01*
X003729Y015856D01*
X007753Y015856D01*
Y015369D01*
X007919D01*
Y015225D01*
X007862D01*
X007808Y015214D01*
X007763Y015184D01*
X007732Y015138D01*
X007722Y015084D01*
Y014651D01*
X007732Y014597D01*
X007763Y014552D01*
X007808Y014521D01*
X007862Y014511D01*
X008187D01*
X008278Y014419D01*
X008254Y014373D01*
X008216Y01438D01*
X008089D01*
Y014002D01*
Y013623D01*
X008216D01*
X008279Y013635D01*
X008331Y01367D01*
X008359Y013711D01*
X008402Y013715D01*
X008415Y013712D01*
X008432Y013686D01*
X008478Y013655D01*
X008531Y013645D01*
X008588D01*
Y01345D01*
X008467Y01345D01*
X008426Y013472D01*
X008402Y013472D01*
X008179D01*
Y013185D01*
Y012898D01*
X008426Y012898D01*
X008467Y012919D01*
X008476Y012919D01*
X008995D01*
Y01345D01*
X008829D01*
Y013645D01*
X008886D01*
X00894Y013655D01*
X008985Y013686D01*
X009016Y013731D01*
X009026Y013785D01*
Y013881D01*
X009091D01*
X009091Y013881D01*
X009137Y01389D01*
X009176Y013916D01*
X009258Y013999D01*
X009308Y013978D01*
Y013864D01*
X009406D01*
X009437Y013827D01*
X009437Y013814D01*
Y01358D01*
X009724D01*
Y01348D01*
X009437D01*
X009437Y013233D01*
X009458Y013192D01*
X009458Y013183D01*
Y012664D01*
X00999D01*
Y012719D01*
X010108D01*
Y012664D01*
X010151D01*
Y011636D01*
X010118Y011603D01*
X010101Y0116D01*
X010054Y0116D01*
X010044Y0116D01*
X009894D01*
Y011694D01*
X009897Y011695D01*
X009958Y011756D01*
X009991Y011836D01*
Y011922D01*
X009958Y012001D01*
X009897Y012062D01*
X009817Y012095D01*
X009731D01*
X009651Y012062D01*
X00959Y012001D01*
X009557Y011922D01*
Y011836D01*
X00959Y011756D01*
X009651Y011695D01*
X009654Y011694D01*
Y0116D01*
X009503D01*
Y011455D01*
X009295D01*
Y0116D01*
X008767Y0116D01*
X008726Y011622D01*
X008702Y011622D01*
X008479D01*
Y011335D01*
Y011048D01*
X008726Y011048D01*
X008767Y011069D01*
X008776Y011069D01*
X009295D01*
Y011214D01*
X009503D01*
Y011069D01*
X009658D01*
Y010021D01*
X009487D01*
Y009548D01*
X010117D01*
Y010021D01*
X009899D01*
Y011069D01*
X010044D01*
X010054Y011069D01*
X010094D01*
X010101Y011069D01*
X010151Y011061D01*
Y010734D01*
X010168Y01065D01*
X010216Y010578D01*
X010485Y010309D01*
X010557Y010261D01*
X010641Y010244D01*
X010897D01*
X010943Y010198D01*
X01101Y010159D01*
X011085Y010139D01*
X011163D01*
X011238Y010159D01*
X011305Y010198D01*
X01136Y010253D01*
X011399Y010321D01*
X011419Y010396D01*
Y010474D01*
X011399Y010549D01*
X01136Y010616D01*
X011305Y010671D01*
X011238Y01071D01*
X011163Y01073D01*
X011085D01*
X01101Y01071D01*
X010968Y010686D01*
X010733D01*
X010592Y010826D01*
Y011069D01*
X010645D01*
Y0116D01*
X010592D01*
Y012664D01*
X01064D01*
Y012797D01*
X010678Y012805D01*
X010723Y012835D01*
X010993Y013105D01*
X011049Y013095D01*
X011063Y013065D01*
X011054Y013053D01*
X011044Y012999D01*
X011054Y012945D01*
X011084Y0129D01*
X011054Y012856D01*
X011044Y012802D01*
X011054Y012748D01*
X011085Y012703D01*
X01113Y012672D01*
X011184Y012661D01*
X011637D01*
X011691Y012672D01*
X011736Y012703D01*
X011767Y012748D01*
X011777Y012802D01*
X011767Y012856D01*
X011737Y0129D01*
X011767Y012945D01*
X011777Y012999D01*
X011767Y013053D01*
X011737Y013097D01*
X011767Y013142D01*
X011777Y013196D01*
X011767Y013249D01*
X011737Y013294D01*
X011767Y013339D01*
X011777Y013393D01*
X011767Y013446D01*
X011749Y013473D01*
X011752Y013475D01*
X011787Y013527D01*
X011789Y013539D01*
X011411D01*
Y013639D01*
X011813D01*
X011833Y013665D01*
X012089D01*
X01209Y013662D01*
X012151Y013601D01*
X012231Y013568D01*
X012317D01*
X012397Y013601D01*
X012458Y013662D01*
X012491Y013742D01*
Y013828D01*
X012458Y013907D01*
X012397Y013968D01*
X012317Y014001D01*
X012231D01*
X012151Y013968D01*
X01209Y013907D01*
X01209Y013906D01*
X011807D01*
X011772Y013956D01*
X011777Y013983D01*
X011767Y014037D01*
X011737Y014081D01*
X011767Y014126D01*
X011777Y01418D01*
X011767Y014234D01*
X011737Y014278D01*
X011767Y014323D01*
X011777Y014377D01*
X011767Y014431D01*
X011737Y014475D01*
X011767Y01452D01*
X011777Y014574D01*
X011767Y014627D01*
X011737Y014672D01*
X011767Y014717D01*
X011777Y01477D01*
X011767Y014824D01*
X011737Y014869D01*
X011767Y014914D01*
X011777Y014967D01*
X011767Y015021D01*
X011736Y015067D01*
X011691Y015097D01*
X011637Y015108D01*
X011184D01*
X01113Y015097D01*
X011085Y015067D01*
X011054Y015021D01*
X011044Y014967D01*
X011048Y014948D01*
X011009Y014898D01*
X010861D01*
X010858Y014907D01*
X010797Y014968D01*
X010717Y015001D01*
X010631D01*
X010551Y014968D01*
X01049Y014907D01*
X010457Y014828D01*
Y014742D01*
X01049Y014662D01*
X010551Y014601D01*
X010631Y014568D01*
X010717D01*
X010797Y014601D01*
X010853Y014657D01*
X011019D01*
X01105Y014607D01*
X011044Y014574D01*
X011054Y01452D01*
X011084Y014475D01*
X011054Y014431D01*
X011044Y014377D01*
X011049Y01435D01*
X011014Y0143D01*
X010229D01*
X009871Y014658D01*
X00984Y014679D01*
Y015006D01*
X009308D01*
Y014805D01*
X00917D01*
X00917Y014805D01*
X009124Y014796D01*
X009098Y014779D01*
X009054Y014796D01*
X009048Y014801D01*
Y014818D01*
X008709D01*
Y014868D01*
X008659D01*
Y015246D01*
X008531D01*
X008469Y015234D01*
X008417Y015199D01*
X008389Y015158D01*
X008346Y015154D01*
X008333Y015157D01*
X008316Y015184D01*
X00827Y015214D01*
X008216Y015225D01*
X00816D01*
Y015369D01*
X008281Y015369D01*
X008322Y015348D01*
X008345Y015348D01*
X008569D01*
Y015635D01*
Y015922D01*
X008369D01*
X008348Y015972D01*
X008364Y015988D01*
X008368Y015994D01*
X008374Y016D01*
X008407Y016049D01*
X00841Y016056D01*
X008414Y016063D01*
X008437Y016117D01*
X008438Y016125D01*
X008441Y016132D01*
X008453Y01619D01*
Y016197D01*
X008453Y016198D01*
X008669D01*
Y016485D01*
Y016772D01*
X008454D01*
Y016998D01*
X008669D01*
Y017285D01*
Y017572D01*
X008454D01*
Y018235D01*
X008454Y018235D01*
X008454Y018264D01*
X008453Y018272D01*
X008453Y01828D01*
X008441Y018338D01*
X008438Y018345D01*
X008437Y018353D01*
X008414Y018407D01*
X00841Y018414D01*
X008407Y018421D01*
X008374Y01847D01*
X008368Y018476D01*
X008364Y018483D01*
X008322Y018524D01*
X008315Y018529D01*
X00831Y018534D01*
X008261Y018567D01*
X008253Y01857D01*
X008247Y018575D01*
X008192Y018597D01*
X008184Y018599D01*
X008177Y018602D01*
X008119Y018613D01*
X008111D01*
X008104Y018615D01*
D02*
G37*
G36*
X004724Y018799D02*
Y018535D01*
X004988D01*
X004969Y018607D01*
X004927Y018679D01*
X004868Y018738D01*
X004796Y01878D01*
X004724Y018799D01*
D02*
G37*
G36*
X004624D02*
X004552Y01878D01*
X00448Y018738D01*
X004421Y018679D01*
X004379Y018607D01*
X00436Y018535D01*
X004624D01*
Y018799D01*
D02*
G37*
G36*
X011011Y018339D02*
X010774D01*
Y018093D01*
X011011D01*
Y018339D01*
D02*
G37*
G36*
X010674D02*
X010437D01*
Y018093D01*
X010674D01*
Y018339D01*
D02*
G37*
G36*
X010161D02*
X009924D01*
Y018093D01*
X010161D01*
Y018339D01*
D02*
G37*
G36*
X009824D02*
X009587D01*
Y018093D01*
X009824D01*
Y018339D01*
D02*
G37*
G36*
X012129Y018272D02*
X011882D01*
Y018035D01*
X012129D01*
Y018272D01*
D02*
G37*
G36*
X019289Y01815D02*
X018924D01*
Y017785D01*
X019289D01*
Y01815D01*
D02*
G37*
G36*
X018824D02*
X018459D01*
Y017785D01*
X018824D01*
Y01815D01*
D02*
G37*
G36*
X012129Y017935D02*
X011882D01*
Y017698D01*
X012129D01*
Y017935D01*
D02*
G37*
G36*
X009016Y017572D02*
X008769D01*
Y017335D01*
X009016D01*
Y017572D01*
D02*
G37*
G36*
X019289Y017685D02*
X018924D01*
Y01732D01*
X019289D01*
Y017685D01*
D02*
G37*
G36*
X018824D02*
X018459D01*
Y01732D01*
X018824D01*
Y017685D01*
D02*
G37*
G36*
X009016Y017235D02*
X008769D01*
Y016998D01*
X009016D01*
Y017235D01*
D02*
G37*
G36*
X012219Y016972D02*
Y016735D01*
X012466D01*
Y016972D01*
X012219D01*
D02*
G37*
G36*
X009016Y016772D02*
X008769D01*
Y016535D01*
X009016D01*
Y016772D01*
D02*
G37*
G36*
X012466Y016635D02*
X012219D01*
Y016398D01*
X012466D01*
Y016635D01*
D02*
G37*
G36*
X010763Y01698D02*
X010685D01*
X01061Y01696D01*
X010543Y016921D01*
X010488Y016866D01*
X010449Y016799D01*
X010429Y016724D01*
Y016646D01*
X010449Y016571D01*
X010488Y016503D01*
X010543Y016448D01*
X01061Y016409D01*
X010685Y016389D01*
X010763D01*
X010838Y016409D01*
X010905Y016448D01*
X010921Y016464D01*
X011303D01*
Y016419D01*
X011438D01*
Y01628D01*
X011449Y016226D01*
X011479Y016181D01*
X011851Y015809D01*
Y015322D01*
X011861Y015268D01*
X011892Y015222D01*
X011938Y015192D01*
X011991Y015181D01*
X012045Y015192D01*
X012072Y01521D01*
X012073Y015207D01*
X012126Y015172D01*
X012138Y015169D01*
Y015548D01*
Y015927D01*
X012126Y015924D01*
X012093Y015963D01*
X012091Y015967D01*
X011719Y016338D01*
Y016419D01*
X011831Y016419D01*
X011872Y016398D01*
X011895Y016398D01*
X012119D01*
Y016685D01*
Y016972D01*
X011872Y016972D01*
X011831Y01695D01*
X011822Y01695D01*
X011303D01*
Y016905D01*
X010921D01*
X010905Y016921D01*
X010838Y01696D01*
X010763Y01698D01*
D02*
G37*
G36*
X020311Y016477D02*
X020074D01*
Y01623D01*
X020311D01*
Y016477D01*
D02*
G37*
G36*
X019974D02*
X019737D01*
Y01623D01*
X019974D01*
Y016477D01*
D02*
G37*
G36*
X009016Y016435D02*
X008769D01*
Y016198D01*
X009016D01*
Y016435D01*
D02*
G37*
G36*
X018926Y016128D02*
X018822D01*
X018722Y016102D01*
X018632Y01605D01*
X018559Y015976D01*
X018507Y015887D01*
X018489Y015818D01*
X017887D01*
X017887Y015818D01*
X017841Y015809D01*
X017802Y015783D01*
X016713Y014694D01*
X016261D01*
Y014889D01*
X015687D01*
Y014694D01*
X01516D01*
X015139Y01472D01*
X014737D01*
X014359D01*
X014361Y014708D01*
X014396Y014656D01*
X014399Y014654D01*
X014381Y014627D01*
X01437Y014574D01*
X014381Y01452D01*
X014411Y014475D01*
X014381Y014431D01*
X01437Y014377D01*
X014381Y014323D01*
X014411Y014278D01*
X014381Y014234D01*
X01437Y01418D01*
X014381Y014126D01*
X014411Y014081D01*
X014381Y014037D01*
X01437Y013983D01*
X014381Y013929D01*
X014411Y013885D01*
X014381Y01384D01*
X01437Y013786D01*
X014381Y013732D01*
X014411Y013688D01*
X014381Y013643D01*
X01437Y013589D01*
X014381Y013536D01*
X014411Y013491D01*
X014381Y013446D01*
X01437Y013393D01*
X014381Y013339D01*
X014411Y013294D01*
X014381Y013249D01*
X01437Y013196D01*
X014381Y013142D01*
X014411Y013097D01*
X014381Y013053D01*
X01437Y012999D01*
X014381Y012945D01*
X014411Y0129D01*
X014381Y012856D01*
X01437Y012802D01*
X014381Y012748D01*
X014412Y012703D01*
X014457Y012672D01*
X014511Y012661D01*
X014964D01*
X015017Y012672D01*
X015063Y012703D01*
X015094Y012748D01*
X015104Y012802D01*
X015094Y012856D01*
X015064Y0129D01*
X015094Y012945D01*
X015104Y012999D01*
X015094Y013053D01*
X015064Y013097D01*
X015094Y013142D01*
X015104Y013196D01*
X015094Y013249D01*
X015064Y013294D01*
X015094Y013339D01*
X015104Y013393D01*
X015094Y013446D01*
X015064Y013491D01*
X015094Y013536D01*
X015104Y013589D01*
X0151Y013608D01*
X015139Y013658D01*
X01583D01*
X018254Y011235D01*
Y010635D01*
X018254Y010635D01*
X018263Y010589D01*
X018289Y010549D01*
X018523Y010315D01*
X018507Y010287D01*
X01848Y010186D01*
Y010083D01*
X018507Y009983D01*
X018559Y009893D01*
X018632Y00982D01*
X018722Y009768D01*
X018822Y009741D01*
X018926D01*
X019026Y009768D01*
X019116Y00982D01*
X019189Y009893D01*
X019241Y009983D01*
X019268Y010083D01*
Y010186D01*
X019241Y010287D01*
X019189Y010376D01*
X019116Y01045D01*
X019026Y010502D01*
X018926Y010528D01*
X018822D01*
X018722Y010502D01*
X018694Y010485D01*
X018494Y010685D01*
Y010905D01*
X018544Y010918D01*
X018559Y010893D01*
X018632Y01082D01*
X018722Y010768D01*
X018822Y010741D01*
X018926D01*
X019026Y010768D01*
X019116Y01082D01*
X019189Y010893D01*
X019241Y010983D01*
X019268Y011083D01*
Y011186D01*
X019241Y011287D01*
X019189Y011376D01*
X019116Y01145D01*
X019026Y011502D01*
X018926Y011528D01*
X018822D01*
X018722Y011502D01*
X018694Y011485D01*
X016111Y014068D01*
X016072Y014094D01*
X016026Y014103D01*
X016026Y014103D01*
X015134D01*
X015099Y014153D01*
X015104Y01418D01*
X015094Y014234D01*
X015064Y014278D01*
X015094Y014323D01*
X015104Y014377D01*
X015099Y014403D01*
X015134Y014453D01*
X016763D01*
X016763Y014453D01*
X016809Y014462D01*
X016848Y014488D01*
X017937Y015577D01*
X01851D01*
X018559Y015493D01*
X018632Y01542D01*
X018722Y015368D01*
X018822Y015341D01*
X018926D01*
X019026Y015368D01*
X019116Y01542D01*
X019189Y015493D01*
X019241Y015583D01*
X019268Y015683D01*
Y015786D01*
X019241Y015887D01*
X019189Y015976D01*
X019116Y01605D01*
X019026Y016102D01*
X018926Y016128D01*
D02*
G37*
G36*
X016763Y01588D02*
X016685D01*
X01661Y01586D01*
X016543Y015821D01*
X016488Y015766D01*
X016479Y015751D01*
X01624D01*
Y015806D01*
X015708D01*
Y015675D01*
X015074D01*
X01502Y015664D01*
X014975Y015634D01*
X01466Y015319D01*
X014629Y015273D01*
X014618Y01522D01*
Y015108D01*
X014511D01*
X014457Y015097D01*
X014412Y015067D01*
X014381Y015021D01*
X01437Y014967D01*
X014381Y014914D01*
X014399Y014887D01*
X014396Y014885D01*
X014361Y014833D01*
X014359Y01482D01*
X014737D01*
X015116D01*
X015114Y014833D01*
X015078Y014885D01*
X015076Y014887D01*
X015094Y014914D01*
X015104Y014967D01*
X015094Y015021D01*
X015063Y015067D01*
X015017Y015097D01*
X014964Y015108D01*
X014899D01*
Y015161D01*
X015132Y015394D01*
X015708D01*
Y015277D01*
X015687Y015236D01*
X015687Y015236D01*
Y014989D01*
X016261D01*
Y015236D01*
X016261D01*
X01624Y015254D01*
Y015309D01*
X016611D01*
X016685Y015289D01*
X016763D01*
X016838Y015309D01*
X016905Y015348D01*
X01696Y015403D01*
X016999Y015471D01*
X017019Y015546D01*
Y015624D01*
X016999Y015699D01*
X01696Y015766D01*
X016905Y015821D01*
X016838Y01586D01*
X016763Y01588D01*
D02*
G37*
G36*
X008916Y015922D02*
X008669D01*
Y015685D01*
X008916D01*
Y015922D01*
D02*
G37*
G36*
Y015585D02*
X008669D01*
Y015348D01*
X008916D01*
Y015585D01*
D02*
G37*
G36*
X020311Y01613D02*
X020024D01*
X019737D01*
X019737Y015883D01*
X019758Y015842D01*
X019758Y015833D01*
Y015314D01*
X019803D01*
Y015226D01*
X019533Y014955D01*
X019201D01*
X019189Y014976D01*
X019116Y01505D01*
X019026Y015102D01*
X018926Y015128D01*
X018822D01*
X018722Y015102D01*
X018632Y01505D01*
X018559Y014976D01*
X018507Y014887D01*
X01848Y014786D01*
Y014683D01*
X018507Y014583D01*
X018559Y014493D01*
X018632Y01442D01*
X018722Y014368D01*
X018822Y014341D01*
X018926D01*
X019026Y014368D01*
X019116Y01442D01*
X019189Y014493D01*
X019201Y014514D01*
X019624D01*
X019708Y014531D01*
X01978Y014579D01*
X02018Y014979D01*
X020228Y01505D01*
X020245Y015135D01*
Y015314D01*
X02029D01*
X02029Y015842D01*
X020311Y015883D01*
X020311Y015906D01*
Y01613D01*
D02*
G37*
G36*
X008886Y015246D02*
X008759D01*
Y014918D01*
X009048D01*
Y015084D01*
X009036Y015146D01*
X009Y015199D01*
X008948Y015234D01*
X008886Y015246D01*
D02*
G37*
G36*
X004578Y015713D02*
X00387D01*
Y015056D01*
X004578D01*
Y015264D01*
X004908D01*
Y015115D01*
X004908Y015104D01*
Y015065D01*
X004908Y015054D01*
Y014514D01*
X00544D01*
Y014664D01*
X005539D01*
X00554Y014662D01*
X005601Y014601D01*
X005681Y014568D01*
X005767D01*
X005847Y014601D01*
X005908Y014662D01*
X005941Y014742D01*
Y014828D01*
X005908Y014907D01*
X005847Y014968D01*
X005767Y015001D01*
X005681D01*
X005601Y014968D01*
X00554Y014907D01*
X005539Y014905D01*
X00544D01*
Y015054D01*
X00544Y015065D01*
Y015104D01*
X00544Y015115D01*
Y015656D01*
X004908D01*
Y015505D01*
X004578D01*
Y015713D01*
D02*
G37*
G36*
X007989Y01438D02*
X007862D01*
X0078Y014368D01*
X007747Y014333D01*
X007712Y01428D01*
X0077Y014218D01*
Y014052D01*
X007989D01*
Y01438D01*
D02*
G37*
G36*
Y013952D02*
X0077D01*
Y013785D01*
X007712Y013723D01*
X007747Y01367D01*
X0078Y013635D01*
X007862Y013623D01*
X007989D01*
Y013952D01*
D02*
G37*
G36*
X008079Y013472D02*
X007832D01*
Y013235D01*
X008079D01*
Y013472D01*
D02*
G37*
G36*
Y013135D02*
X007832D01*
Y012898D01*
X008079D01*
Y013135D01*
D02*
G37*
G36*
X019268Y013528D02*
X01848D01*
Y012741D01*
X019268D01*
Y013528D01*
D02*
G37*
G36*
X01391Y0126D02*
X013898Y012597D01*
X013845Y012562D01*
X013843Y01256D01*
X013817Y012577D01*
X013763Y012588D01*
X013709Y012577D01*
X013665Y012548D01*
X01362Y012577D01*
X013566Y012588D01*
X013512Y012577D01*
X013468Y012548D01*
X013423Y012577D01*
X013369Y012588D01*
X013315Y012577D01*
X013271Y012548D01*
X013226Y012577D01*
X013172Y012588D01*
X013119Y012577D01*
X013074Y012548D01*
X013029Y012577D01*
X012976Y012588D01*
X012922Y012577D01*
X012877Y012548D01*
X012832Y012577D01*
X012779Y012588D01*
X012725Y012577D01*
X01268Y012548D01*
X012636Y012577D01*
X012582Y012588D01*
X012528Y012577D01*
X012483Y012548D01*
X012439Y012577D01*
X012385Y012588D01*
X012331Y012577D01*
X012287Y012548D01*
X012242Y012577D01*
X012188Y012588D01*
X012134Y012577D01*
X01209Y012548D01*
X012045Y012577D01*
X011991Y012588D01*
X011938Y012577D01*
X011892Y012547D01*
X011861Y012501D01*
X011851Y012448D01*
Y011995D01*
X011861Y011941D01*
X011871Y011927D01*
Y009791D01*
X0093Y00722D01*
X009134D01*
X009134Y007223D01*
X009073Y007284D01*
X008993Y007317D01*
X008907D01*
X008827Y007284D01*
X008766Y007223D01*
X008733Y007143D01*
Y007057D01*
X008766Y006977D01*
X008827Y006916D01*
X008907Y006883D01*
X008993D01*
X009073Y006916D01*
X009134Y006977D01*
X009134Y00698D01*
X009289D01*
X009309Y00693D01*
X008665Y006285D01*
X008639Y006246D01*
X00863Y0062D01*
X00863Y0062D01*
Y004934D01*
X008627Y004934D01*
X008566Y004873D01*
X008533Y004793D01*
Y004707D01*
X008566Y004627D01*
X008627Y004566D01*
X008707Y004533D01*
X008793D01*
X008873Y004566D01*
X008934Y004627D01*
X008967Y004707D01*
Y004793D01*
X008934Y004873D01*
X008873Y004934D01*
X00887Y004934D01*
Y00615D01*
X00908Y006359D01*
X00913Y006339D01*
Y00415D01*
X009025Y004045D01*
X008374D01*
Y0042D01*
X007626D01*
Y003649D01*
X008374D01*
Y003804D01*
X009075D01*
X009075Y003804D01*
X009121Y003814D01*
X00916Y00384D01*
X00933Y004009D01*
X009353Y004006D01*
X00938Y003991D01*
Y00385D01*
X008788Y003258D01*
X008374D01*
Y003413D01*
X007626D01*
Y002862D01*
X008374D01*
Y003017D01*
X008837D01*
X008837Y003017D01*
X008883Y003026D01*
X008923Y003052D01*
X00958Y003709D01*
X009603Y003706D01*
X00963Y003691D01*
Y0035D01*
X0086Y00247D01*
X008374D01*
Y002626D01*
X007626D01*
Y002074D01*
X008374D01*
Y00223D01*
X00865D01*
X00865Y00223D01*
X008696Y002239D01*
X008735Y002265D01*
X00983Y003359D01*
X009853Y003356D01*
X00988Y003341D01*
Y003D01*
X008617Y001738D01*
X008374D01*
Y001838D01*
X007626D01*
Y001287D01*
X008374D01*
Y001497D01*
X008667D01*
X008667Y001497D01*
X008713Y001506D01*
X008752Y001532D01*
X010085Y002865D01*
X010085Y002865D01*
X010111Y002904D01*
X01012Y00295D01*
X01012Y00295D01*
Y0062D01*
X012003Y008083D01*
X012042Y008051D01*
X012039Y008046D01*
X01203Y008D01*
X01203Y008D01*
Y007385D01*
X011999D01*
X011922Y00737D01*
X011857Y007327D01*
X011843Y007305D01*
X011435D01*
X011435Y007305D01*
X011389Y007296D01*
X011349Y00727D01*
X011349Y00727D01*
X011139Y007059D01*
X011113Y00702D01*
X011104Y006974D01*
X011104Y006974D01*
Y006906D01*
X010958D01*
Y006365D01*
X010958Y006354D01*
Y006315D01*
X010958Y006304D01*
Y005764D01*
X010958D01*
Y005751D01*
X010958D01*
Y00521D01*
X010958Y0052D01*
Y00516D01*
X010958Y00515D01*
Y004609D01*
X011104D01*
Y004322D01*
X011049Y004307D01*
X010945Y004248D01*
X010861Y004163D01*
X010801Y00406D01*
X01077Y003944D01*
Y003825D01*
X010801Y00371D01*
X010861Y003606D01*
X010945Y003522D01*
X011049Y003462D01*
X011164Y003431D01*
X011284D01*
X011399Y003462D01*
X011503Y003522D01*
X011587Y003606D01*
X011647Y00371D01*
X011678Y003825D01*
Y003944D01*
X011647Y00406D01*
X011587Y004163D01*
X011503Y004248D01*
X011399Y004307D01*
X011344Y004322D01*
Y004609D01*
X01149D01*
Y00515D01*
X01149Y00516D01*
Y0052D01*
X01149Y00521D01*
Y005751D01*
X01149D01*
Y005764D01*
X01149D01*
Y005914D01*
X011624D01*
X011624Y005914D01*
X01167Y005923D01*
X011709Y005949D01*
X0118Y006041D01*
X011857Y006043D01*
X011922Y005999D01*
X011999Y005984D01*
X012333D01*
X01241Y005999D01*
X012475Y006043D01*
X012519Y006108D01*
X012534Y006185D01*
X012519Y006261D01*
X012475Y006327D01*
X01241Y00637D01*
X012333Y006385D01*
X011999D01*
X011922Y00637D01*
X011857Y006327D01*
X011843Y006305D01*
X011774D01*
X011774Y006305D01*
X011728Y006296D01*
X011689Y00627D01*
X011574Y006155D01*
X01149D01*
Y006304D01*
X01149Y006315D01*
Y006354D01*
X01149Y006365D01*
Y006906D01*
X011397D01*
X011376Y006956D01*
X011485Y007064D01*
X011843D01*
X011857Y007043D01*
X011922Y006999D01*
X011999Y006984D01*
X012333D01*
X01241Y006999D01*
X012475Y007043D01*
X012519Y007108D01*
X012534Y007185D01*
X012519Y007261D01*
X012475Y007327D01*
X01241Y00737D01*
X012333Y007385D01*
X01227D01*
Y00795D01*
X012735Y008414D01*
X013553D01*
Y008269D01*
X014094D01*
X014104Y008269D01*
X014144D01*
X014153Y008269D01*
X014203Y008267D01*
Y00819D01*
X014153Y008162D01*
X014136Y008172D01*
X014112Y008172D01*
X013889D01*
Y007885D01*
Y007598D01*
X014136Y007598D01*
X014177Y007619D01*
X014208Y007619D01*
X014244Y007584D01*
Y007385D01*
X014144D01*
X014068Y00737D01*
X014003Y007327D01*
X013959Y007261D01*
X013944Y007185D01*
X013959Y007108D01*
X014003Y007043D01*
X014068Y006999D01*
X014144Y006984D01*
X014479D01*
X014556Y006999D01*
X014621Y007043D01*
X014665Y007108D01*
X01468Y007185D01*
X014665Y007261D01*
X014621Y007327D01*
X014605Y007337D01*
Y007619D01*
X014705D01*
Y007714D01*
X015048D01*
Y007669D01*
X015589D01*
X0156Y007669D01*
X015639D01*
X01565Y007669D01*
X015794D01*
Y006805D01*
X015079D01*
X015069Y006855D01*
X015144Y006886D01*
X015211Y006953D01*
X015247Y00704D01*
Y007134D01*
X015211Y00722D01*
X015144Y007287D01*
X015058Y007323D01*
X014964D01*
X014877Y007287D01*
X01481Y00722D01*
X014774Y007134D01*
Y00704D01*
X01481Y006953D01*
X014877Y006886D01*
X014952Y006855D01*
X014942Y006805D01*
X014635D01*
X014621Y006827D01*
X014556Y00687D01*
X014479Y006885D01*
X014144D01*
X014068Y00687D01*
X014003Y006827D01*
X013959Y006761D01*
X013944Y006685D01*
X013959Y006608D01*
X014003Y006543D01*
X014068Y006499D01*
X014144Y006484D01*
X014479D01*
X014556Y006499D01*
X014621Y006543D01*
X014635Y006564D01*
X015612D01*
X015658Y006556D01*
Y006015D01*
X015658Y006004D01*
Y005965D01*
X015658Y005954D01*
Y005805D01*
X014635D01*
X014621Y005827D01*
X014556Y00587D01*
X014479Y005885D01*
X014144D01*
X014068Y00587D01*
X014003Y005827D01*
X013959Y005761D01*
X013944Y005685D01*
X013959Y005608D01*
X014003Y005543D01*
X014068Y005499D01*
X014144Y005484D01*
X014479D01*
X014556Y005499D01*
X014621Y005543D01*
X014635Y005564D01*
X015658D01*
Y005414D01*
X01619D01*
Y005564D01*
X016503D01*
Y005419D01*
X017044D01*
X017054Y005419D01*
X017094D01*
X017104Y005419D01*
X017645D01*
Y00578D01*
X018529Y006664D01*
X020387D01*
X020401Y00661D01*
X020461Y006506D01*
X020545Y006422D01*
X020649Y006362D01*
X020764Y006331D01*
X020884D01*
X020999Y006362D01*
X021103Y006422D01*
X021187Y006506D01*
X021247Y00661D01*
X021278Y006725D01*
Y006844D01*
X021247Y00696D01*
X021187Y007063D01*
X021103Y007148D01*
X020999Y007207D01*
X020884Y007238D01*
X020764D01*
X020649Y007207D01*
X020545Y007148D01*
X020461Y007063D01*
X020401Y00696D01*
X020387Y006905D01*
X018479D01*
X018479Y006905D01*
X018433Y006896D01*
X018394Y00687D01*
X017475Y00595D01*
X017104D01*
X017094Y00595D01*
X017054D01*
X017044Y00595D01*
X016503D01*
Y005805D01*
X01619D01*
Y005954D01*
X01619Y005965D01*
Y006004D01*
X01619Y006015D01*
Y006556D01*
X016035D01*
Y006699D01*
X016035Y006699D01*
X016035Y006699D01*
Y007669D01*
X01619D01*
Y0082D01*
X016035D01*
Y008544D01*
X016026Y00859D01*
X016Y008629D01*
X016Y008629D01*
X015509Y00912D01*
X01547Y009146D01*
X015424Y009155D01*
X015424Y009155D01*
X014079D01*
X014072Y009205D01*
X014144Y009247D01*
X014203Y009306D01*
X014245Y009378D01*
X014264Y00945D01*
X013636D01*
X013655Y009378D01*
X013697Y009306D01*
X013756Y009247D01*
X013828Y009205D01*
X013821Y009155D01*
X013715D01*
X013494Y009376D01*
Y011822D01*
X013544Y011859D01*
X013566Y011854D01*
X01362Y011865D01*
X013665Y011895D01*
X013709Y011865D01*
X013763Y011854D01*
X013817Y011865D01*
X013843Y011883D01*
X013845Y01188D01*
X013898Y011845D01*
X01391Y011843D01*
Y012221D01*
Y0126D01*
D02*
G37*
G36*
X018929Y01255D02*
X018924D01*
Y012185D01*
X019289D01*
Y012189D01*
X019261Y012295D01*
X019206Y012389D01*
X019129Y012467D01*
X019034Y012521D01*
X018929Y01255D01*
D02*
G37*
G36*
X018824D02*
X018819D01*
X018714Y012521D01*
X018619Y012467D01*
X018542Y012389D01*
X018487Y012295D01*
X018459Y012189D01*
Y012185D01*
X018824D01*
Y01255D01*
D02*
G37*
G36*
X019289Y012085D02*
X018924D01*
Y01172D01*
X018929D01*
X019034Y011748D01*
X019129Y011803D01*
X019206Y01188D01*
X019261Y011974D01*
X019289Y01208D01*
Y012085D01*
D02*
G37*
G36*
X018824D02*
X018459D01*
Y01208D01*
X018487Y011974D01*
X018542Y01188D01*
X018619Y011803D01*
X018714Y011748D01*
X018819Y01172D01*
X018824D01*
Y012085D01*
D02*
G37*
G36*
X008379Y011622D02*
X008132D01*
Y011385D01*
X008379D01*
Y011622D01*
D02*
G37*
G36*
X015863Y01303D02*
X015785D01*
X01571Y01301D01*
X015643Y012971D01*
X015588Y012916D01*
X015549Y012849D01*
X015529Y012774D01*
Y012696D01*
X015549Y012621D01*
X015573Y012579D01*
Y011596D01*
X015283Y011305D01*
X014795D01*
Y01135D01*
X01466D01*
Y011489D01*
X014649Y011543D01*
X014619Y011589D01*
X014297Y01191D01*
Y012221D01*
Y012448D01*
X014286Y012501D01*
X014256Y012547D01*
X01421Y012577D01*
X014157Y012588D01*
X014103Y012577D01*
X014076Y01256D01*
X014074Y012562D01*
X014022Y012597D01*
X01401Y0126D01*
Y012221D01*
Y011843D01*
X014018Y011844D01*
X014027Y011798D01*
X014057Y011753D01*
X014379Y011431D01*
Y01135D01*
X014267Y01135D01*
X014226Y011372D01*
X014202Y011372D01*
X013979D01*
Y011085D01*
Y010798D01*
X014226Y010798D01*
X014251Y010811D01*
X014296Y01079D01*
X014301Y010785D01*
Y010279D01*
X014288Y010266D01*
X014249Y010199D01*
X014229Y010124D01*
Y010046D01*
X014249Y009971D01*
X014288Y009903D01*
X014343Y009848D01*
X01441Y009809D01*
X014485Y009789D01*
X014563D01*
X014638Y009809D01*
X014705Y009848D01*
X01476Y009903D01*
X014799Y009971D01*
X014819Y010046D01*
Y010124D01*
X014799Y010199D01*
X01476Y010266D01*
X014742Y010284D01*
Y010819D01*
X014795D01*
Y010864D01*
X015374D01*
X015458Y010881D01*
X01553Y010929D01*
X01595Y011348D01*
X015998Y01142D01*
X016015Y011505D01*
Y012508D01*
X01606Y012553D01*
X016099Y012621D01*
X016119Y012696D01*
Y012774D01*
X016099Y012849D01*
X01606Y012916D01*
X016005Y012971D01*
X015938Y01301D01*
X015863Y01303D01*
D02*
G37*
G36*
X013879Y011372D02*
X013632D01*
Y011135D01*
X013879D01*
Y011372D01*
D02*
G37*
G36*
X008379Y011285D02*
X008132D01*
Y011048D01*
X008379D01*
Y011285D01*
D02*
G37*
G36*
X013879Y011035D02*
X013632D01*
Y010798D01*
X013879D01*
Y011035D01*
D02*
G37*
G36*
X007382Y010042D02*
X007096D01*
Y009835D01*
X007382D01*
Y010042D01*
D02*
G37*
G36*
X006996D02*
X00671D01*
Y009835D01*
X006996D01*
Y010042D01*
D02*
G37*
G36*
X014Y009814D02*
Y00955D01*
X014264D01*
X014245Y009622D01*
X014203Y009694D01*
X014144Y009753D01*
X014072Y009795D01*
X014Y009814D01*
D02*
G37*
G36*
X0139D02*
X013828Y009795D01*
X013756Y009753D01*
X013697Y009694D01*
X013655Y009622D01*
X013636Y00955D01*
X0139D01*
Y009814D01*
D02*
G37*
G36*
X007382Y009735D02*
X007096D01*
Y009527D01*
X007382D01*
Y009735D01*
D02*
G37*
G36*
X006996D02*
X00671D01*
Y009527D01*
X006996D01*
Y009735D01*
D02*
G37*
G36*
X013074Y008199D02*
Y007935D01*
X013338D01*
X013319Y008007D01*
X013277Y008079D01*
X013218Y008138D01*
X013146Y00818D01*
X013074Y008199D01*
D02*
G37*
G36*
X012974D02*
X012902Y00818D01*
X01283Y008138D01*
X012771Y008079D01*
X012729Y008007D01*
X01271Y007935D01*
X012974D01*
Y008199D01*
D02*
G37*
G36*
X013789Y008172D02*
X013542D01*
Y007935D01*
X013789D01*
Y008172D01*
D02*
G37*
G36*
Y007835D02*
X013542D01*
Y007598D01*
X013789D01*
Y007835D01*
D02*
G37*
G36*
X013338D02*
X013074D01*
Y00757D01*
X013146Y00759D01*
X013218Y007631D01*
X013277Y00769D01*
X013319Y007762D01*
X013338Y007835D01*
D02*
G37*
G36*
X012974D02*
X01271D01*
X012729Y007762D01*
X012771Y00769D01*
X01283Y007631D01*
X012902Y00759D01*
X012974Y00757D01*
Y007835D01*
D02*
G37*
G36*
X018884Y008238D02*
X018764D01*
X018649Y008207D01*
X018545Y008148D01*
X018461Y008063D01*
X018401Y00796D01*
X01837Y007844D01*
Y007725D01*
X018401Y00761D01*
X018461Y007506D01*
X018545Y007422D01*
X018649Y007362D01*
X018764Y007331D01*
X018884D01*
X018999Y007362D01*
X019103Y007422D01*
X019187Y007506D01*
X019247Y00761D01*
X019278Y007725D01*
Y007844D01*
X019247Y00796D01*
X019187Y008063D01*
X019103Y008148D01*
X018999Y008207D01*
X018884Y008238D01*
D02*
G37*
G36*
X007971Y007323D02*
X007877D01*
X00779Y007287D01*
X007724Y00722D01*
X007688Y007134D01*
Y00704D01*
X007724Y006953D01*
X00779Y006886D01*
X007877Y00685D01*
X007971D01*
X008058Y006886D01*
X008124Y006953D01*
X00816Y00704D01*
Y007134D01*
X008124Y00722D01*
X008058Y007287D01*
X007971Y007323D01*
D02*
G37*
G36*
X013017Y006901D02*
X012931D01*
X012851Y006868D01*
X01279Y006807D01*
X012789Y006805D01*
X01249D01*
X012475Y006827D01*
X01241Y00687D01*
X012333Y006885D01*
X011999D01*
X011922Y00687D01*
X011857Y006827D01*
X011813Y006761D01*
X011798Y006685D01*
X011813Y006608D01*
X011857Y006543D01*
X011922Y006499D01*
X011999Y006484D01*
X012333D01*
X01241Y006499D01*
X012475Y006543D01*
X01249Y006564D01*
X012789D01*
X01279Y006562D01*
X012851Y006501D01*
X012931Y006468D01*
X013017D01*
X013097Y006501D01*
X013158Y006562D01*
X013191Y006642D01*
Y006728D01*
X013158Y006807D01*
X013097Y006868D01*
X013017Y006901D01*
D02*
G37*
G36*
X008395Y006584D02*
X00805D01*
Y006337D01*
X008395D01*
Y006584D01*
D02*
G37*
G36*
X00795D02*
X007605D01*
Y006337D01*
X00795D01*
Y006584D01*
D02*
G37*
G36*
X015217Y006401D02*
X015131D01*
X015051Y006368D01*
X01499Y006307D01*
X014989Y006305D01*
X014635D01*
X014621Y006327D01*
X014556Y00637D01*
X014479Y006385D01*
X014144D01*
X014068Y00637D01*
X014003Y006327D01*
X013959Y006261D01*
X013944Y006185D01*
X013959Y006108D01*
X014003Y006043D01*
X014068Y005999D01*
X014144Y005984D01*
X014479D01*
X014556Y005999D01*
X014621Y006043D01*
X014635Y006064D01*
X014989D01*
X01499Y006062D01*
X015051Y006001D01*
X015131Y005968D01*
X015217D01*
X015297Y006001D01*
X015358Y006062D01*
X015391Y006142D01*
Y006228D01*
X015358Y006307D01*
X015297Y006368D01*
X015217Y006401D01*
D02*
G37*
G36*
X002075Y006563D02*
X001327D01*
Y006011D01*
X002075D01*
Y006563D01*
D02*
G37*
G36*
X008395Y006237D02*
X00805D01*
Y00599D01*
X008395D01*
Y006237D01*
D02*
G37*
G36*
X00795D02*
X007605D01*
Y00599D01*
X00795D01*
Y006237D01*
D02*
G37*
G36*
X018887Y00626D02*
X018874D01*
Y005835D01*
X019299D01*
Y005847D01*
X019267Y005968D01*
X019204Y006076D01*
X019116Y006165D01*
X019007Y006227D01*
X018887Y00626D01*
D02*
G37*
G36*
X018774D02*
X018761D01*
X018641Y006227D01*
X018532Y006165D01*
X018444Y006076D01*
X018381Y005968D01*
X018349Y005847D01*
Y005835D01*
X018774D01*
Y00626D01*
D02*
G37*
G36*
X0131Y006014D02*
Y00575D01*
X013364D01*
X013345Y005822D01*
X013303Y005894D01*
X013244Y005953D01*
X013172Y005995D01*
X0131Y006014D01*
D02*
G37*
G36*
X013D02*
X012928Y005995D01*
X012856Y005953D01*
X012797Y005894D01*
X012755Y005822D01*
X012736Y00575D01*
X013D01*
Y006014D01*
D02*
G37*
G36*
X012333Y005907D02*
X012216D01*
Y005735D01*
X012546D01*
X012539Y00577D01*
X012491Y005842D01*
X012419Y00589D01*
X012333Y005907D01*
D02*
G37*
G36*
X012116D02*
X011999D01*
X011914Y00589D01*
X011842Y005842D01*
X011793Y00577D01*
X011786Y005735D01*
X012116D01*
Y005907D01*
D02*
G37*
G36*
X012546Y005635D02*
X012216D01*
Y005462D01*
X012333D01*
X012419Y005479D01*
X012491Y005527D01*
X012539Y0056D01*
X012546Y005635D01*
D02*
G37*
G36*
X012116D02*
X011786D01*
X011793Y0056D01*
X011842Y005527D01*
X011914Y005479D01*
X011999Y005462D01*
X012116D01*
Y005635D01*
D02*
G37*
G36*
X013364Y00565D02*
X0131D01*
Y005386D01*
X013172Y005405D01*
X013244Y005447D01*
X013303Y005506D01*
X013345Y005578D01*
X013364Y00565D01*
D02*
G37*
G36*
X013D02*
X012736D01*
X012755Y005578D01*
X012797Y005506D01*
X012856Y005447D01*
X012928Y005405D01*
X013Y005386D01*
Y00565D01*
D02*
G37*
G36*
X019299Y005735D02*
X018874D01*
Y00531D01*
X018887D01*
X019007Y005342D01*
X019116Y005405D01*
X019204Y005493D01*
X019267Y005601D01*
X019299Y005722D01*
Y005735D01*
D02*
G37*
G36*
X018774D02*
X018349D01*
Y005722D01*
X018381Y005601D01*
X018444Y005493D01*
X018532Y005405D01*
X018641Y005342D01*
X018761Y00531D01*
X018774D01*
Y005735D01*
D02*
G37*
G36*
X008374Y005775D02*
X007626D01*
Y005224D01*
X008374D01*
Y005775D01*
D02*
G37*
G36*
X002075D02*
X001327D01*
Y005224D01*
X002075D01*
Y005775D01*
D02*
G37*
G36*
X008374Y004988D02*
X007626D01*
Y004437D01*
X008374D01*
Y004988D01*
D02*
G37*
G36*
X002075D02*
X001327D01*
Y004437D01*
X002075D01*
Y004988D01*
D02*
G37*
G36*
Y0042D02*
X001327D01*
Y003649D01*
X002075D01*
Y00378D01*
X002566D01*
X002566Y003777D01*
X002627Y003716D01*
X002707Y003683D01*
X002793D01*
X002873Y003716D01*
X002934Y003777D01*
X002967Y003857D01*
Y003943D01*
X002934Y004023D01*
X002873Y004084D01*
X002793Y004117D01*
X002707D01*
X002627Y004084D01*
X002566Y004023D01*
X002566Y00402D01*
X002075D01*
Y0042D01*
D02*
G37*
G36*
Y003413D02*
X001327D01*
Y002862D01*
X002075D01*
Y00303D01*
X002566D01*
X002566Y003027D01*
X002627Y002966D01*
X002707Y002933D01*
X002793D01*
X002873Y002966D01*
X002934Y003027D01*
X002967Y003107D01*
Y003193D01*
X002934Y003273D01*
X002873Y003334D01*
X002793Y003367D01*
X002707D01*
X002627Y003334D01*
X002566Y003273D01*
X002566Y00327D01*
X002075D01*
Y003413D01*
D02*
G37*
G36*
X015177Y002334D02*
X015174D01*
Y001985D01*
X015523D01*
Y001987D01*
X015496Y002089D01*
X015443Y00218D01*
X015369Y002254D01*
X015278Y002307D01*
X015177Y002334D01*
D02*
G37*
G36*
X015074D02*
X015071D01*
X01497Y002307D01*
X014879Y002254D01*
X014805Y00218D01*
X014752Y002089D01*
X014725Y001987D01*
Y001985D01*
X015074D01*
Y002334D01*
D02*
G37*
G36*
X020077Y002326D02*
X020074D01*
Y001977D01*
X020423D01*
Y00198D01*
X020396Y002081D01*
X020343Y002172D01*
X020269Y002247D01*
X020178Y002299D01*
X020077Y002326D01*
D02*
G37*
G36*
X019974D02*
X019971D01*
X01987Y002299D01*
X019779Y002247D01*
X019705Y002172D01*
X019652Y002081D01*
X019625Y00198D01*
Y001977D01*
X019974D01*
Y002326D01*
D02*
G37*
G36*
X012287Y00236D02*
X012274D01*
Y001935D01*
X012699D01*
Y001947D01*
X012667Y002068D01*
X012604Y002176D01*
X012516Y002265D01*
X012407Y002327D01*
X012287Y00236D01*
D02*
G37*
G36*
X012174D02*
X012161D01*
X012041Y002327D01*
X011932Y002265D01*
X011844Y002176D01*
X011781Y002068D01*
X011749Y001947D01*
Y001935D01*
X012174D01*
Y00236D01*
D02*
G37*
G36*
X002096Y001859D02*
X001751D01*
Y001613D01*
X002096D01*
Y001859D01*
D02*
G37*
G36*
X001651D02*
X001306D01*
Y001613D01*
X001651D01*
Y001859D01*
D02*
G37*
G36*
X016502Y002313D02*
X015746D01*
Y001557D01*
X016502D01*
Y002313D01*
D02*
G37*
G36*
X021402Y002305D02*
X020646D01*
Y001549D01*
X021402D01*
Y002305D01*
D02*
G37*
G36*
X013024Y003255D02*
X011374D01*
X011289Y003239D01*
X011218Y003191D01*
X010348Y002321D01*
X010284Y002338D01*
X010164D01*
X010049Y002307D01*
X009945Y002248D01*
X009861Y002163D01*
X009801Y00206D01*
X00977Y001944D01*
Y001825D01*
X009801Y00171D01*
X009861Y001606D01*
X009945Y001522D01*
X010049Y001462D01*
X010164Y001431D01*
X010284D01*
X010399Y001462D01*
X010503Y001522D01*
X010587Y001606D01*
X010647Y00171D01*
X010678Y001825D01*
Y001944D01*
X01066Y002009D01*
X011465Y002814D01*
X012933D01*
X013749Y001997D01*
X013746Y001984D01*
Y001885D01*
X013772Y001789D01*
X013822Y001703D01*
X013892Y001632D01*
X013978Y001582D01*
X014074Y001557D01*
X014174D01*
X014186Y00156D01*
X014818Y000929D01*
X014889Y000881D01*
X014974Y000864D01*
X018181D01*
X018266Y000881D01*
X018338Y000929D01*
X018962Y001553D01*
X018974Y001549D01*
X019074D01*
X01917Y001575D01*
X019256Y001625D01*
X019326Y001695D01*
X019376Y001781D01*
X019402Y001877D01*
Y001977D01*
X019376Y002073D01*
X019326Y002159D01*
X019256Y00223D01*
X01917Y002279D01*
X019074Y002305D01*
X018974D01*
X018878Y002279D01*
X018792Y00223D01*
X018722Y002159D01*
X018672Y002073D01*
X018646Y001977D01*
Y001877D01*
X018649Y001865D01*
X01809Y001305D01*
X015065D01*
X014499Y001872D01*
X014502Y001885D01*
Y001984D01*
X014476Y002081D01*
X014426Y002167D01*
X014356Y002237D01*
X01427Y002287D01*
X014174Y002313D01*
X014074D01*
X014062Y002309D01*
X01318Y003191D01*
X013108Y003239D01*
X013024Y003255D01*
D02*
G37*
G36*
X015523Y001885D02*
X015174D01*
Y001535D01*
X015177D01*
X015278Y001563D01*
X015369Y001615D01*
X015443Y00169D01*
X015496Y001781D01*
X015523Y001882D01*
Y001885D01*
D02*
G37*
G36*
X015074D02*
X014725D01*
Y001882D01*
X014752Y001781D01*
X014805Y00169D01*
X014879Y001615D01*
X01497Y001563D01*
X015071Y001535D01*
X015074D01*
Y001885D01*
D02*
G37*
G36*
X020423Y001877D02*
X020074D01*
Y001528D01*
X020077D01*
X020178Y001555D01*
X020269Y001608D01*
X020343Y001682D01*
X020396Y001773D01*
X020423Y001875D01*
Y001877D01*
D02*
G37*
G36*
X019974D02*
X019625D01*
Y001875D01*
X019652Y001773D01*
X019705Y001682D01*
X019779Y001608D01*
X01987Y001555D01*
X019971Y001528D01*
X019974D01*
Y001877D01*
D02*
G37*
G36*
X000937Y001705D02*
X0007D01*
Y001458D01*
X000937D01*
Y001705D01*
D02*
G37*
G36*
X0006D02*
X000363D01*
Y001458D01*
X0006D01*
Y001705D01*
D02*
G37*
G36*
X012699Y001835D02*
X012274D01*
Y00141D01*
X012287D01*
X012407Y001442D01*
X012516Y001505D01*
X012604Y001593D01*
X012667Y001701D01*
X012699Y001822D01*
Y001835D01*
D02*
G37*
G36*
X012174D02*
X011749D01*
Y001822D01*
X011781Y001701D01*
X011844Y001593D01*
X011932Y001505D01*
X012041Y001442D01*
X012161Y00141D01*
X012174D01*
Y001835D01*
D02*
G37*
G36*
X002096Y001513D02*
X001751D01*
Y001266D01*
X002096D01*
Y001513D01*
D02*
G37*
G36*
X001651D02*
X001306D01*
Y001266D01*
X001651D01*
Y001513D01*
D02*
G37*
G36*
X002096Y001072D02*
X001751D01*
Y000825D01*
X002096D01*
Y001072D01*
D02*
G37*
G36*
X008395D02*
X00805D01*
Y000825D01*
X008395D01*
Y001072D01*
D02*
G37*
G36*
X001651D02*
X001306D01*
Y000825D01*
X001651D01*
Y001072D01*
D02*
G37*
G36*
X00795D02*
X007605D01*
Y000825D01*
X00795D01*
Y001072D01*
D02*
G37*
G36*
X008395Y000725D02*
X00805D01*
Y000478D01*
X008395D01*
Y000725D01*
D02*
G37*
G36*
X00795D02*
X007605D01*
Y000478D01*
X00795D01*
Y000725D01*
D02*
G37*
G36*
X002096D02*
X001751D01*
Y000478D01*
X002096D01*
Y000725D01*
D02*
G37*
G36*
X001651D02*
X001306D01*
Y000478D01*
X001651D01*
Y000725D01*
D02*
G37*
%LPD*%
G36*
X010281Y021219D02*
X010309Y021191D01*
X010324Y021155D01*
X010324Y021135D01*
X010324Y019935D01*
X011124D01*
X011124Y019935D01*
X011154Y019935D01*
X011209Y019912D01*
X011251Y01987D01*
X011274Y019814D01*
X011274Y019785D01*
X011274Y018985D01*
X011274Y018985D01*
X011274Y018963D01*
X011265Y018922D01*
X011248Y018883D01*
X011222Y018849D01*
X011206Y018835D01*
X008574D01*
X008574Y018835D01*
X008554Y018835D01*
X008517Y01885D01*
X008489Y018878D01*
X008474Y018915D01*
Y018935D01*
Y019485D01*
Y019635D01*
Y019664D01*
X008497Y01972D01*
X008539Y019762D01*
X008594Y019785D01*
X009474D01*
Y021085D01*
X009474Y021114D01*
X009497Y02117D01*
X009539Y021212D01*
X009594Y021235D01*
X010224D01*
X010224Y021235D01*
X010244Y021235D01*
X010281Y021219D01*
D02*
G37*
G36*
X014624Y019745D02*
X014657Y019723D01*
X014681Y019718D01*
Y019667D01*
X014648Y01966D01*
X014608Y019634D01*
X014582Y019594D01*
X014572Y019547D01*
Y019535D01*
X014844D01*
Y019435D01*
X014572D01*
Y019423D01*
X014582Y019376D01*
X014608Y019336D01*
X014648Y019309D01*
X014681Y019302D01*
Y019251D01*
X014657Y019247D01*
X014624Y019225D01*
X014602Y019192D01*
X014594Y019153D01*
Y019029D01*
X014602Y01899D01*
X014624Y018957D01*
X014657Y018935D01*
X014695Y018928D01*
X014987D01*
X014993Y018928D01*
X015035Y018933D01*
X015035Y018933D01*
X015783D01*
X015783Y018933D01*
X015825Y018928D01*
X016123D01*
X016161Y018935D01*
X016194Y018957D01*
X016216Y01899D01*
X016224Y019029D01*
Y019153D01*
X016216Y019192D01*
X016194Y019225D01*
X016161Y019247D01*
X016123Y019254D01*
X015837D01*
X015812Y019288D01*
X015837Y019321D01*
X016123D01*
X016161Y019329D01*
X016184Y019344D01*
X016316D01*
X016429Y019231D01*
Y0183D01*
X016294D01*
Y0183D01*
X016254D01*
Y0183D01*
X016094D01*
Y0184D01*
X016097Y018401D01*
X016158Y018462D01*
X016191Y018542D01*
Y018628D01*
X016158Y018707D01*
X016097Y018768D01*
X016017Y018801D01*
X015931D01*
X015851Y018768D01*
X01579Y018707D01*
X015757Y018628D01*
Y018542D01*
X01579Y018462D01*
X015851Y018401D01*
X015854Y0184D01*
Y0183D01*
X015703D01*
Y017769D01*
X015817D01*
X015838Y017719D01*
X015574Y017455D01*
X014178D01*
X014171Y017505D01*
X014188Y017509D01*
X014255Y017548D01*
X01431Y017603D01*
X014349Y017671D01*
X014369Y017746D01*
Y017824D01*
X014349Y017899D01*
X01431Y017966D01*
X014297Y017979D01*
Y018135D01*
X014302Y01814D01*
X014347Y018161D01*
X014372Y018148D01*
X014395Y018148D01*
X014619D01*
Y018435D01*
Y018722D01*
X014372Y018722D01*
X014347Y018709D01*
X014302Y018729D01*
X014297Y018734D01*
Y019014D01*
X01434D01*
Y019554D01*
X01434Y019565D01*
Y019604D01*
X01434Y019615D01*
Y019758D01*
X014615D01*
X014624Y019745D01*
D02*
G37*
G36*
X013808Y019633D02*
X013808Y019604D01*
Y019565D01*
X013808Y019554D01*
Y019014D01*
X013856D01*
Y0187D01*
X013803D01*
Y018169D01*
X013856D01*
Y017984D01*
X013838Y017966D01*
X013799Y017899D01*
X013779Y017824D01*
Y017746D01*
X013799Y017671D01*
X013838Y017603D01*
X013893Y017548D01*
X01396Y017509D01*
X013977Y017505D01*
X01397Y017455D01*
X013535D01*
X013518Y017484D01*
X013513Y017505D01*
X013535Y017539D01*
X013544Y017585D01*
Y019435D01*
X013762Y019652D01*
X013808Y019633D01*
D02*
G37*
%LPC*%
G36*
X015224Y018749D02*
X015152Y01873D01*
X01508Y018688D01*
X015021Y018629D01*
X015016Y018621D01*
X014966Y018634D01*
Y018722D01*
X014719D01*
Y018435D01*
Y018148D01*
X014966D01*
Y018235D01*
X015016Y018248D01*
X015021Y01824D01*
X01508Y018181D01*
X015152Y01814D01*
X015224Y01812D01*
Y018435D01*
Y018749D01*
D02*
G37*
G36*
X015324D02*
Y018485D01*
X015588D01*
X015569Y018557D01*
X015527Y018629D01*
X015468Y018688D01*
X015396Y01873D01*
X015324Y018749D01*
D02*
G37*
G36*
X015588Y018385D02*
X015324D01*
Y01812D01*
X015396Y01814D01*
X015468Y018181D01*
X015527Y01824D01*
X015569Y018312D01*
X015588Y018385D01*
D02*
G37*
%LPD*%
G36*
X008161Y018523D02*
X008216Y0185D01*
X008265Y018468D01*
X008307Y018426D01*
X00834Y018377D01*
X008362Y018322D01*
X008374Y018264D01*
X008374Y018235D01*
X008374Y018235D01*
Y016235D01*
Y016205D01*
X008363Y016148D01*
X00834Y016093D01*
X008307Y016044D01*
X008266Y016003D01*
X008217Y01597D01*
X008163Y015948D01*
X008105Y015936D01*
X008075D01*
X003725Y015936D01*
X003686Y015932D01*
X003614Y015902D01*
X003558Y015847D01*
X003528Y015774D01*
X003524Y015735D01*
Y01516D01*
X003529Y015112D01*
X003566Y015021D01*
X003635Y014953D01*
X003725Y014915D01*
X003774Y01491D01*
Y01491D01*
X004278D01*
X004336Y014899D01*
X004391Y014876D01*
X00444Y014843D01*
X004482Y014801D01*
X004515Y014752D01*
X004538Y014697D01*
X00455Y014639D01*
Y014609D01*
X00455Y014609D01*
Y014135D01*
X00455Y01341D01*
X00455Y013376D01*
X004536Y013308D01*
X00451Y013244D01*
X004471Y013187D01*
X004423Y013138D01*
X004365Y0131D01*
X004301Y013073D01*
X004234Y01306D01*
X004199Y01306D01*
X004199D01*
X003774Y01306D01*
X003049Y01306D01*
X003015Y01306D01*
X002947Y013073D01*
X002883Y013099D01*
X002826Y013138D01*
X002777Y013187D01*
X002739Y013244D01*
X002712Y013308D01*
X002699Y013375D01*
X002699Y01341D01*
Y01341D01*
Y01766D01*
Y017701D01*
X002715Y017784D01*
X002747Y017861D01*
X002794Y017931D01*
X002853Y01799D01*
X002923Y018036D01*
X003Y018068D01*
X003082Y018085D01*
X003124Y018085D01*
X003124Y018085D01*
X005874D01*
X005898Y018087D01*
X005942Y018105D01*
X005976Y018139D01*
X005995Y018184D01*
X005997Y018208D01*
X005997Y018208D01*
X005997Y01824D01*
X00601Y018303D01*
X006034Y018363D01*
X00607Y018416D01*
X006116Y018462D01*
X006169Y018497D01*
X006229Y018522D01*
X006292Y018535D01*
X006324Y018535D01*
X006324Y018535D01*
X008074Y018535D01*
X008104Y018535D01*
X008161Y018523D01*
D02*
G37*
G36*
X015794Y008494D02*
Y0082D01*
X01565D01*
X015639Y0082D01*
X0156D01*
X015589Y0082D01*
X015211D01*
X015204Y00825D01*
X015238Y008259D01*
X015305Y008298D01*
X01536Y008353D01*
X015399Y008421D01*
X015419Y008496D01*
Y008574D01*
X015399Y008649D01*
X01536Y008716D01*
X015305Y008771D01*
X015238Y00881D01*
X015163Y00883D01*
X015085D01*
X01501Y00881D01*
X014943Y008771D01*
X014927Y008755D01*
X014695D01*
Y0088D01*
X014154D01*
X014144Y0088D01*
X014104D01*
X014094Y0088D01*
X013723D01*
X013658Y008866D01*
X01366Y008876D01*
X01368Y008914D01*
X015374D01*
X015794Y008494D01*
D02*
G37*
D14*
X008Y001563D02*
X008055Y001617D01*
X008667D01*
X01Y00295D01*
X008Y00235D02*
X00865D01*
X00975Y00345D01*
X008Y003137D02*
X008837D01*
X001701D02*
X001713Y00315D01*
X00275D01*
X008837Y003137D02*
X0095Y0038D01*
X001726Y0039D02*
X00275D01*
X001701Y003925D02*
X001726Y0039D01*
X008Y003925D02*
X009075D01*
X00925Y0041D01*
Y0064D01*
X00875Y00475D02*
Y0062D01*
X00895Y0071D02*
X00935D01*
X009019Y011335D02*
X009779D01*
X011224Y003885D02*
Y004885D01*
X01Y00295D02*
Y00625D01*
X00975Y00345D02*
Y0063D01*
X0095Y0038D02*
Y00635D01*
X011224Y005475D02*
Y006039D01*
X011229Y006035D01*
X011224Y00663D02*
Y006974D01*
X0095Y00635D02*
X012582Y009432D01*
X00875Y0062D02*
X012188Y009638D01*
X00925Y0064D02*
X012385Y009535D01*
X00935Y0071D02*
X011991Y009741D01*
X009779Y009808D02*
X009802Y009785D01*
X009779Y009808D02*
Y011335D01*
X011229Y006035D02*
X011624D01*
X011774Y006185D01*
X012166D01*
X012301Y006685D02*
X012974D01*
X011224Y006974D02*
X011435Y007185D01*
X012166D01*
X01215Y007201D02*
X012166Y007185D01*
X014312Y005685D02*
X016779D01*
X017369D02*
X017379D01*
X014312Y006185D02*
X015174D01*
X017379Y005685D02*
X018479Y006785D01*
X015915Y006289D02*
X015924Y00628D01*
X015915Y006289D02*
Y006699D01*
X014312Y006685D02*
X0159D01*
X015915Y006699D01*
X018479Y006785D02*
X020824D01*
X015915Y006699D02*
Y007935D01*
X01215Y007201D02*
Y008D01*
X01Y00625D02*
X012976Y009226D01*
X00975Y0063D02*
X012779Y009329D01*
X01215Y008D02*
X012685Y008535D01*
X013819D01*
X013172Y009181D02*
X013819Y008535D01*
X013374Y009326D02*
X013665Y009035D01*
X013172Y009181D02*
Y012221D01*
X012976Y009226D02*
Y012221D01*
X013374Y009326D02*
Y012217D01*
X012779Y009329D02*
Y012221D01*
X012582Y009432D02*
Y012221D01*
X012385Y009535D02*
Y012221D01*
X012188Y009638D02*
Y012221D01*
X011991Y009741D02*
Y012221D01*
X015915Y007935D02*
Y008544D01*
X015424Y009035D02*
X015915Y008544D01*
X013665Y009035D02*
X015424D01*
X018874Y010135D02*
X018874D01*
X018374Y010635D02*
X018874Y010135D01*
X018374Y010635D02*
Y011285D01*
X005424Y01908D02*
X006419D01*
X006424Y019085D01*
X007808Y01896D02*
Y020164D01*
X007829Y020185D01*
X014076Y019878D02*
X014844D01*
X013424Y017585D02*
Y019485D01*
X013815Y019876D01*
X01407D01*
X014074Y01988D01*
X014076Y019878D01*
X014737Y013786D02*
X014745Y013779D01*
X01588D02*
X018374Y011285D01*
X016026Y013983D02*
X018874Y011135D01*
X014745Y013779D02*
X01588D01*
X014737Y013983D02*
X016026D01*
X014737Y014574D02*
X016763D01*
X017887Y015698D01*
X018837D01*
X018874Y015735D01*
X015974Y019878D02*
X015977Y019881D01*
X015624Y017335D02*
X015979Y017689D01*
X015974Y018039D02*
Y018585D01*
X014624Y016735D02*
X018874D01*
X015979Y017689D02*
Y018035D01*
X015974Y018039D02*
X015979Y018035D01*
X015977Y019881D02*
X016471D01*
X016474Y019885D01*
X012273Y013785D02*
X012274Y013785D01*
X013369Y012221D02*
X013374Y012217D01*
X008709Y013195D02*
Y014002D01*
Y013195D02*
X008719Y013185D01*
X008709Y014002D02*
X009091D01*
X009229Y014139D01*
X009574D01*
Y014132D02*
Y014139D01*
Y014132D02*
X009722Y013985D01*
X009774Y011339D02*
Y011879D01*
Y011339D02*
X009779Y011335D01*
X009786Y014572D02*
X010179Y01418D01*
X004224Y015385D02*
X005169D01*
X005174Y01538D01*
Y014789D02*
X005179Y014785D01*
X005724D01*
X008029Y015635D02*
X008039Y015624D01*
Y014868D02*
Y015624D01*
Y014828D02*
Y014868D01*
Y014828D02*
X008394Y014474D01*
X008959D01*
X00917Y014685D01*
X009529D01*
X009574Y01473D01*
Y01472D02*
Y01473D01*
Y01472D02*
X009722Y014572D01*
X009786D01*
X009722Y013985D02*
X011409D01*
X010674Y014785D02*
X010681Y014778D01*
X010179Y01418D02*
X011411D01*
X010681Y014778D02*
X011403D01*
X011411Y01477D01*
X011409Y013985D02*
X011411Y013983D01*
Y013786D02*
X011411Y013785D01*
X012273D01*
X012774Y015553D02*
X012779Y015548D01*
X012974Y01555D02*
X012976Y015548D01*
X013172D02*
X013174Y01555D01*
X012769Y017985D02*
X012774Y01798D01*
Y015553D02*
Y01798D01*
X012974Y01555D02*
Y017135D01*
X013174Y01555D02*
Y017035D01*
X012974Y017135D02*
X013424Y017585D01*
X013174Y017035D02*
X013474Y017335D01*
X014157Y015548D02*
Y016267D01*
X014624Y016735D01*
X013474Y017335D02*
X015624D01*
D19*
X009802Y009785D02*
D03*
X007046D02*
D03*
D20*
X009779Y011335D02*
D03*
X010369D02*
D03*
X009019D02*
D03*
X008429D02*
D03*
X017369Y005685D02*
D03*
X016779D02*
D03*
X013839Y007885D02*
D03*
X014429D02*
D03*
X013829Y008535D02*
D03*
X014419D02*
D03*
X015324Y007935D02*
D03*
X015915D02*
D03*
X013929Y011085D02*
D03*
X014519D02*
D03*
X008619Y015635D02*
D03*
X008029D02*
D03*
X008719Y017285D02*
D03*
X008129D02*
D03*
Y016485D02*
D03*
X008719D02*
D03*
X008419Y020185D02*
D03*
X007829D02*
D03*
X012169Y016685D02*
D03*
X011579D02*
D03*
X012179Y017985D02*
D03*
X012769D02*
D03*
X014669Y018435D02*
D03*
X014079D02*
D03*
X015979Y018035D02*
D03*
X016569D02*
D03*
X008129Y013185D02*
D03*
X008719D02*
D03*
D21*
X009724Y01353D02*
D03*
Y012939D02*
D03*
X010374D02*
D03*
Y01353D02*
D03*
X009574Y014139D02*
D03*
Y01473D02*
D03*
X015924Y005689D02*
D03*
Y00628D02*
D03*
X005174Y01538D02*
D03*
Y014789D02*
D03*
X009874Y018389D02*
D03*
Y01898D02*
D03*
X010724D02*
D03*
Y018389D02*
D03*
X005424Y01908D02*
D03*
Y018489D02*
D03*
X020024Y01618D02*
D03*
Y015589D02*
D03*
X014074Y019289D02*
D03*
Y01988D02*
D03*
X015974Y014939D02*
D03*
Y01553D02*
D03*
X00065Y002345D02*
D03*
Y001755D02*
D03*
X011224Y004885D02*
D03*
Y005475D02*
D03*
Y006039D02*
D03*
Y00663D02*
D03*
D22*
X011991Y015548D02*
D03*
X012188D02*
D03*
X012385D02*
D03*
X012582D02*
D03*
X012779D02*
D03*
X012976D02*
D03*
X013172D02*
D03*
X013369D02*
D03*
X013566D02*
D03*
X013763D02*
D03*
X01396D02*
D03*
X014157D02*
D03*
Y012221D02*
D03*
X01396D02*
D03*
X013763D02*
D03*
X013566D02*
D03*
X013369D02*
D03*
X013172D02*
D03*
X012976D02*
D03*
X012779D02*
D03*
X012582D02*
D03*
X012385D02*
D03*
X012188D02*
D03*
X011991D02*
D03*
D23*
X014737Y014967D02*
D03*
Y01477D02*
D03*
Y014574D02*
D03*
Y014377D02*
D03*
Y01418D02*
D03*
Y013983D02*
D03*
Y013786D02*
D03*
Y013589D02*
D03*
Y013393D02*
D03*
Y013196D02*
D03*
Y012999D02*
D03*
Y012802D02*
D03*
X011411Y012999D02*
D03*
Y013196D02*
D03*
Y013393D02*
D03*
Y013589D02*
D03*
Y013786D02*
D03*
Y013983D02*
D03*
Y01418D02*
D03*
Y014377D02*
D03*
Y014574D02*
D03*
Y01477D02*
D03*
Y014967D02*
D03*
Y012802D02*
D03*
D24*
X012166Y007185D02*
D03*
Y006685D02*
D03*
Y006185D02*
D03*
Y005685D02*
D03*
X014312Y007185D02*
D03*
Y006685D02*
D03*
Y006185D02*
D03*
Y005685D02*
D03*
D25*
X004224Y015385D02*
D03*
Y014485D02*
D03*
X006424Y019085D02*
D03*
Y018185D02*
D03*
D26*
X008039Y014868D02*
D03*
Y014002D02*
D03*
X008709D02*
D03*
Y014868D02*
D03*
D27*
X007808Y01896D02*
D03*
X00884Y018584D02*
D03*
Y01821D02*
D03*
Y018958D02*
D03*
X007808Y01821D02*
D03*
D28*
X014844Y019878D02*
D03*
Y019485D02*
D03*
Y019091D02*
D03*
X015974D02*
D03*
Y019485D02*
D03*
Y019878D02*
D03*
D29*
X008Y000775D02*
D03*
Y001563D02*
D03*
Y00235D02*
D03*
Y003137D02*
D03*
Y003925D02*
D03*
Y004712D02*
D03*
Y0055D02*
D03*
Y006287D02*
D03*
X001701Y000775D02*
D03*
Y001563D02*
D03*
Y00235D02*
D03*
Y003137D02*
D03*
Y003925D02*
D03*
Y004712D02*
D03*
Y0055D02*
D03*
Y006287D02*
D03*
D51*
X015409Y019485D02*
D03*
D52*
X001701Y000775D02*
X008D01*
X011115D01*
X00065Y002345D02*
X000652Y002348D01*
X001698D01*
X001701Y00235D01*
X0028D01*
X010224Y001885D02*
X011374Y003035D01*
X007463Y006287D02*
X008D01*
X007046Y006704D02*
X007463Y006287D01*
X00065Y002345D02*
Y0119D01*
X007046Y006704D02*
Y009785D01*
X008024D01*
X008429Y010189D01*
Y011335D01*
X011094Y010465D02*
X011124Y010435D01*
X010641Y010465D02*
X011094D01*
X010372Y010734D02*
X010641Y010465D01*
X010372Y010734D02*
Y011285D01*
X010369Y011288D02*
X010372Y011285D01*
X010369Y011288D02*
Y011335D01*
X010372Y011337D01*
X011115Y000775D02*
X012224Y001885D01*
X014124Y001935D02*
X014974Y001085D01*
X013024Y003035D02*
X014124Y001935D01*
X011374Y003035D02*
X013024D01*
X014974Y001085D02*
X018181D01*
X019024Y001927D01*
X020024D02*
Y004585D01*
X018824Y005785D02*
X020024Y004585D01*
X013024Y007885D02*
X013839D01*
X013939Y009511D02*
X01395Y0095D01*
X013939Y009511D02*
Y011074D01*
X013929Y011085D02*
X013939Y011074D01*
X014429Y007885D02*
X014439D01*
X014489Y007935D01*
X015324D01*
X014424Y00789D02*
Y00853D01*
X014429Y008535D01*
X015124D01*
X015374Y011085D02*
X015794Y011505D01*
X014522Y010087D02*
X014524Y010085D01*
X014522Y010087D02*
Y011082D01*
X014519Y011085D02*
X015374D01*
X004674Y018485D02*
X004679Y018489D01*
X005424D01*
X009874Y01898D02*
Y020835D01*
Y018389D02*
X010724D01*
X009874Y01898D02*
X010724D01*
Y018389D02*
X010773Y01834D01*
Y018146D02*
Y01834D01*
X014076Y018432D02*
X014079Y018435D01*
X010874Y020835D02*
X012179Y01953D01*
Y017985D02*
Y01953D01*
X014076Y018432D02*
Y019287D01*
X015794Y011505D02*
Y012705D01*
X015824Y012735D01*
X018874Y014735D02*
X019624D01*
X020024Y015135D01*
Y015589D01*
X015974Y01553D02*
X016627D01*
X016681Y015585D01*
X016724D01*
X014669Y018435D02*
X015274D01*
X019975Y016229D02*
X020024Y01618D01*
X019975Y016229D02*
Y017234D01*
X019474Y017735D02*
X019975Y017234D01*
X018874Y017735D02*
X019474D01*
X00065Y0119D02*
X003235Y014485D01*
X004224D02*
X004333Y014375D01*
Y014075D02*
Y014375D01*
X008039Y014002D02*
X008129Y013912D01*
Y013185D02*
Y013912D01*
X009724Y012939D02*
X010374D01*
X009724Y01353D02*
X010374D01*
X010372Y011337D02*
Y012937D01*
X010374Y012939D01*
X002924Y014975D02*
Y016075D01*
Y014975D02*
X003424Y014475D01*
X003235Y014485D02*
X004224D01*
X003424Y014475D02*
X004189D01*
X008619Y015635D02*
X008629D01*
X002924Y016075D02*
X003324Y016475D01*
X008119D01*
X006424Y017385D02*
Y018185D01*
Y017385D02*
X006424Y017385D01*
X006424Y018185D02*
X006424Y018185D01*
X008119Y016475D02*
X008129Y016485D01*
X008129Y016485D02*
Y017285D01*
Y016485D02*
X008129Y016485D01*
X008129Y017285D02*
X008129Y017285D01*
X008629Y015635D02*
X008678Y015684D01*
Y015694D01*
X008719Y015735D01*
Y016485D02*
Y017285D01*
Y015735D02*
Y016485D01*
Y017285D02*
X008768Y017334D01*
X009523D01*
X009874Y017685D01*
Y018389D01*
X010773Y018146D02*
X010935Y017985D01*
X010724Y016685D02*
X011579D01*
X010935Y017985D02*
X012179D01*
X012174Y01668D02*
Y01798D01*
X012179Y017985D01*
X012174Y01668D02*
X012188Y016666D01*
X014074Y017785D02*
X014076Y017787D01*
Y018432D01*
D53*
X001701Y000775D02*
Y001563D01*
D54*
X012301Y005685D02*
X012309Y005692D01*
X013042D01*
X01305Y0057D01*
X013839Y006489D01*
Y007885D01*
D55*
X014312Y007185D02*
X014406D01*
X014424Y007203D01*
Y00789D01*
D56*
X013929Y011085D02*
X01396Y011116D01*
X014429Y007885D02*
X014447Y007867D01*
X014424Y00789D02*
X014429Y007885D01*
X014519Y011085D02*
Y011489D01*
X006424Y018185D02*
X006439Y0182D01*
X007798D01*
X007808Y01821D01*
X007808Y018209D02*
X007808Y01821D01*
X00884D02*
X008845Y018215D01*
X009257D01*
X00884Y018958D02*
X009346D01*
X009257Y018215D02*
X009346Y018304D01*
Y018958D01*
X009852D01*
X009874Y01898D01*
X014737Y014967D02*
X014759D01*
Y01522D01*
X015074Y015535D01*
X014737Y01477D02*
X01537D01*
X015539Y014939D01*
X015974D01*
X015969Y015535D02*
X015974Y01553D01*
X015074Y015535D02*
X015969D01*
X016574Y017285D02*
Y01803D01*
X016569Y018035D02*
X016574Y01803D01*
X016569Y018035D02*
Y019289D01*
X016374Y019485D02*
X016569Y019289D01*
X015974Y019485D02*
X016374D01*
X01396Y011116D02*
Y012221D01*
X014157Y011852D02*
Y012221D01*
Y011852D02*
X014519Y011489D01*
X008039Y014002D02*
X008216Y014179D01*
X008531Y014691D02*
X008709Y014868D01*
X010374Y012939D02*
X010379Y012935D01*
X010374Y01353D02*
X010433Y013589D01*
X010379Y012935D02*
X010624D01*
X011082Y013393D01*
X010433Y013589D02*
X011411D01*
X011082Y013393D02*
X011411D01*
X007808Y017585D02*
Y018209D01*
Y017585D02*
X007981Y017413D01*
X008001D01*
X008129Y017285D01*
X011579Y01628D02*
Y016685D01*
Y01628D02*
X011991Y015867D01*
Y015548D02*
Y015867D01*
X012188Y015548D02*
Y016666D01*
D57*
X012224Y001885D02*
D03*
X011224Y003885D02*
D03*
X010224Y001885D02*
D03*
X018824Y007785D02*
D03*
X020824Y006785D02*
D03*
X018824Y005785D02*
D03*
D58*
X014124Y001935D02*
D03*
X015124D02*
D03*
X019024Y001927D02*
D03*
X020024D02*
D03*
D59*
X016124Y001935D02*
D03*
X021024Y001927D02*
D03*
D60*
X007924Y007087D02*
D03*
X015011D02*
D03*
D61*
X009874Y020835D02*
D03*
D62*
X010874D02*
D03*
X018874Y012135D02*
D03*
Y011135D02*
D03*
Y010135D02*
D03*
Y016735D02*
D03*
Y015735D02*
D03*
Y014735D02*
D03*
D63*
Y013135D02*
D03*
Y017735D02*
D03*
D64*
X0028Y00235D02*
D03*
X01305Y0057D02*
D03*
X013024Y007885D02*
D03*
X01395Y0095D02*
D03*
X014524Y010085D02*
D03*
X011124Y010435D02*
D03*
X010724Y016685D02*
D03*
X006424Y017385D02*
D03*
X014074Y017785D02*
D03*
X004674Y018485D02*
D03*
X015124Y008535D02*
D03*
X015824Y012735D02*
D03*
X016724Y015585D02*
D03*
X016574Y017285D02*
D03*
X015274Y018435D02*
D03*
D65*
X00275Y00315D02*
D03*
Y0039D02*
D03*
X00875Y00475D02*
D03*
X012974Y006685D02*
D03*
X00895Y0071D02*
D03*
X009774Y011879D02*
D03*
X012274Y013785D02*
D03*
X010674Y014785D02*
D03*
X005724D02*
D03*
X015174Y006185D02*
D03*
X015974Y018585D02*
D03*
X016474Y019885D02*
D03*
M02*
