M48
;Layer_Color=9474304
;FILE_FORMAT=2:4
INCH,LZ
;TYPE=PLATED
T1F00S00C0.0157
T2F00S00C0.0276
T3F00S00C0.0300
T4F00S00C0.0350
T5F00S00C0.0402
T6F00S00C0.0433
%
T01
X00275Y00315
Y0039
X00875Y00475
X00895Y0071
X012974Y006685
X015174Y006185
X012274Y013785
X010674Y014785
X009774Y011879
X005724Y014785
X015974Y018585
X016474Y019885
T02
X0028Y00235
X01305Y0057
X013024Y007885
X01395Y0095
X014524Y010085
X015124Y008535
X011124Y010435
X015824Y012735
X016724Y015585
X016574Y017285
X015274Y018435
X014074Y017785
X010724Y016685
X006424Y017385
X004674Y018485
T03
X007924Y007087
X015011
T04
X010224Y001885
X012224
X011224Y003885
X018824Y005785
Y007785
X020824Y006785
T05
X014124Y001935
X015124
X016124
X019024Y001927
X020024
X021024
T06
X018874Y010135
Y011135
Y012135
Y013135
Y014735
Y015735
Y016735
Y017735
X010874Y020835
X009874
M30
