G04*
G04 #@! TF.GenerationSoftware,Altium Limited,Altium Designer,21.3.2 (30)*
G04*
G04 Layer_Color=16711935*
%FSTAX24Y24*%
%MOIN*%
G70*
G04*
G04 #@! TF.SameCoordinates,7CAEB1DE-A824-4D29-B8D0-2D7E757E666D*
G04*
G04*
G04 #@! TF.FilePolarity,Negative*
G04*
G01*
G75*
%ADD42C,0.0830*%
%ADD43C,0.0678*%
%ADD44R,0.0678X0.0678*%
%ADD45C,0.0395*%
%ADD46R,0.0710X0.0710*%
%ADD47C,0.0710*%
%ADD48R,0.0710X0.0710*%
%ADD49C,0.0513*%
%ADD50C,0.0356*%
D42*
X012224Y001885D02*
D03*
X011224Y003885D02*
D03*
X010224Y001885D02*
D03*
X018824Y007785D02*
D03*
X020824Y006785D02*
D03*
X018824Y005785D02*
D03*
D43*
X014124Y001935D02*
D03*
X015124D02*
D03*
X019024Y001927D02*
D03*
X020024D02*
D03*
D44*
X016124Y001935D02*
D03*
X021024Y001927D02*
D03*
D45*
X007924Y007087D02*
D03*
X015011D02*
D03*
D46*
X009874Y020835D02*
D03*
D47*
X010874D02*
D03*
X018874Y012135D02*
D03*
Y011135D02*
D03*
Y010135D02*
D03*
Y016735D02*
D03*
Y015735D02*
D03*
Y014735D02*
D03*
D48*
Y013135D02*
D03*
Y017735D02*
D03*
D49*
X0028Y00235D02*
D03*
X01305Y0057D02*
D03*
X013024Y007885D02*
D03*
X01395Y0095D02*
D03*
X014524Y010085D02*
D03*
X011124Y010435D02*
D03*
X010724Y016685D02*
D03*
X006424Y017385D02*
D03*
X014074Y017785D02*
D03*
X004674Y018485D02*
D03*
X015124Y008535D02*
D03*
X015824Y012735D02*
D03*
X016724Y015585D02*
D03*
X016574Y017285D02*
D03*
X015274Y018435D02*
D03*
D50*
X00275Y00315D02*
D03*
Y0039D02*
D03*
X00875Y00475D02*
D03*
X012974Y006685D02*
D03*
X00895Y0071D02*
D03*
X009774Y011879D02*
D03*
X012274Y013785D02*
D03*
X010674Y014785D02*
D03*
X005724D02*
D03*
X015174Y006185D02*
D03*
X015974Y018585D02*
D03*
X016474Y019885D02*
D03*
M02*
