G04*
G04 #@! TF.GenerationSoftware,Altium Limited,Altium Designer,21.3.2 (30)*
G04*
G04 Layer_Color=65535*
%FSTAX24Y24*%
%MOIN*%
G70*
G04*
G04 #@! TF.SameCoordinates,7CAEB1DE-A824-4D29-B8D0-2D7E757E666D*
G04*
G04*
G04 #@! TF.FilePolarity,Positive*
G04*
G01*
G75*
%ADD10C,0.0070*%
%ADD11C,0.0236*%
%ADD12C,0.0098*%
%ADD13C,0.0100*%
%ADD14C,0.0079*%
%ADD15C,0.0040*%
%ADD16C,0.0050*%
%ADD17C,0.0039*%
%ADD18R,0.1000X0.0500*%
D10*
X010805Y003986D02*
G03*
X01018Y002338I000419J-001101D01*
G01*
X012267Y002348D02*
G03*
X011643Y003996I-001044J000547D01*
G01*
X019287Y005741D02*
G03*
X020935Y006366I000547J001044D01*
G01*
X020925Y007204D02*
G03*
X019277Y007828I-001101J-000419D01*
G01*
X010314Y003015D02*
X011084D01*
Y003275D01*
X011354D01*
Y003025D02*
Y003275D01*
Y003025D02*
X012144D01*
Y002735D02*
Y003025D01*
X011344Y002735D02*
X012144D01*
X011344Y002445D02*
Y002735D01*
X011074Y002445D02*
X011344D01*
X011074D02*
Y002745D01*
X010304D02*
X011074D01*
X010304D02*
Y003015D01*
X010544Y002175D02*
X011894D01*
X011639Y004345D02*
X012224Y004255D01*
X012524Y003955D01*
Y002205D02*
Y003955D01*
X010534Y001585D02*
X011904D01*
X009914Y002195D02*
Y003945D01*
X010224Y004255D01*
X010764Y004345D01*
X011639D01*
X012024Y001445D02*
X012534D01*
X009934D02*
X010444D01*
X018384Y007565D02*
Y008075D01*
Y005475D02*
Y005985D01*
X021284Y00637D02*
Y007245D01*
X021194Y007785D02*
X021284Y007245D01*
X020884Y008095D02*
X021194Y007785D01*
X019134Y008095D02*
X020884D01*
X018524Y006105D02*
Y007475D01*
X019144Y005485D02*
X020894D01*
X021194Y005785D01*
X021284Y00637D01*
X019114Y006115D02*
Y007465D01*
X019684Y007705D02*
X019954D01*
X019684Y006935D02*
Y007705D01*
X019384Y006935D02*
X019684D01*
X019384Y006665D02*
Y006935D01*
Y006665D02*
X019674D01*
Y005865D02*
Y006665D01*
Y005865D02*
X019964D01*
Y006655D01*
X020214D01*
Y006925D01*
X019954D02*
X020214D01*
X019954D02*
Y007695D01*
D11*
X012365Y014711D02*
G03*
X012365Y014711I-000118J0D01*
G01*
X013121Y007025D02*
G03*
X013121Y007025I-000118J0D01*
G01*
D12*
X01146Y015243D02*
G03*
X01146Y015243I-000049J0D01*
G01*
X012215Y007519D02*
G03*
X012215Y007519I-000049J0D01*
G01*
D13*
X007574Y015085D02*
G03*
X007574Y015085I-00005J0D01*
G01*
X009534Y009055D02*
Y009505D01*
Y010065D02*
Y010515D01*
X007924Y009535D02*
Y010035D01*
Y009535D02*
X008924D01*
Y010035D01*
X007924D02*
X008924D01*
X007314Y010515D02*
X009534D01*
X007314Y009055D02*
X009534D01*
X007314D02*
Y009505D01*
Y010065D02*
Y010515D01*
D14*
X014466Y019878D02*
G03*
X014466Y019878I-000039J0D01*
G01*
X005047Y000382D02*
G03*
X004654Y000382I-000197J0D01*
G01*
X015624Y001435D02*
Y002435D01*
X016722Y001435D02*
Y002435D01*
X013526Y001435D02*
X016722D01*
X013526D02*
Y002435D01*
X016722D01*
X011374Y020335D02*
Y021335D01*
X009374Y020335D02*
X011374D01*
X009374D02*
Y021335D01*
X011374D01*
X020524Y001427D02*
Y002427D01*
X021622Y001427D02*
Y002427D01*
X018426Y001427D02*
X021622D01*
X018426D02*
Y002427D01*
X021622D01*
X018374Y009635D02*
X019374D01*
X018374D02*
Y013635D01*
X019374Y009635D02*
Y013635D01*
X018374D02*
X019374D01*
X018374Y012635D02*
X019374D01*
X018374Y014235D02*
X019374D01*
X018374D02*
Y018235D01*
X019374Y014235D02*
Y018235D01*
X018374D02*
X019374D01*
X018374Y017235D02*
X019374D01*
X011853Y012664D02*
X014294D01*
X011853Y015105D02*
X014294D01*
Y012664D02*
Y015105D01*
X011853Y012664D02*
Y015105D01*
X012609Y00545D02*
Y007419D01*
X013869Y00545D02*
Y007419D01*
X012609D02*
X013869D01*
X012609Y00545D02*
X013869D01*
X005047Y000382D02*
X007474D01*
X002226D02*
X004654D01*
X002226D02*
Y006681D01*
X007474D01*
Y000382D02*
Y006681D01*
D15*
X009544Y011105D02*
Y011565D01*
Y011105D02*
X010614D01*
Y011565D01*
X009544D02*
X010614D01*
X010034Y011495D02*
X010114D01*
X010034Y011175D02*
X010114D01*
X009254Y011105D02*
Y011565D01*
X008184D02*
X009254D01*
X008184Y011105D02*
Y011565D01*
Y011105D02*
X009254D01*
X008684Y011175D02*
X008764D01*
X008684Y011495D02*
X008764D01*
X009884Y013195D02*
Y013275D01*
X009564Y013195D02*
Y013275D01*
X009494Y012705D02*
Y013775D01*
X009954D01*
Y012705D02*
Y013775D01*
X009494Y012705D02*
X009954D01*
X010144D02*
X010604D01*
Y013775D01*
X010144D02*
X010604D01*
X010144Y012705D02*
Y013775D01*
X010214Y013195D02*
Y013275D01*
X010534Y013195D02*
Y013275D01*
X009344Y013905D02*
X009804D01*
Y014975D01*
X009344D02*
X009804D01*
X009344Y013905D02*
Y014975D01*
X009414Y014395D02*
Y014475D01*
X009734Y014395D02*
Y014475D01*
X015694Y005455D02*
X016154D01*
Y006525D01*
X015694D02*
X016154D01*
X015694Y005455D02*
Y006525D01*
X015764Y005945D02*
Y006025D01*
X016084Y005945D02*
Y006025D01*
X017604Y005455D02*
Y005915D01*
X016534D02*
X017604D01*
X016534Y005455D02*
Y005915D01*
Y005455D02*
X017604D01*
X017034Y005525D02*
X017114D01*
X017034Y005845D02*
X017114D01*
X014094Y008045D02*
X014174D01*
X014094Y007725D02*
X014174D01*
X013594Y007655D02*
X014664D01*
X013594D02*
Y008115D01*
X014664D01*
Y007655D02*
Y008115D01*
X013594Y008305D02*
Y008765D01*
Y008305D02*
X014664D01*
Y008765D01*
X013594D02*
X014664D01*
X014084Y008695D02*
X014164D01*
X014084Y008375D02*
X014164D01*
X015579Y008095D02*
X015659D01*
X015579Y007775D02*
X015659D01*
X015079Y007705D02*
X016149D01*
X015079D02*
Y008165D01*
X016149D01*
Y007705D02*
Y008165D01*
X014184Y011245D02*
X014264D01*
X014184Y010925D02*
X014264D01*
X013684Y010855D02*
X014754D01*
X013684D02*
Y011315D01*
X014754D01*
Y010855D02*
Y011315D01*
X004524Y014485D02*
X004574D01*
Y015385D01*
X004524D02*
X004574D01*
X003874Y014485D02*
X003924D01*
X003874D02*
Y015385D01*
X003924D01*
X004944Y015615D02*
X005404D01*
X004944Y014545D02*
Y015615D01*
Y014545D02*
X005404D01*
Y015615D01*
X005334Y015045D02*
Y015125D01*
X005014Y015045D02*
Y015125D01*
X008284Y015475D02*
X008364D01*
X008284Y015795D02*
X008364D01*
X007794Y015865D02*
X008864D01*
Y015405D02*
Y015865D01*
X007794Y015405D02*
X008864D01*
X007794D02*
Y015865D01*
X008384Y017125D02*
X008464D01*
X008384Y017445D02*
X008464D01*
X007894Y017515D02*
X008964D01*
Y017055D02*
Y017515D01*
X007894Y017055D02*
X008964D01*
X007894D02*
Y017515D01*
Y016255D02*
Y016715D01*
Y016255D02*
X008964D01*
Y016715D01*
X007894D02*
X008964D01*
X008384Y016645D02*
X008464D01*
X008384Y016325D02*
X008464D01*
X009714Y018645D02*
Y018725D01*
X010034Y018645D02*
Y018725D01*
X010104Y018145D02*
Y019215D01*
X009644Y018145D02*
X010104D01*
X009644D02*
Y019215D01*
X010104D01*
X010494D02*
X010954D01*
X010494Y018145D02*
Y019215D01*
Y018145D02*
X010954D01*
Y019215D01*
X010884Y018645D02*
Y018725D01*
X010564Y018645D02*
Y018725D01*
X005194Y019315D02*
X005654D01*
X005194Y018245D02*
Y019315D01*
Y018245D02*
X005654D01*
Y019315D01*
X005584Y018745D02*
Y018825D01*
X005264Y018745D02*
Y018825D01*
X006724Y018185D02*
X006774D01*
Y019085D01*
X006724D02*
X006774D01*
X006074Y018185D02*
X006124D01*
X006074D02*
Y019085D01*
X006124D01*
X008084Y020025D02*
X008164D01*
X008084Y020345D02*
X008164D01*
X007594Y020415D02*
X008664D01*
Y019955D02*
Y020415D01*
X007594Y019955D02*
X008664D01*
X007594D02*
Y020415D01*
X011834Y016525D02*
X011914D01*
X011834Y016845D02*
X011914D01*
X011344Y016915D02*
X012414D01*
Y016455D02*
Y016915D01*
X011344Y016455D02*
X012414D01*
X011344D02*
Y016915D01*
X012434Y018145D02*
X012514D01*
X012434Y017825D02*
X012514D01*
X011934Y017755D02*
X013004D01*
X011934D02*
Y018215D01*
X013004D01*
Y017755D02*
Y018215D01*
X020184Y015845D02*
Y015925D01*
X019864Y015845D02*
Y015925D01*
X019794Y015355D02*
Y016425D01*
X020254D01*
Y015355D02*
Y016425D01*
X019794Y015355D02*
X020254D01*
X013914Y019545D02*
Y019625D01*
X014234Y019545D02*
Y019625D01*
X014304Y019045D02*
Y020115D01*
X013844Y019045D02*
X014304D01*
X013844D02*
Y020115D01*
X014304D01*
X014334Y018275D02*
X014414D01*
X014334Y018595D02*
X014414D01*
X013844Y018665D02*
X014914D01*
Y018205D02*
Y018665D01*
X013844Y018205D02*
X014914D01*
X013844D02*
Y018665D01*
X015744Y017805D02*
Y018265D01*
Y017805D02*
X016814D01*
Y018265D01*
X015744D02*
X016814D01*
X016234Y018195D02*
X016314D01*
X016234Y017875D02*
X016314D01*
X015814Y015195D02*
Y015275D01*
X016134Y015195D02*
Y015275D01*
X016204Y014695D02*
Y015765D01*
X015744Y014695D02*
X016204D01*
X015744D02*
Y015765D01*
X016204D01*
X00042Y00258D02*
X00088D01*
X00042Y00151D02*
Y00258D01*
Y00151D02*
X00088D01*
Y00258D01*
X00081Y00201D02*
Y00209D01*
X00049Y00201D02*
Y00209D01*
X010994Y00465D02*
X011454D01*
Y00572D01*
X010994D02*
X011454D01*
X010994Y00465D02*
Y00572D01*
X011064Y00514D02*
Y00522D01*
X011384Y00514D02*
Y00522D01*
X010994Y005805D02*
X011454D01*
Y006875D01*
X010994D02*
X011454D01*
X010994Y005805D02*
Y006875D01*
X011064Y006295D02*
Y006375D01*
X011384Y006295D02*
Y006375D01*
X008384Y013345D02*
X008464D01*
X008384Y013025D02*
X008464D01*
X007884Y012955D02*
X008954D01*
X007884D02*
Y013415D01*
X008954D01*
Y012955D02*
Y013415D01*
D16*
X009074Y013585D02*
Y015285D01*
X007674Y013585D02*
X009074D01*
X007674Y015285D02*
X009074D01*
X007674Y013585D02*
Y015285D01*
X008761Y01792D02*
X008828Y017987D01*
X008895Y01792D02*
X009166D01*
X008828Y017987D02*
X008895Y01792D01*
X007482Y01925D02*
X009166D01*
Y01792D02*
Y01925D01*
X007482Y01792D02*
X008761D01*
X007482D02*
Y01925D01*
X014818Y020087D02*
X016D01*
X014818Y018882D02*
X016D01*
D17*
X009979Y001188D02*
Y001004D01*
X01007Y000912D01*
X010162Y001004D01*
Y001188D01*
X010254Y000912D02*
Y001188D01*
X010392D01*
X010438Y001142D01*
Y00105D01*
X010392Y001004D01*
X010254D01*
X010346D02*
X010438Y000912D01*
X01053D02*
X010621D01*
X010575D01*
Y001188D01*
X01053Y001142D01*
X015868Y002988D02*
Y002712D01*
X01596Y002804D01*
X016052Y002712D01*
Y002988D01*
X016143D02*
X016235D01*
X016189D01*
Y002712D01*
X016143D01*
X016235D01*
X016373D02*
Y002988D01*
X016557Y002712D01*
Y002988D01*
X016648D02*
Y002712D01*
X016786D01*
X016832Y002758D01*
Y002942D01*
X016786Y002988D01*
X016648D01*
X012086Y021272D02*
X011994D01*
X01204D01*
Y021043D01*
X011994Y020997D01*
X011948D01*
X011903Y021043D01*
X012178Y020997D02*
Y021272D01*
X012316D01*
X012362Y021226D01*
Y021135D01*
X012316Y021089D01*
X012178D01*
X012454Y020997D02*
X012545D01*
X012499D01*
Y021272D01*
X012454Y021226D01*
X020668Y002712D02*
Y002988D01*
X020806D01*
X020852Y002942D01*
Y00285D01*
X020806Y002804D01*
X020668D01*
X02076D02*
X020852Y002712D01*
X020943D02*
Y002896D01*
X021035Y002988D01*
X021127Y002896D01*
Y002712D01*
Y00285D01*
X020943D01*
X021219Y002988D02*
X021311D01*
X021265D01*
Y002712D01*
X021219D01*
X021311D01*
X021448D02*
Y002988D01*
X021632Y002712D01*
Y002988D01*
X018364Y00871D02*
Y008526D01*
X018456Y008435D01*
X018548Y008526D01*
Y00871D01*
X018639Y008435D02*
Y00871D01*
X018777D01*
X018823Y008664D01*
Y008572D01*
X018777Y008526D01*
X018639D01*
X018731D02*
X018823Y008435D01*
X019099D02*
X018915D01*
X019099Y008618D01*
Y008664D01*
X019053Y00871D01*
X018961D01*
X018915Y008664D01*
X019938Y013434D02*
Y013526D01*
Y01348D01*
X019708D01*
X019662Y013526D01*
Y013571D01*
X019708Y013617D01*
X019662Y013342D02*
X019938D01*
Y013204D01*
X019892Y013158D01*
X0198D01*
X019754Y013204D01*
Y013342D01*
X019892Y013066D02*
X019938Y01302D01*
Y012929D01*
X019892Y012883D01*
X019846D01*
X0198Y012929D01*
Y012974D01*
Y012929D01*
X019754Y012883D01*
X019708D01*
X019662Y012929D01*
Y01302D01*
X019708Y013066D01*
X019938Y018034D02*
Y018125D01*
Y01808D01*
X019708D01*
X019662Y018125D01*
Y018171D01*
X019708Y018217D01*
X019662Y017942D02*
X019938D01*
Y017804D01*
X019892Y017758D01*
X0198D01*
X019754Y017804D01*
Y017942D01*
X019662Y017483D02*
Y017666D01*
X019846Y017483D01*
X019892D01*
X019938Y017529D01*
Y01762D01*
X019892Y017666D01*
X007353Y011022D02*
Y010747D01*
X00749D01*
X007536Y010793D01*
Y010839D01*
X00749Y010885D01*
X007353D01*
X00749D01*
X007536Y010931D01*
Y010976D01*
X00749Y011022D01*
X007353D01*
X007628D02*
X007812D01*
X00772D01*
Y010747D01*
X007904D02*
X007995D01*
X007949D01*
Y011022D01*
X007904Y010976D01*
X010756Y011212D02*
Y011488D01*
X010893D01*
X010939Y011442D01*
Y01135D01*
X010893Y011304D01*
X010756D01*
X010847D02*
X010939Y011212D01*
X011031D02*
X011123D01*
X011077D01*
Y011488D01*
X011031Y011442D01*
X011444Y011212D02*
X011261D01*
X011444Y011396D01*
Y011442D01*
X011398Y011488D01*
X011307D01*
X011261Y011442D01*
X008363Y011926D02*
X008317Y011972D01*
X008226D01*
X00818Y011926D01*
Y011743D01*
X008226Y011697D01*
X008317D01*
X008363Y011743D01*
X008455Y011697D02*
X008547D01*
X008501D01*
Y011972D01*
X008455Y011926D01*
X008685Y011743D02*
X008731Y011697D01*
X008822D01*
X008868Y011743D01*
Y011926D01*
X008822Y011972D01*
X008731D01*
X008685Y011926D01*
Y011881D01*
X008731Y011835D01*
X008868D01*
X009158Y013039D02*
X009112Y012993D01*
Y012902D01*
X009158Y012856D01*
X009342D01*
X009388Y012902D01*
Y012993D01*
X009342Y013039D01*
X009388Y013131D02*
Y013223D01*
Y013177D01*
X009112D01*
X009158Y013131D01*
X009112Y013544D02*
X009158Y013453D01*
X00925Y013361D01*
X009342D01*
X009388Y013407D01*
Y013498D01*
X009342Y013544D01*
X009296D01*
X00925Y013498D01*
Y013361D01*
X010289Y014192D02*
X010243Y014238D01*
X010152D01*
X010106Y014192D01*
Y014008D01*
X010152Y013962D01*
X010243D01*
X010289Y014008D01*
X010381Y013962D02*
X010473D01*
X010427D01*
Y014238D01*
X010381Y014192D01*
X010611Y014238D02*
X010794D01*
Y014192D01*
X010611Y014008D01*
Y013962D01*
X01442Y016188D02*
Y015958D01*
X014466Y015912D01*
X014558D01*
X014604Y015958D01*
Y016188D01*
X014696Y016142D02*
X014742Y016188D01*
X014834D01*
X01488Y016142D01*
Y016096D01*
X014834Y01605D01*
X014788D01*
X014834D01*
X01488Y016004D01*
Y015958D01*
X014834Y015912D01*
X014742D01*
X014696Y015958D01*
X009738Y015102D02*
X009462D01*
Y015239D01*
X009508Y015285D01*
X0096D01*
X009646Y015239D01*
Y015102D01*
Y015193D02*
X009738Y015285D01*
Y015377D02*
Y015469D01*
Y015423D01*
X009462D01*
X009508Y015377D01*
X009738Y015607D02*
Y015698D01*
Y015653D01*
X009462D01*
X009508Y015607D01*
X016038Y004606D02*
X015762D01*
Y004743D01*
X015808Y004789D01*
X0159D01*
X015946Y004743D01*
Y004606D01*
Y004697D02*
X016038Y004789D01*
Y004881D02*
Y004973D01*
Y004927D01*
X015762D01*
X015808Y004881D01*
X016038Y005248D02*
X015762D01*
X0159Y005111D01*
Y005294D01*
X01262Y005288D02*
Y005058D01*
X012666Y005012D01*
X012758D01*
X012804Y005058D01*
Y005288D01*
X013034Y005012D02*
Y005288D01*
X012896Y00515D01*
X01308D01*
X016576Y006047D02*
Y006322D01*
X016714D01*
X01676Y006276D01*
Y006185D01*
X016714Y006139D01*
X016576D01*
X016668D02*
X01676Y006047D01*
X016851D02*
X016943D01*
X016897D01*
Y006322D01*
X016851Y006276D01*
X017081D02*
X017127Y006322D01*
X017219D01*
X017265Y006276D01*
Y006231D01*
X017219Y006185D01*
X017173D01*
X017219D01*
X017265Y006139D01*
Y006093D01*
X017219Y006047D01*
X017127D01*
X017081Y006093D01*
X012139Y007992D02*
X012093Y008038D01*
X012002D01*
X011956Y007992D01*
Y007808D01*
X012002Y007762D01*
X012093D01*
X012139Y007808D01*
X012231Y007762D02*
X012323D01*
X012277D01*
Y008038D01*
X012231Y007992D01*
X012644Y007762D02*
X012461D01*
X012644Y007946D01*
Y007992D01*
X012598Y008038D01*
X012507D01*
X012461Y007992D01*
X012982Y008397D02*
Y008672D01*
X013119D01*
X013165Y008626D01*
Y008535D01*
X013119Y008489D01*
X012982D01*
X013074D02*
X013165Y008397D01*
X013441D02*
X013257D01*
X013441Y008581D01*
Y008626D01*
X013395Y008672D01*
X013303D01*
X013257Y008626D01*
X01632Y007762D02*
Y008038D01*
X016458D01*
X016504Y007992D01*
Y0079D01*
X016458Y007854D01*
X01632D01*
X016412D02*
X016504Y007762D01*
X016596Y008038D02*
X01678D01*
Y007992D01*
X016596Y007808D01*
Y007762D01*
X013779Y010667D02*
X013733Y010713D01*
X013641D01*
X013595Y010667D01*
Y010483D01*
X013641Y010437D01*
X013733D01*
X013779Y010483D01*
X01387Y010437D02*
X013962D01*
X013916D01*
Y010713D01*
X01387Y010667D01*
X014284Y010713D02*
X0141D01*
Y010575D01*
X014192Y010621D01*
X014238D01*
X014284Y010575D01*
Y010483D01*
X014238Y010437D01*
X014146D01*
X0141Y010483D01*
X017818Y0103D02*
X018002D01*
X01791D01*
Y010024D01*
X018094Y0103D02*
X018278Y010024D01*
Y0103D02*
X018094Y010024D01*
X017818Y011024D02*
Y0113D01*
X017956D01*
X018002Y011254D01*
Y011162D01*
X017956Y011116D01*
X017818D01*
X01791D02*
X018002Y011024D01*
X018094Y0113D02*
X018278Y011024D01*
Y0113D02*
X018094Y011024D01*
X017727Y012204D02*
X017681Y01225D01*
X017589D01*
X017543Y012204D01*
Y01202D01*
X017589Y011974D01*
X017681D01*
X017727Y01202D01*
Y012112D01*
X017635D01*
X017818Y011974D02*
Y01225D01*
X018002Y011974D01*
Y01225D01*
X018094D02*
Y011974D01*
X018232D01*
X018278Y01202D01*
Y012204D01*
X018232Y01225D01*
X018094D01*
X003336Y014755D02*
X003612D01*
Y014893D01*
X003566Y014939D01*
X003382D01*
X003336Y014893D01*
Y014755D01*
X003612Y015214D02*
Y015031D01*
X003428Y015214D01*
X003382D01*
X003336Y015168D01*
Y015076D01*
X003382Y015031D01*
X004944Y015897D02*
Y016172D01*
X005082D01*
X005128Y016126D01*
Y016035D01*
X005082Y015989D01*
X004944D01*
X005036D02*
X005128Y015897D01*
X005404Y016172D02*
X005312Y016126D01*
X00522Y016035D01*
Y015943D01*
X005266Y015897D01*
X005358D01*
X005404Y015943D01*
Y015989D01*
X005358Y016035D01*
X00522D01*
X007235Y015742D02*
X007189Y015788D01*
X007097D01*
X007052Y015742D01*
Y015558D01*
X007097Y015512D01*
X007189D01*
X007235Y015558D01*
X007327Y015512D02*
X007419D01*
X007373D01*
Y015788D01*
X007327Y015742D01*
X007557Y015512D02*
X007648D01*
X007603D01*
Y015788D01*
X007557Y015742D01*
X007328Y017376D02*
X007282Y017422D01*
X00719D01*
X007144Y017376D01*
Y017193D01*
X00719Y017147D01*
X007282D01*
X007328Y017193D01*
X00742D02*
X007466Y017147D01*
X007558D01*
X007604Y017193D01*
Y017376D01*
X007558Y017422D01*
X007466D01*
X00742Y017376D01*
Y017331D01*
X007466Y017285D01*
X007604D01*
X007166Y013838D02*
Y013792D01*
X007258Y0137D01*
X00735Y013792D01*
Y013838D01*
X007258Y0137D02*
Y013562D01*
X007442D02*
X007534D01*
X007488D01*
Y013838D01*
X007442Y013792D01*
X007378Y016576D02*
X007332Y016622D01*
X00724D01*
X007194Y016576D01*
Y016393D01*
X00724Y016347D01*
X007332D01*
X007378Y016393D01*
X00747Y016576D02*
X007516Y016622D01*
X007608D01*
X007654Y016576D01*
Y016531D01*
X007608Y016485D01*
X007654Y016439D01*
Y016393D01*
X007608Y016347D01*
X007516D01*
X00747Y016393D01*
Y016439D01*
X007516Y016485D01*
X00747Y016531D01*
Y016576D01*
X007516Y016485D02*
X007608D01*
X009828Y017968D02*
X009782Y018014D01*
X00969D01*
X009644Y017968D01*
Y017785D01*
X00969Y017739D01*
X009782D01*
X009828Y017785D01*
X010104Y018014D02*
X00992D01*
Y017877D01*
X010012Y017923D01*
X010058D01*
X010104Y017877D01*
Y017785D01*
X010058Y017739D01*
X009966D01*
X00992Y017785D01*
X010754Y017992D02*
X010708Y018038D01*
X010616D01*
X01057Y017992D01*
Y017808D01*
X010616Y017762D01*
X010708D01*
X010754Y017808D01*
X01103Y018038D02*
X010938Y017992D01*
X010846Y0179D01*
Y017808D01*
X010892Y017762D01*
X010984D01*
X01103Y017808D01*
Y017854D01*
X010984Y0179D01*
X010846D01*
X007544Y019722D02*
Y019493D01*
X00759Y019447D01*
X007682D01*
X007728Y019493D01*
Y019722D01*
X008004Y019447D02*
X00782D01*
X008004Y019631D01*
Y019676D01*
X007958Y019722D01*
X007866D01*
X00782Y019676D01*
X005538Y019566D02*
X005262D01*
Y019704D01*
X005308Y01975D01*
X0054D01*
X005446Y019704D01*
Y019566D01*
Y019658D02*
X005538Y01975D01*
Y019842D02*
Y019934D01*
Y019888D01*
X005262D01*
X005308Y019842D01*
X00629Y019922D02*
Y019647D01*
X006428D01*
X006474Y019693D01*
Y019876D01*
X006428Y019922D01*
X00629D01*
X006566Y019647D02*
X006658D01*
X006612D01*
Y019922D01*
X006566Y019876D01*
X007878Y020926D02*
X007832Y020972D01*
X00774D01*
X007694Y020926D01*
Y020743D01*
X00774Y020697D01*
X007832D01*
X007878Y020743D01*
X00797Y020972D02*
X008154D01*
Y020926D01*
X00797Y020743D01*
Y020697D01*
X009463Y0202D02*
Y020016D01*
X009555Y019924D01*
X009647Y020016D01*
Y0202D01*
X009739D02*
X009831D01*
X009785D01*
Y019924D01*
X009739D01*
X009831D01*
X009968D02*
Y0202D01*
X010152Y019924D01*
Y0202D01*
X010747Y020154D02*
X010701Y0202D01*
X010609D01*
X010563Y020154D01*
Y01997D01*
X010609Y019924D01*
X010701D01*
X010747Y01997D01*
Y020062D01*
X010655D01*
X010839Y019924D02*
Y0202D01*
X011023Y019924D01*
Y0202D01*
X011114D02*
Y019924D01*
X011252D01*
X011298Y01997D01*
Y020154D01*
X011252Y0202D01*
X011114D01*
X011539Y017292D02*
X011493Y017338D01*
X011402D01*
X011356Y017292D01*
Y017108D01*
X011402Y017062D01*
X011493D01*
X011539Y017108D01*
X011631Y017062D02*
X011723D01*
X011677D01*
Y017338D01*
X011631Y017292D01*
X011861D02*
X011907Y017338D01*
X011998D01*
X012044Y017292D01*
Y017246D01*
X011998Y0172D01*
X011953D01*
X011998D01*
X012044Y017154D01*
Y017108D01*
X011998Y017062D01*
X011907D01*
X011861Y017108D01*
X011949Y018362D02*
Y018638D01*
X012087D01*
X012133Y018592D01*
Y0185D01*
X012087Y018454D01*
X011949D01*
X012041D02*
X012133Y018362D01*
X012225Y018592D02*
X012271Y018638D01*
X012362D01*
X012408Y018592D01*
Y018546D01*
X012362Y0185D01*
X012316D01*
X012362D01*
X012408Y018454D01*
Y018408D01*
X012362Y018362D01*
X012271D01*
X012225Y018408D01*
X020766Y016045D02*
X020812Y016091D01*
Y016183D01*
X020766Y016229D01*
X020582D01*
X020536Y016183D01*
Y016091D01*
X020582Y016045D01*
X020536Y015954D02*
Y015862D01*
Y015908D01*
X020812D01*
X020766Y015954D01*
Y015724D02*
X020812Y015678D01*
Y015586D01*
X020766Y01554D01*
X020582D01*
X020536Y015586D01*
Y015678D01*
X020582Y015724D01*
X020766D01*
X017513Y0158D02*
Y015524D01*
X017651D01*
X017697Y01557D01*
Y015754D01*
X017651Y0158D01*
X017513D01*
X017789D02*
X017881D01*
X017835D01*
Y015524D01*
X017789D01*
X017881D01*
X018156Y0158D02*
X018064D01*
X018018Y015754D01*
Y01557D01*
X018064Y015524D01*
X018156D01*
X018202Y01557D01*
Y015754D01*
X018156Y0158D01*
X017313Y014754D02*
X017359Y0148D01*
X017451D01*
X017497Y014754D01*
Y014708D01*
X017451Y014662D01*
X017405D01*
X017451D01*
X017497Y014616D01*
Y01457D01*
X017451Y014524D01*
X017359D01*
X017313Y01457D01*
X017589Y014524D02*
Y01457D01*
X017635D01*
Y014524D01*
X017589D01*
X017818Y014754D02*
X017864Y0148D01*
X017956D01*
X018002Y014754D01*
Y014708D01*
X017956Y014662D01*
X01791D01*
X017956D01*
X018002Y014616D01*
Y01457D01*
X017956Y014524D01*
X017864D01*
X017818Y01457D01*
X018094Y0148D02*
Y014616D01*
X018186Y014524D01*
X018278Y014616D01*
Y0148D01*
X017647Y016854D02*
X017601Y0169D01*
X017509D01*
X017463Y016854D01*
Y01667D01*
X017509Y016624D01*
X017601D01*
X017647Y01667D01*
X017739Y0169D02*
Y016624D01*
X017923D01*
X018014Y0169D02*
Y016624D01*
Y016716D01*
X018198Y0169D01*
X01806Y016762D01*
X018198Y016624D01*
X017647Y017804D02*
X017601Y01785D01*
X017509D01*
X017463Y017804D01*
Y01762D01*
X017509Y017574D01*
X017601D01*
X017647Y01762D01*
Y017712D01*
X017555D01*
X017739Y017574D02*
Y01785D01*
X017923Y017574D01*
Y01785D01*
X018014D02*
Y017574D01*
X018152D01*
X018198Y01762D01*
Y017804D01*
X018152Y01785D01*
X018014D01*
X014238Y02032D02*
X013962D01*
Y020458D01*
X014008Y020504D01*
X0141D01*
X014146Y020458D01*
Y02032D01*
Y020412D02*
X014238Y020504D01*
Y020734D02*
X013962D01*
X0141Y020596D01*
Y02078D01*
X014604Y017992D02*
X014558Y018038D01*
X014466D01*
X01442Y017992D01*
Y017808D01*
X014466Y017762D01*
X014558D01*
X014604Y017808D01*
X01488Y017762D02*
X014696D01*
X01488Y017946D01*
Y017992D01*
X014834Y018038D01*
X014742D01*
X014696Y017992D01*
X01634Y018387D02*
Y018663D01*
X016477D01*
X016523Y018617D01*
Y018525D01*
X016477Y018479D01*
X01634D01*
X016431D02*
X016523Y018387D01*
X016799Y018663D02*
X016615D01*
Y018525D01*
X016707Y018571D01*
X016753D01*
X016799Y018525D01*
Y018433D01*
X016753Y018387D01*
X016661D01*
X016615Y018433D01*
X014752Y020588D02*
X014843D01*
X014797D01*
Y020312D01*
X014752D01*
X014843D01*
X015165Y020542D02*
X015119Y020588D01*
X015027D01*
X014981Y020542D01*
Y020358D01*
X015027Y020312D01*
X015119D01*
X015165Y020358D01*
X015257Y020312D02*
X015348D01*
X015303D01*
Y020588D01*
X015257Y020542D01*
X015763Y016226D02*
X015717Y016272D01*
X015626D01*
X01558Y016226D01*
Y016043D01*
X015626Y015997D01*
X015717D01*
X015763Y016043D01*
X015855Y015997D02*
X015947D01*
X015901D01*
Y016272D01*
X015855Y016226D01*
X016222Y015997D02*
Y016272D01*
X016085Y016135D01*
X016268D01*
X002329Y007062D02*
Y007338D01*
X002466D01*
X002512Y007292D01*
Y0072D01*
X002466Y007154D01*
X002329D01*
X00242D02*
X002512Y007062D01*
X002604D02*
Y007246D01*
X002696Y007338D01*
X002788Y007246D01*
Y007062D01*
Y0072D01*
X002604D01*
X00288Y007062D02*
X002971D01*
X002925D01*
Y007338D01*
X00288Y007292D01*
X000558Y001004D02*
X000512Y000958D01*
Y000866D01*
X000558Y00082D01*
X000742D01*
X000788Y000866D01*
Y000958D01*
X000742Y001004D01*
X000788Y001234D02*
X000512D01*
X00065Y001096D01*
Y00128D01*
X010888Y00467D02*
X010612D01*
Y004808D01*
X010658Y004854D01*
X01075D01*
X010796Y004808D01*
Y00467D01*
Y004762D02*
X010888Y004854D01*
X010842Y004946D02*
X010888Y004992D01*
Y005084D01*
X010842Y00513D01*
X010658D01*
X010612Y005084D01*
Y004992D01*
X010658Y004946D01*
X010704D01*
X01075Y004992D01*
Y00513D01*
X010888Y005856D02*
X010612D01*
Y005993D01*
X010658Y006039D01*
X01075D01*
X010796Y005993D01*
Y005856D01*
Y005947D02*
X010888Y006039D01*
Y006131D02*
Y006223D01*
Y006177D01*
X010612D01*
X010658Y006131D01*
Y006361D02*
X010612Y006407D01*
Y006498D01*
X010658Y006544D01*
X010842D01*
X010888Y006498D01*
Y006407D01*
X010842Y006361D01*
X010658D01*
X007239Y013242D02*
X007193Y013288D01*
X007102D01*
X007056Y013242D01*
Y013058D01*
X007102Y013012D01*
X007193D01*
X007239Y013058D01*
X007331Y013012D02*
X007423D01*
X007377D01*
Y013288D01*
X007331Y013242D01*
X007561D02*
X007607Y013288D01*
X007698D01*
X007744Y013242D01*
Y013196D01*
X007698Y01315D01*
X007744Y013104D01*
Y013058D01*
X007698Y013012D01*
X007607D01*
X007561Y013058D01*
Y013104D01*
X007607Y01315D01*
X007561Y013196D01*
Y013242D01*
X007607Y01315D02*
X007698D01*
D18*
X008424Y009785D02*
D03*
M02*
