G04*
G04 #@! TF.GenerationSoftware,Altium Limited,Altium Designer,21.3.2 (30)*
G04*
G04 Layer_Color=2752767*
%FSTAX24Y24*%
%MOIN*%
G70*
G04*
G04 #@! TF.SameCoordinates,7CAEB1DE-A824-4D29-B8D0-2D7E757E666D*
G04*
G04*
G04 #@! TF.FilePolarity,Positive*
G04*
G01*
G75*
%ADD68C,0.0020*%
%ADD69C,0.0027*%
D68*
X012144Y001805D02*
Y001965D01*
X012304D01*
Y001805D01*
X012144D01*
X011144Y003805D02*
Y003965D01*
X011304D01*
Y003805D01*
X011144D01*
X010144Y001805D02*
Y001965D01*
X010304D01*
Y001805D01*
X010144D01*
X007924Y007007D02*
X007844Y007167D01*
X008004D01*
X007924Y007007D01*
X015011D02*
X014931Y007167D01*
X015091D01*
X015011Y007007D01*
X009874Y020755D02*
X009914Y020795D01*
X009954D01*
X009914Y020835D01*
X009954Y020875D01*
X009914D01*
X009874Y020915D01*
X009834Y020875D01*
X009794D01*
X009834Y020835D01*
X009794Y020795D01*
X009834D01*
X009874Y020755D01*
X010874D02*
X010914Y020795D01*
X010954D01*
X010914Y020835D01*
X010954Y020875D01*
X010914D01*
X010874Y020915D01*
X010834Y020875D01*
X010794D01*
X010834Y020835D01*
X010794Y020795D01*
X010834D01*
X010874Y020755D01*
X018744Y007705D02*
Y007865D01*
X018904D01*
Y007705D01*
X018744D01*
X020744Y006705D02*
Y006865D01*
X020904D01*
Y006705D01*
X020744D01*
X018744Y005705D02*
Y005865D01*
X018904D01*
Y005705D01*
X018744D01*
X018874Y013055D02*
X018914Y013095D01*
X018954D01*
X018914Y013135D01*
X018954Y013175D01*
X018914D01*
X018874Y013215D01*
X018834Y013175D01*
X018794D01*
X018834Y013135D01*
X018794Y013095D01*
X018834D01*
X018874Y013055D01*
Y012055D02*
X018914Y012095D01*
X018954D01*
X018914Y012135D01*
X018954Y012175D01*
X018914D01*
X018874Y012215D01*
X018834Y012175D01*
X018794D01*
X018834Y012135D01*
X018794Y012095D01*
X018834D01*
X018874Y012055D01*
Y011055D02*
X018914Y011095D01*
X018954D01*
X018914Y011135D01*
X018954Y011175D01*
X018914D01*
X018874Y011215D01*
X018834Y011175D01*
X018794D01*
X018834Y011135D01*
X018794Y011095D01*
X018834D01*
X018874Y011055D01*
Y010055D02*
X018914Y010095D01*
X018954D01*
X018914Y010135D01*
X018954Y010175D01*
X018914D01*
X018874Y010215D01*
X018834Y010175D01*
X018794D01*
X018834Y010135D01*
X018794Y010095D01*
X018834D01*
X018874Y010055D01*
Y017655D02*
X018914Y017695D01*
X018954D01*
X018914Y017735D01*
X018954Y017775D01*
X018914D01*
X018874Y017815D01*
X018834Y017775D01*
X018794D01*
X018834Y017735D01*
X018794Y017695D01*
X018834D01*
X018874Y017655D01*
Y016655D02*
X018914Y016695D01*
X018954D01*
X018914Y016735D01*
X018954Y016775D01*
X018914D01*
X018874Y016815D01*
X018834Y016775D01*
X018794D01*
X018834Y016735D01*
X018794Y016695D01*
X018834D01*
X018874Y016655D01*
Y015655D02*
X018914Y015695D01*
X018954D01*
X018914Y015735D01*
X018954Y015775D01*
X018914D01*
X018874Y015815D01*
X018834Y015775D01*
X018794D01*
X018834Y015735D01*
X018794Y015695D01*
X018834D01*
X018874Y015655D01*
Y014655D02*
X018914Y014695D01*
X018954D01*
X018914Y014735D01*
X018954Y014775D01*
X018914D01*
X018874Y014815D01*
X018834Y014775D01*
X018794D01*
X018834Y014735D01*
X018794Y014695D01*
X018834D01*
X018874Y014655D01*
X00272Y00227D02*
X00276Y00235D01*
X00272Y00243D01*
X0028Y00239D01*
X00288Y00243D01*
X00284Y00235D01*
X00288Y00227D01*
X0028Y00231D01*
X00272Y00227D01*
X00271Y00311D02*
Y00307D01*
X00279D01*
Y00311D01*
X00283D01*
Y00319D01*
X00279D01*
Y00323D01*
X00271D01*
Y00319D01*
X00267D01*
Y00311D01*
X00271D01*
Y00386D02*
Y00382D01*
X00279D01*
Y00386D01*
X00283D01*
Y00394D01*
X00279D01*
Y00398D01*
X00271D01*
Y00394D01*
X00267D01*
Y00386D01*
X00271D01*
X00871Y00471D02*
Y00467D01*
X00879D01*
Y00471D01*
X00883D01*
Y00479D01*
X00879D01*
Y00483D01*
X00871D01*
Y00479D01*
X00867D01*
Y00471D01*
X00871D01*
X01297Y00562D02*
X01301Y0057D01*
X01297Y00578D01*
X01305Y00574D01*
X01313Y00578D01*
X01309Y0057D01*
X01313Y00562D01*
X01305Y00566D01*
X01297Y00562D01*
X012934Y006645D02*
Y006605D01*
X013014D01*
Y006645D01*
X013054D01*
Y006725D01*
X013014D01*
Y006765D01*
X012934D01*
Y006725D01*
X012894D01*
Y006645D01*
X012934D01*
X00891Y00706D02*
Y00702D01*
X00899D01*
Y00706D01*
X00903D01*
Y00714D01*
X00899D01*
Y00718D01*
X00891D01*
Y00714D01*
X00887D01*
Y00706D01*
X00891D01*
X012944Y007805D02*
X012984Y007885D01*
X012944Y007965D01*
X013024Y007925D01*
X013104Y007965D01*
X013064Y007885D01*
X013104Y007805D01*
X013024Y007845D01*
X012944Y007805D01*
X01387Y00942D02*
X01391Y0095D01*
X01387Y00958D01*
X01395Y00954D01*
X01403Y00958D01*
X01399Y0095D01*
X01403Y00942D01*
X01395Y00946D01*
X01387Y00942D01*
X014444Y010005D02*
X014484Y010085D01*
X014444Y010165D01*
X014524Y010125D01*
X014604Y010165D01*
X014564Y010085D01*
X014604Y010005D01*
X014524Y010045D01*
X014444Y010005D01*
X011044Y010355D02*
X011084Y010435D01*
X011044Y010515D01*
X011124Y010475D01*
X011204Y010515D01*
X011164Y010435D01*
X011204Y010355D01*
X011124Y010395D01*
X011044Y010355D01*
X009734Y011839D02*
Y011799D01*
X009814D01*
Y011839D01*
X009854D01*
Y011919D01*
X009814D01*
Y011959D01*
X009734D01*
Y011919D01*
X009694D01*
Y011839D01*
X009734D01*
X012234Y013745D02*
Y013705D01*
X012314D01*
Y013745D01*
X012354D01*
Y013825D01*
X012314D01*
Y013865D01*
X012234D01*
Y013825D01*
X012194D01*
Y013745D01*
X012234D01*
X010634Y014745D02*
Y014705D01*
X010714D01*
Y014745D01*
X010754D01*
Y014825D01*
X010714D01*
Y014865D01*
X010634D01*
Y014825D01*
X010594D01*
Y014745D01*
X010634D01*
X005684D02*
Y014705D01*
X005764D01*
Y014745D01*
X005804D01*
Y014825D01*
X005764D01*
Y014865D01*
X005684D01*
Y014825D01*
X005644D01*
Y014745D01*
X005684D01*
X010644Y016605D02*
X010684Y016685D01*
X010644Y016765D01*
X010724Y016725D01*
X010804Y016765D01*
X010764Y016685D01*
X010804Y016605D01*
X010724Y016645D01*
X010644Y016605D01*
X006344Y017305D02*
X006384Y017385D01*
X006344Y017465D01*
X006424Y017425D01*
X006504Y017465D01*
X006464Y017385D01*
X006504Y017305D01*
X006424Y017345D01*
X006344Y017305D01*
X013994Y017705D02*
X014034Y017785D01*
X013994Y017865D01*
X014074Y017825D01*
X014154Y017865D01*
X014114Y017785D01*
X014154Y017705D01*
X014074Y017745D01*
X013994Y017705D01*
X004594Y018405D02*
X004634Y018485D01*
X004594Y018565D01*
X004674Y018525D01*
X004754Y018565D01*
X004714Y018485D01*
X004754Y018405D01*
X004674Y018445D01*
X004594Y018405D01*
X015134Y006145D02*
Y006105D01*
X015214D01*
Y006145D01*
X015254D01*
Y006225D01*
X015214D01*
Y006265D01*
X015134D01*
Y006225D01*
X015094D01*
Y006145D01*
X015134D01*
X015044Y008455D02*
X015084Y008535D01*
X015044Y008615D01*
X015124Y008575D01*
X015204Y008615D01*
X015164Y008535D01*
X015204Y008455D01*
X015124Y008495D01*
X015044Y008455D01*
X015744Y012655D02*
X015784Y012735D01*
X015744Y012815D01*
X015824Y012775D01*
X015904Y012815D01*
X015864Y012735D01*
X015904Y012655D01*
X015824Y012695D01*
X015744Y012655D01*
X016644Y015505D02*
X016684Y015585D01*
X016644Y015665D01*
X016724Y015625D01*
X016804Y015665D01*
X016764Y015585D01*
X016804Y015505D01*
X016724Y015545D01*
X016644Y015505D01*
X016494Y017205D02*
X016534Y017285D01*
X016494Y017365D01*
X016574Y017325D01*
X016654Y017365D01*
X016614Y017285D01*
X016654Y017205D01*
X016574Y017245D01*
X016494Y017205D01*
X015194Y018355D02*
X015234Y018435D01*
X015194Y018515D01*
X015274Y018475D01*
X015354Y018515D01*
X015314Y018435D01*
X015354Y018355D01*
X015274Y018395D01*
X015194Y018355D01*
X015934Y018545D02*
Y018505D01*
X016014D01*
Y018545D01*
X016054D01*
Y018625D01*
X016014D01*
Y018665D01*
X015934D01*
Y018625D01*
X015894D01*
Y018545D01*
X015934D01*
X016434Y019845D02*
Y019805D01*
X016514D01*
Y019845D01*
X016554D01*
Y019925D01*
X016514D01*
Y019965D01*
X016434D01*
Y019925D01*
X016394D01*
Y019845D01*
X016434D01*
D69*
X014204Y001935D02*
G03*
X014204Y001935I-00008J0D01*
G01*
X015204D02*
G03*
X015204Y001935I-00008J0D01*
G01*
X016204D02*
G03*
X016204Y001935I-00008J0D01*
G01*
X019104Y001927D02*
G03*
X019104Y001927I-00008J0D01*
G01*
X020104D02*
G03*
X020104Y001927I-00008J0D01*
G01*
X021104D02*
G03*
X021104Y001927I-00008J0D01*
G01*
M02*
