G04*
G04 #@! TF.GenerationSoftware,Altium Limited,Altium Designer,21.3.2 (30)*
G04*
G04 Layer_Color=8421504*
%FSTAX24Y24*%
%MOIN*%
G70*
G04*
G04 #@! TF.SameCoordinates,7CAEB1DE-A824-4D29-B8D0-2D7E757E666D*
G04*
G04*
G04 #@! TF.FilePolarity,Positive*
G04*
G01*
G75*
%ADD19R,0.0472X0.0315*%
%ADD20R,0.0394X0.0374*%
%ADD21R,0.0374X0.0394*%
%ADD22O,0.0118X0.0571*%
%ADD23O,0.0571X0.0118*%
%ADD24O,0.0571X0.0236*%
%ADD25R,0.0550X0.0500*%
G04:AMPARAMS|DCode=26|XSize=55.1mil|YSize=47.2mil|CornerRadius=5.9mil|HoleSize=0mil|Usage=FLASHONLY|Rotation=270.000|XOffset=0mil|YOffset=0mil|HoleType=Round|Shape=RoundedRectangle|*
%AMROUNDEDRECTD26*
21,1,0.0551,0.0354,0,0,270.0*
21,1,0.0433,0.0472,0,0,270.0*
1,1,0.0118,-0.0177,-0.0217*
1,1,0.0118,-0.0177,0.0217*
1,1,0.0118,0.0177,0.0217*
1,1,0.0118,0.0177,-0.0217*
%
%ADD26ROUNDEDRECTD26*%
%ADD27R,0.0480X0.0244*%
G04:AMPARAMS|DCode=28|XSize=33.9mil|YSize=16.5mil|CornerRadius=2.1mil|HoleSize=0mil|Usage=FLASHONLY|Rotation=0.000|XOffset=0mil|YOffset=0mil|HoleType=Round|Shape=RoundedRectangle|*
%AMROUNDEDRECTD28*
21,1,0.0339,0.0124,0,0,0.0*
21,1,0.0297,0.0165,0,0,0.0*
1,1,0.0041,0.0149,-0.0062*
1,1,0.0041,-0.0149,-0.0062*
1,1,0.0041,-0.0149,0.0062*
1,1,0.0041,0.0149,0.0062*
%
%ADD28ROUNDEDRECTD28*%
%ADD29R,0.0591X0.0394*%
G36*
X015594Y019185D02*
X015224D01*
Y019784D01*
X015594D01*
Y019185D01*
D02*
G37*
D19*
X009802Y009785D02*
D03*
X007046D02*
D03*
D20*
X009779Y011335D02*
D03*
X010369D02*
D03*
X009019D02*
D03*
X008429D02*
D03*
X017369Y005685D02*
D03*
X016779D02*
D03*
X013839Y007885D02*
D03*
X014429D02*
D03*
X013829Y008535D02*
D03*
X014419D02*
D03*
X015324Y007935D02*
D03*
X015915D02*
D03*
X013929Y011085D02*
D03*
X014519D02*
D03*
X008619Y015635D02*
D03*
X008029D02*
D03*
X008719Y017285D02*
D03*
X008129D02*
D03*
Y016485D02*
D03*
X008719D02*
D03*
X008419Y020185D02*
D03*
X007829D02*
D03*
X012169Y016685D02*
D03*
X011579D02*
D03*
X012179Y017985D02*
D03*
X012769D02*
D03*
X014669Y018435D02*
D03*
X014079D02*
D03*
X015979Y018035D02*
D03*
X016569D02*
D03*
X008129Y013185D02*
D03*
X008719D02*
D03*
D21*
X009724Y01353D02*
D03*
Y012939D02*
D03*
X010374D02*
D03*
Y01353D02*
D03*
X009574Y014139D02*
D03*
Y01473D02*
D03*
X015924Y005689D02*
D03*
Y00628D02*
D03*
X005174Y01538D02*
D03*
Y014789D02*
D03*
X009874Y018389D02*
D03*
Y01898D02*
D03*
X010724D02*
D03*
Y018389D02*
D03*
X005424Y01908D02*
D03*
Y018489D02*
D03*
X020024Y01618D02*
D03*
Y015589D02*
D03*
X014074Y019289D02*
D03*
Y01988D02*
D03*
X015974Y014939D02*
D03*
Y01553D02*
D03*
X00065Y002345D02*
D03*
Y001755D02*
D03*
X011224Y004885D02*
D03*
Y005475D02*
D03*
Y006039D02*
D03*
Y00663D02*
D03*
D22*
X011991Y015548D02*
D03*
X012188D02*
D03*
X012385D02*
D03*
X012582D02*
D03*
X012779D02*
D03*
X012976D02*
D03*
X013172D02*
D03*
X013369D02*
D03*
X013566D02*
D03*
X013763D02*
D03*
X01396D02*
D03*
X014157D02*
D03*
Y012221D02*
D03*
X01396D02*
D03*
X013763D02*
D03*
X013566D02*
D03*
X013369D02*
D03*
X013172D02*
D03*
X012976D02*
D03*
X012779D02*
D03*
X012582D02*
D03*
X012385D02*
D03*
X012188D02*
D03*
X011991D02*
D03*
D23*
X014737Y014967D02*
D03*
Y01477D02*
D03*
Y014574D02*
D03*
Y014377D02*
D03*
Y01418D02*
D03*
Y013983D02*
D03*
Y013786D02*
D03*
Y013589D02*
D03*
Y013393D02*
D03*
Y013196D02*
D03*
Y012999D02*
D03*
Y012802D02*
D03*
X011411Y012999D02*
D03*
Y013196D02*
D03*
Y013393D02*
D03*
Y013589D02*
D03*
Y013786D02*
D03*
Y013983D02*
D03*
Y01418D02*
D03*
Y014377D02*
D03*
Y014574D02*
D03*
Y01477D02*
D03*
Y014967D02*
D03*
Y012802D02*
D03*
D24*
X012166Y007185D02*
D03*
Y006685D02*
D03*
Y006185D02*
D03*
Y005685D02*
D03*
X014312Y007185D02*
D03*
Y006685D02*
D03*
Y006185D02*
D03*
Y005685D02*
D03*
D25*
X004224Y015385D02*
D03*
Y014485D02*
D03*
X006424Y019085D02*
D03*
Y018185D02*
D03*
D26*
X008039Y014868D02*
D03*
Y014002D02*
D03*
X008709D02*
D03*
Y014868D02*
D03*
D27*
X007808Y01896D02*
D03*
X00884Y018584D02*
D03*
Y01821D02*
D03*
Y018958D02*
D03*
X007808Y01821D02*
D03*
D28*
X014844Y019878D02*
D03*
Y019485D02*
D03*
Y019091D02*
D03*
X015974D02*
D03*
Y019485D02*
D03*
Y019878D02*
D03*
D29*
X008Y000775D02*
D03*
Y001563D02*
D03*
Y00235D02*
D03*
Y003137D02*
D03*
Y003925D02*
D03*
Y004712D02*
D03*
Y0055D02*
D03*
Y006287D02*
D03*
X001701Y000775D02*
D03*
Y001563D02*
D03*
Y00235D02*
D03*
Y003137D02*
D03*
Y003925D02*
D03*
Y004712D02*
D03*
Y0055D02*
D03*
Y006287D02*
D03*
M02*
